<?xml version="1.0" standalone="no"?>
<!DOCTYPE svg PUBLIC "-//W3C//DTD SVG 1.1//EN" "http://www.w3.org/Graphics/SVG/1.1/DTD/svg11.dtd">
<svg xmlns="http://www.w3.org/2000/svg">
<metadata>Generated by Fontastic.me</metadata>
<defs>
<font id="untitled-font-3" horiz-adv-x="512">
<font-face font-family="untitled-font-3" units-per-em="512" ascent="480" descent="-32"/>
<missing-glyph horiz-adv-x="512" />

<glyph glyph-name="issueicons-regular" unicode="&#97;" d="M422 357l-388 0 0-234 451 0 0 234z m46-174c-23-6-37-20-43-43l-330 0c-6 23-21 37-43 43l0 113c22 7 37 21 43 43l330 0c6-22 20-36 43-43z m-208 147c-22 0-41-9-57-27-16-17-24-38-24-63 0-25 8-46 24-63 16-18 35-27 57-27 22 0 42 9 57 27 16 17 24 38 24 63 0 25-8 46-24 63-15 18-35 27-57 27z m34-141c-5-5-13-8-25-10l0-12-18 0 0 12c-11 2-19 4-24 8-8 7-12 15-12 25l22 0c1 0 1 0 2-1 0-2 0-3 1-5 0-1 1-3 2-3 1-1 4-2 9-4l0 30c-11 3-19 6-23 9-7 5-11 13-11 24 0 10 4 19 11 25 5 6 13 9 23 10l0 15 18 0 0-16c6-1 13-4 21-9 3-3 6-5 7-6 2-2 4-5 5-9 2-4 2-9 3-14l-23 0c0 7-4 12-11 15l-2 2 0-28 8-1c10-3 17-6 21-9 6-5 10-12 10-22 0-11-5-19-14-26z m-14 32c-4 2-8 3-11 4l0-26 2 0c1 0 2 0 3 0 7 3 10 7 10 13 0 4-2 7-4 9z m-41 43c0-4 2-7 5-9 1-1 4-2 7-3l0 25c-3-1-5-2-7-3-3-2-5-6-5-10z"/>
<glyph glyph-name="issueicons-regular-1" unicode="&#98;" d="M256 224c10 26 28 57 63 85 0 107-63 194-63 194 0 0-63-87-63-194 35-29 53-60 63-85z m100 96c-25-16-92-58-100-150-8 79-58 125-100 150 0 0-12-63 16-121 27-57 83-88 83-88l2 0c0 0 56 31 83 88 28 58 16 121 16 121z"/>
<glyph glyph-name="issueicons-regular-2" unicode="&#99;" d="M324 271c-5 9-18 12-27 5l-21-13c-3 2-11 7-30 32-21 31-19 43-19 44l20 14c9 5 13 19 5 27l-27 41-1 2c-2 0-7 6-16 6-8 0-19-4-27-11l-2-3c-19-27-22-60-22-62l0-3c8-38 27-68 39-85l2-4 2-1c14-21 34-46 63-67l2-2c0 0 18-7 42-7 9 0 16 0 24 2l3 2c28 17 23 36 23 37z m0-66c-5-2-12-2-18-2-18 0-33 3-36 5-28 19-45 41-59 62l-3 5c-10 17-29 44-38 78 0 5 6 31 19 51 16 9 21 7 25 7l25-41c0-1 0-3 0-3l-19-12c-3-2-6-3-9-8-5-13 3-33 21-60 18-27 34-41 46-41 5 0 9 1 10 5l19 12c0 0 2 0 2-2l27-39c2-3 0-11-12-17z m-68 298c-108 0-196-88-196-196 0-107 88-196 196-196 108 0 196 89 196 196 0 108-88 196-196 196z m0-375c-99 0-179 80-179 179 0 99 80 179 179 179 99 0 179-80 179-179 0-99-80-179-179-179z"/>
<glyph glyph-name="issueicons-regular-3" unicode="&#100;" d="M136 492c-5 0-15-2-26-10-2-2-5-5-9-8l-1-1c-11-12-26-33-28-67-3-46 28-92 32-99 40-67 82-108 152-152 7-4 53-35 99-32 34 2 55 17 67 29l1 1c3 3 6 6 8 8 8 11 9 21 9 26 0 4 0 23-6 30-1 1-1 1-1 2-3 2-7 4-12 6l-70 24c-9 4-20 2-28-7-9-9-17-17-20-20-3-3-9-8-18-4-52 29-89 62-118 118-5 10 0 15 4 18 3 3 11 11 20 20 9 8 11 19 7 28l-24 71c-2 5-5 8-7 11 0 0-1 0-1 1-7 7-26 7-30 7z"/>
<glyph glyph-name="issueicons-regular-4" unicode="&#101;" d="M454 348l-85 0c-4 0-7-2-9-5-1-3 0-7 2-9l37-37-116-116-62 62c-3 4-9 4-12 0l-103-102c-3-3-3-9 0-12 2-2 4-3 7-3 2 0 4 1 5 3l97 96 62-62c4-3 9-3 12 0l122 122 36-37c3-1 5-2 7-2 1 0 2 0 3 1 3 1 5 4 5 7l0 86c0 5-4 8-8 8z m-248-19l0-31c10 3 17 9 17 16 0 7-5 12-17 15z m-34 37c0-8 6-12 17-15l0 30c-10-2-17-8-17-15z m26 119c-80 0-145-65-145-145 0-62 38-115 93-136l51 51c5 5 11 8 18 8 7 0 13-3 18-8l40-39c42 25 70 71 70 124 0 80-65 145-145 145z m8-204l0-10c0-4-4-8-8-8-5 0-9 4-9 8l0 10c-19 3-33 15-34 31 0 4 3 9 8 9 4 1 9-3 9-8 1-7 8-12 17-15l0 35c-23 5-34 16-34 33 0 16 15 30 34 33l0 9c0 5 4 9 9 9 4 0 8-4 8-9l0-9c19-3 33-16 34-31 1-5-3-9-8-10-4 0-8 3-9 8 0 7-7 13-17 15l0-34c23-6 35-17 35-33 0-17-15-30-35-33z"/>
<glyph glyph-name="issueicons-regular-5" unicode="&#102;" d="M257 388c0 7-6 12-12 12-7 0-12-5-12-12 0-7 5-12 12-12 6 0 12 5 12 12z m-99-15c26 1 47-16 62-35 15-19 26-43 33-65 8-24 12-48 13-73 0-23-3-50-18-70-1-1-2-3-4-5 0 0-1-1-2-2 0 0 0-1 0-1-1 0-1 0-1 0-1 1-2 1-4 1-3 0-5 1-8 1-5 2-10 5-14 8-11 6-18 15-22 27-3 6-4 12-4 19 1 6 2 11 2 17 2 12 3 25 3 37 0 25-3 49-8 73-4 18-10 35-18 51-2 4-4 9-7 13-1 1-1 2-2 3 0 1 0 1 0 1-1 0-1 1-1 0z m120-67c7-1 12-10 9-17 0 0-1 0-1-1 0 0 0 0 0 0 0 0 0 0 0 1-1 0-1 1-1 2-1 2-2 3-3 5-1 4-3 7-4 10z m-5 8c6-2 12 2 14 8 2 6-1 12-7 14-7 2-13-1-15-6 0-1-1-2 0-3 0 0 0 0 0-1 0 0 1-1 1-1 1-1 1-2 2-3 2-3 3-6 5-8z m-25 32c6 2 10 8 8 14-2 6-7 10-13 9-3-1-6-2-7-5-2-1-2-2-3-3 0 0 0-2 0-2 1-1 1-2 3-2 4-3 8-7 12-11z m-23 42c0 7-5 12-12 12-6 0-12-5-12-12 0-7 6-12 12-12 7 0 12 5 12 12z m63 63c0 6-5 12-12 12-7 0-12-6-12-12 0-7 5-12 12-12 7 0 12 5 12 12z m-31-32c0 7-6 12-12 12-7 0-12-5-12-12 0-6 5-11 12-11 6 0 12 5 12 11z m-67-49c53-13 81-59 96-106 7-24 11-48 13-74 1-12 2-22-4-34-5-12-14-22-27-28-6-3-12-5-19-5 0 0-1-1-1-1 0 0-1 0-1 0 0 0 0 0 0 0 0 1 0 1 1 1 1 2 2 4 4 6 2 4 5 8 7 12 4 10 7 19 8 29 4 25 2 51-2 75-9 41-33 103-75 125z m98 49c0 7-5 12-12 12-7 0-12-5-12-12 0-6 5-11 12-11 7 0 12 5 12 11z m17-206c0 32 8 78 49 92 0 0-22 22-66-23 2-4 3-9 5-14 1-5 3-11 4-17 2-5 3-10 4-15 2-9 3-16 4-23z m-48 269c0 7-6 12-12 12-7 0-12-5-12-12 0-6 5-11 12-11 6 0 12 5 12 11z m0-31c0 6-6 12-12 12-7 0-12-6-12-12 0-7 5-12 12-12 6 0 12 5 12 12z m-32 0c0 6-5 12-12 12-6 0-12-6-12-12 0-7 6-12 12-12 7 0 12 5 12 12z m0-32c0 7-5 12-12 12-6 0-12-5-12-12 0-6 6-11 12-11 7 0 12 5 12 11z m63-62c0 7-5 12-12 12-7 0-12-5-12-12 0-7 5-12 12-12 7 0 12 5 12 12z"/>
<glyph glyph-name="issueicons-regular-6" unicode="&#103;" d="M249 485c-4-2-7-6-12-17-12-23-14-24-47-34-9-2-16-5-16-6 0-2 6-3 27-5l20-1 1-11c1-13 2-17 8-26 6-9 17-16 30-19 10-2 13-2 22-1 10 3 21 8 27 16 7 8 12 21 12 29l0 7 21-1c12 0 22 0 22 1 1 0-5 3-12 7-21 10-27 18-30 38-2 10-7 17-13 20-2 1-13 3-24 3-11 1-22 2-25 2-3 1-7 0-11-2z m-135-78c-2-4-5-7-8-8-15-6-33-16-38-22-9-8-9-14 1-7 2 2 12 8 23 13 13 7 20 9 21 8 1-1 3-2 5-2 2 0 3-2 4-6 0-4 2-13 4-22 2-8 5-24 7-34 2-11 5-23 6-29 1-5 3-12 3-17 1-5 2-11 3-14 1-3 3-12 5-20l2-14-5-11c-3-5-5-13-5-16 0-8 5-15 13-17 6-1 6-1 9-15 2-8 4-21 6-30 3-19 5-23 9-23 5 0 6 3 3 13-3 11-7 30-10 48-2 9-2 12 1 14 1 2 6 10 11 20 16 31 25 48 27 48 3 1 3-167 0-169 0-1-1-14-2-27l0-26-5-1c-6-2-13-5-15-8-1-1-1-3-1-6l0-5 79 0-1 35c-1 24-1 36-3 37-3 3-3 82 0 85 2 2 10 3 14 1 3-1 3-6 3-43 0-27-1-43-2-44-1-1-2-15-2-36l0-35 79 0 0 5c0 6-6 12-16 13l-6 1 0 27c0 16-1 26-2 26-1 0-2 33-2 95 0 53 1 96 2 96 1 0 5-6 14-24 7-14 14-36 16-50 3-16 7-22 19-22 6 0 9 1 13 6 5 5 5 5 4 16-3 35-22 78-46 107-12 15-34 35-41 38-4 2-14 3-38 3-32 0-42-2-48-6-2-2-19-26-19-28 0 0-3-5-6-11-4-5-8-11-9-13-1-3-4-8-7-12-3-6-16-28-20-36-2-4-5-4-6 1 0 5-4 25-10 49-3 14-6 32-10 51-1 7-3 17-4 20-1 3-2 12-2 20-1 16-3 19-10 19-3 0-5-1-7-6z"/>
<glyph glyph-name="issueicons-regular-7" unicode="&#104;" d="M83 15l-7 69c0 7 8 2 19 2 10 0 18 5 18-2l-5-68c0-14-25-8-25-1z m-30 228c-50 22-46 59-46 59-7-13 7-125 60-125 24 0 44 40-14 66z m0 79c-50 22-46 58-46 58-7-12 7-124 60-124 24 0 44 39-14 66z m0 76c-50 23-46 59-46 59-7-13 7-124 60-124 24 0 44 39-14 65z m71-221c53 0 67 112 60 125 0 0 4-36-46-59-58-26-38-66-14-66z m-71-15c-50 23-46 59-46 59-7-13 7-125 60-125 24 0 44 40-14 66z m71-66c53 0 67 112 60 125 0 0 4-36-46-59-58-26-38-66-14-66z m0 160c53 0 67 112 60 124 0 0 4-36-46-58-58-27-38-66-14-66z m0 77c53 0 67 111 60 124 0 0 4-36-46-59-58-26-38-65-14-65z m-25 59c57 0-3 120-3 120-7-11-53-120 3-120z m152-387l35 60c2 6-7 4-17 8-9 5-15 13-17 7l-23-66c-3-6 16-22 22-9z m46 228c-36 42-17 74-17 74-11-9-46-117 3-139 21-10 56 18 14 65z m34 72c-37 42-18 73-18 73-11-9-45-116 3-138 21-10 56 17 15 65z m32 69c-36 42-17 73-17 73-12-8-46-115 2-138 22-10 56 18 15 65z m-29-230c48-22 108 73 107 87 0 0-11-34-67-33-63 0-61-44-40-54z m-70 16c-37 42-18 73-18 73-11-9-46-116 2-138 22-10 57 17 16 65z m37-89c48-22 107 73 107 87 0 0-12-34-68-34-63 1-61-43-39-53z m67 145c48-22 107 73 107 87 0 0-12-34-68-34-62 1-61-43-39-53z m32 69c48-22 107 73 107 88 0 0-11-35-68-35-62 1-61-43-39-53z m2 64c51-23 48 111 48 111-11-8-99-87-48-111z"/>
<glyph glyph-name="issueicons-regular-8" unicode="&#105;" d="M113 191c-23 0-42-19-42-42 0-24 19-42 42-42 23 0 42 19 42 42 0 23-19 42-42 42z m0 67c-60 0-109-49-109-109 0-60 49-109 109-109 60 0 109 49 109 109 0 60-49 109-109 109z m0-171c-34 0-62 28-62 62 0 33 28 61 62 61 34 0 61-27 61-61 0-34-27-62-61-62z m325 108c-42 0-77-34-77-77 0-43 35-78 77-78 43 0 78 35 78 78 0 43-35 77-78 77z m0-114c-20 0-36 16-36 37 0 20 16 36 36 36 21 0 37-16 37-36 0-21-16-37-37-37z m-62 107c-17 13-43 28-78 36l0 10c39-8 68-26 85-40 16 12 35 18 55 18 12 0 22-2 32-6-1 25-4 50-12 53-40 15-92 24-134 28l0 77c0 11 6 13 7 14 5 1 8 7 6 12-1 5-6 8-12 7-7-3-20-12-20-33l0-76c-3 0-6 1-9 1l-22 97c-1 4-4 7-8 8-5 0-115 20-199 3-5-1-8-6-7-11 1-6 6-9 11-8 1 0 3 0 4 0l-15-88c0-1 0-1 0-1l-4 0c-18 0-22-12-22-12l-11-28 9-4c22 18 50 29 81 29 69 0 125-56 125-125 0-12-2-24-5-35l112 0c0 1-1 2-1 4 0 28 12 53 32 70z m36 68c3 0 6 0 7-3l8-20c1-2 0-5-3-7-1 0-1 0-2 0-2 0-4 1-4 3l-8 20c-1 3 0 6 2 7z m-22 0c2 0 5 0 6-3l8-20c1-2 0-5-3-7 0 0-1 0-2 0-2 0-3 1-4 3l-8 20c-1 3 0 6 3 7z m-228 28c-7 3-15 4-21 5l-62 0 14 83 69 0z m116-74l-35 0c-11 31-36 53-61 66l0 96 75 0 21-92z"/>
<glyph glyph-name="issueicons-regular-9" unicode="&#106;" d="M345 424c0 15 12 27 27 27 15 0 27-12 27-27 0-14-12-26-27-26-15 0-27 12-27 26m37-34c0 0 24 2 24-23-1 0 0-70 0-70 0 0 0-12-16-15 0 1-75-16-75-16 0 0-5-1-7-6 0 0-21-76-21-76 0 0-2-12-17-9 2 0-15 1-11 19 1 0 21 83 21 83 0 0 2 16 20 20 1 0 50 10 50 10 0 0 5 1 3 4 0 1-7 22-7 22 0 0-2 3-8 1 1 0-49-25-49-25 0 0-13-5-19 7 1 0-8 13 6 22 0 0 88 49 88 49 0 0 7 4 18 3m-315-189c-37 0-67-30-67-67 0-36 30-67 67-67 37 0 67 30 67 67 0 37-30 67-67 67z m0-94c-15 0-27 12-27 27 0 15 12 27 27 27 15 0 27-12 27-27 0-15-12-27-27-27z m339 167c-59 0-107-48-107-107 0-58 48-106 107-106 58 0 106 48 106 106 0 59-48 107-106 107z m0-147c-23 0-42 18-42 40 0 23 19 42 42 42 22 0 40-19 40-42 0-22-18-40-40-40z m-136 175l-33 33c-1 2-5 2-8 0l-6-6c-1-2-2-3-2-5 0-1 1-3 2-4l7-7c2-2 2-5 0-7l-5-5c-2-2-4-1-5 1l-3 12c-1 4-4 6-7 6l-203 0c-1 0-2 0-3-2-1-1-1-2-1-4l27-105c1-3 4-5 8-5l202 0c1 0 3 0 4 1 0 1 1 3 0 5l-16 64c-1 3 0 7 2 9l12 11c1 2 5 2 7 0l6-6c3-3 7-3 9 0l6 6c1 1 2 3 2 4 0 2-1 3-2 4z m-17-128l-4 19c-1 3-4 6-8 6l-126 0c-2 0-3-1-3-2-1-1 0-2 1-3l19-21c2-2 6-4 9-4l108 0c2 0 3 0 4 2 1 1 1 2 0 3z"/>
<glyph glyph-name="issueicons-regular-10" unicode="&#107;" d="M256 126c61 0 44 141 127 141 55 0 57-77 57-38 0 39-40 95-76 95-37 0-53-49-52-46 0 4 0 10 0 10l-25 0 0-24 18 0-2-5-16 0 0-25 2 0-6-10 0 6-25 0 0-18-4 0 0 18-25 0 0-6-6 10 2 0 0 25-16 0-2 5 18 0 0 24-25 0c0 0 0-6 0-10 1-3-15 46-52 46-37 0-76-56-76-95 0-40 2 38 57 38 83 0 66-141 127-141z m-2 340l-25 0c13 22 25 22 25 22z m-37-29l8 0 0 21c0 0-6-15-8-21z m-8-28l16 0 0 24-9 0c-3-7-7-24-7-24z m-5-30l21 0 0 25-17 0c-3-15-4-25-4-25z m-3-29l24 0 0 25-21 0c-1-6-3-25-3-25z m-1-28l25 0 0 24-24 0c0-4-1-24-1-24z m0-30l25 0 0 25-25 0c-1-6 0-25 0-25z m29 145l25 0 0 25-25 0z m0-28l25 0 0 24-25 0z m0-30l25 0 0 25-25 0z m0-29l25 0 0 25-25 0z m0-28l25 0 0 24-25 0z m0-30l25 0 0 25-25 0z m0-28l25 0 0 24-25 0z m0-30l25 0 0 25-25 0z m29 232l25 0c-13 22-25 22-25 22z m29-8l0-21 8 0c-2 6-8 21-8 21z m9-25l-9 0 0-24 16 0c0 0-4 17-7 24z m8-29l-17 0 0-25 21 0c0 0-1 10-4 25z m4-29l-21 0 0-25 24 0c0 0-2 19-3 25z m3-29l-24 0 0-24 25 0c0 0-1 20-1 24z m1-29l-25 0 0-25 25 0c0 0 1 19 0 25z m-29 145l-24 0 0-25 24 0z m0-29l-24 0 0-24 24 0z m0-29l-24 0 0-25 24 0z m0-29l-24 0 0-25 24 0z m0-29l-24 0 0-24 24 0z m0-29l-24 0 0-25 24 0z m0-29l-24 0 0-24 24 0z m0-29l-24 0 0-25 24 0z"/>
<glyph glyph-name="issueicons-regular-11" unicode="&#108;" d="M262 257c-2-3-5-4-8-4-3 0-6 1-8 4l-145 145c0-2-1-4-1-6l0-178c0-12 10-22 22-22l268 0c12 0 22 10 22 22l0 178c0 3-1 6-2 9z m130 153c-1 0-1 0-2 0l-268 0c-2 0-3 0-5-1l137-137z"/>
<glyph glyph-name="issueicons-regular-12" unicode="&#109;" d="M256 492c-102 0-184-83-184-185 0-102 82-184 184-184 102 0 184 82 184 184 0 102-82 185-184 185z m0-21c91 0 164-73 164-164 0-90-73-164-164-164-91 0-164 74-164 164 0 91 73 164 164 164z m0-7c-87 0-157-70-157-157 0-87 70-157 157-157 87 0 157 71 157 157 0 87-70 157-157 157z m0-3c85 0 154-69 154-154 0-85-69-154-154-154-85 0-154 69-154 154 0 85 69 154 154 154z m-6-30l0-12c-16-1-28-6-36-13-13-11-19-25-19-42 0-10 2-19 7-27 4-7 10-13 18-18 10-6 21-10 30-11l0-79c-9 1-18 6-24 15-5 6-8 16-10 29l-25-5c1-13 4-23 10-32 5-9 12-15 20-19 7-5 17-7 29-9l0-24 15 0 0 25c17 0 31 7 42 18 11 12 17 25 17 43 0 8-2 15-5 21-2 7-6 13-11 17-4 5-11 9-18 13-4 2-12 4-25 7l0 71c8-2 15-5 19-10 5-6 7-13 9-22l25 3c-2 16-8 28-19 37-8 7-20 11-34 12l0 12z m0-32l0-68c-11 3-19 8-23 14-5 5-7 12-7 21 0 8 3 15 8 22 5 6 13 9 22 11z m15-95c13-4 22-9 26-15 5-5 7-12 7-21 0-10-3-19-9-26-6-8-15-12-24-13z"/>
<glyph glyph-name="issueicons-regular-13" unicode="&#110;" d="M453 509c-1 0-1 0-2-1l-14-13c0 0-1 0-1 0l-1-2c0 0 0-1 0-1l-39-36c-1 0-2 0-3 0l-14 15c-2 2-5 2-7 0l-2-1c-1 0-1-3-1-4l1-24c0-1-1-1-1-1-1 0-1 0-1-1l-117-103c0 0 0-1 0-1l1-2c1-1 0-1 0-2l-6-3c-1-1-1-1-1-1l0-1c1-1 0-1-1-1 0 0 0 0-1 0l-7 7c-2 3-6 3-8 1l-55-44c0 0-1 0-1 0 0-1 0-1-1-1l-6-4c-1 0-2-2-2-4 0 0 0 0 0-1l0-3c0-1 0-1 0-2l3-3c1-1 1-1 0-1l-1-1c0 0-1 0 0-1l3-8c0-1 0-1 0-1l-4-5c0 0 0 0 0-1l3-3c0-1 0-1 0-1l-2-3-1-1-108-101c0 0-1-4 3-7 4-4 32-29 39-31 0 0 4-3 8 3l47 77c0 0 20 35 28 42 0 0 17 15 20-5l3-36c0-2 1-2 2-2l23 15c0 0 1 1 1 3 0 0-1 1-1 1-1 0-2 1-3 2l-4 12c0 0-1 2 3 5 0 0 1 1 0 1 0 0-5 0-5 2l-1 6c0 1 0 1 1 2l24 23c0 0 1 0 1 0 4-4 22-18 40-27 1 0 2 0 3 0 1 0 2 1 2 2l16 25c1 1 0 2 0 3-8 3-34 19-38 25-1 1 0 1 0 2l1 1c1 1 1 1 0 2-1 0-1 0-2 0 0 0 0 0 0 0l-8 8c0 0-3 6 2 11l5 6c1 1 2 1 2 0l1 0c1-1 2-1 2 0l24 22 88 86c0 0 0 0 0 0 0 1 1 2 1 3 0 1 0 1 1 2l4 3c0 0 0 1 0 1l-2 1c0 0 0 1 0 1 0 0 0 0 0 1 0 0 0 0 0 1l6 5c0 0 1 1 1 0 1 0 1 0 2 0 0 0 0 0 1 0l2-2c1 0 1 0 1 0l2 2c1 0 1 0 0 1-1 1-1 1 0 1l2 2c0 0 0 0 0 1l-1 2c0 0-1 0-1 0-1 0-1 0-1 1l39 36c0 0 0 0 0 1l2 1c0 0 1 0 1 0l14 14c1 0 1 1 1 1 0 2-1 5-5 6z m-214-244c2-3 2-7-1-10l-12-11c-3-3-7-2-10 1-1 1-1 3-1 4 0 1 0 1 0 2 0 1 1 2 2 2 1 0 2 0 2-1 3-4 6-5 8-5 1 0 1 2 0 2-6 2-6 7-6 9 0 0 0 1 1 1l6 6c3 2 8 2 11 0z m-7 63c1 0 0-1 0-1-1 0-1-1-1-1-1-1-2-3-2-4 0 0 0-1 0-1l-36-34c-3-2-5-2-7 0-2 1-1 4 0 6l40 36c1 2 4 2 6 0 0 0 0 0 0-1z m154 129c1-1 1-2 0-2l-9-9c-1-1-2 0-3 1l-1 14c0 1 2 2 3 1l2-2c0 0 1 0 2 0l0 1c1 0 2 0 3 0z"/>
<glyph glyph-name="issueicons-regular-14" unicode="&#111;" d="M178 464c-4 0-9-4-10-5-6-4-12-10-19-17-7-6-13-13-17-19-1-2-8-10-3-14 18-18 36-20 50-14 10-9 33-33 57-57 6 6 11 12 17 17-25 24-47 47-57 57 6 14 5 32-14 50-1 1-2 2-4 2z m200 0c-1 0-3-1-4-2l-173-173c-3 0-6-1-8-3l-11-11-17 17c-5 5-18 12-28 1l-64-64c-2-2-2-4 0-5 0 0 1-1 2-1 1 0 1 1 2 1l64 64c9 9 19 0 20-1l9-9-73-74c-1-1-1-3 0-4 1-1 2-1 3-1 0 0 1 0 2 1l73 73 4-4 0 0c0-3 0-6 3-8 1-2 4-3 6-3 1 0 1 0 2 0l4-4-74-73c-1-1-1-3 0-4 1-1 2-1 3-1 0 0 1 0 2 1l73 73 10-10c0 0 3-3 4-7 2-5 1-9-3-13l-64-64c-1-1-1-3 0-4 1-1 1-1 2-1 1 0 2 0 3 1l64 64c10 10 4 23-1 28l-17 17 11 11c2 2 2 5 2 8l173 173c0 0 1 0 1 0 3 2 3 6 0 9-2 1-3 2-5 2z m-199-16l2-2c9-11 9-25 0-35-11-10-25-11-36-1l-2 3c6 4 12 9 19 16 7 7 13 13 17 19z m97-116c-6-6-11-11-16-17 36-37 70-71 70-71-12-13-21-24-25-31l43-43c11-11 37-31 84-11 20 47 0 73-11 84l-43 43c-6-4-18-14-30-25 0 0-35 34-72 71z"/>
<glyph glyph-name="issueicons-regular-15" unicode="&#112;" d="M256 495c-104 0-188-84-188-188 0-104 84-188 188-188 104 0 188 84 188 188 0 104-84 188-188 188z m70-294c-29-6-58 4-58 4-29 20-48 44-58 61l-4 4c-10 17-28 44-37 80 0 0 4 30 20 54 21 16 31 7 31 7l27-39c4-5 2-12-3-15l-19-12c0 0-17-6 16-55 32-48 41-32 41-32l19 12c5 3 11 1 15-4l27-39c0 2 4-12-17-26z"/>
<glyph glyph-name="issueicons-regular-16" unicode="&#113;" d="M256 102c102 0 184 40 184 88 0 36-45 89-109 114-20-25-46-42-75-42-29 0-55 17-75 42-65-25-109-78-109-114 0-48 82-88 184-88z m-157 108c4 9 11 18 19 27 15 16 35 31 57 42 10-10 19-17 30-24 16-9 33-14 51-14 28 0 57 13 81 38 22-11 42-26 57-42 8-9 15-18 19-27 5-9 6-16 6-20 0-6-3-13-9-20-7-8-19-16-33-23-15-7-33-13-54-17-21-5-44-7-67-7-23 0-46 2-67 7-21 4-39 10-54 17-14 7-26 15-33 23-6 7-9 14-9 20 0 4 1 11 6 20z m157 81c55 0 99 73 99 125 0 53-44 96-99 96-55 0-99-43-99-96 0-52 44-125 99-125z m-78 125c0 20 8 39 22 53 15 14 35 22 56 22 21 0 41-8 56-22 14-14 22-33 22-53 0-10-2-22-7-35-4-12-10-25-18-35-8-11-17-20-26-25-9-7-18-9-27-9-9 0-18 2-27 9-10 5-18 14-26 25-8 10-14 23-18 35-5 13-7 25-7 35z"/>
<glyph glyph-name="issueicons-regular-17" unicode="&#114;" d="M512 451c0 20-17 36-37 36l-438 0c-20 0-37-16-37-36l0-297c0-20 17-37 37-37l438 0c20 0 37 17 37 37z m-37 8c5 0 8-2 9-7l-228-153-228 153c1 5 4 7 9 7z m-447-40l220-148c2-2 5-3 8-3 3 0 6 1 8 3l220 148 0-265c0-5-4-9-9-9l-438 0c-5 0-9 4-9 9z"/>
<glyph glyph-name="issueicons-regular-18" unicode="&#115;" d="M271 249c23 36 55 127 47 148-29-175-130-227-176-238 11-8 89 29 129 90z m13 46c3 9 2 26-26 36-3 1-7 2-10 3 2-12 6-20 10-26 8-13 20-14 26-13z m-26-31c3-1 6-1 8-1 2 6 3 18-8 28-5 4-10 8-18 12-2 1-3 2-6 2 1-11 4-19 6-25 5-10 12-15 18-16z m-40-56c0 0 1 1 1 2 3 6 5 13 0 23-3 7-10 15-22 24-6-38 10-48 21-49z m22 25c1 0 2 0 3 0 3 6 5 15-3 27-4 5-11 11-21 17-1 1-2 1-3 2 0-11 1-19 3-25 5-15 14-20 21-21z m130 168c-38 1-46-16-46-26 9-5 28-8 46 26z m-64-28c2 10-2 28-40 35 12-37 30-38 40-35z m-10-39c1 10-2 28-38 34-1 1-1 1-3 1 2-2 2-4 3-7 12-30 29-31 38-28z m22 70c9 5 21 19 1 53-21-33-9-48-1-53z m-14-107c7-6 24-14 51 14-37 11-48-4-51-14z m9 38c8-6 26-12 51 18-38 7-49-8-51-18z m-28-72c7-8 23-17 52 8-35 15-48 1-52-8z m-95-78c6 8 11 26-21 49-6-38 11-48 21-49z m29-4c-7-1-12-4-14-7 1-5 6-11 14-14 5-2 12-2 21-1 5 1 11 3 17 6-6 5-12 9-17 12-9 4-16 5-21 4z m43 47c5-8 21-19 53 2-33 19-48 7-53-2z m-22-23c-3-2-5-4-7-6 1-3 4-6 7-8 4-3 10-5 18-5 7 1 16 3 28 10-11 8-21 11-28 12-8 1-14 0-18-3z"/>
<glyph glyph-name="issueicons-regular-19" unicode="&#116;" d="M390 423l-272 0c-12 0-21-9-21-20l0-151c0-11 9-21 21-21l272 0c11 0 20 10 20 21l0 151c0 11-9 20-20 20z m-272-8l272 0c3 0 6-1 8-3l-143-98-146 98c2 2 5 3 9 3z m284-163c0-7-6-12-12-12l-272 0c-7 0-13 5-13 12l0 151c0 0 0 0 0 1l150-99 147 99c0-1 0-1 0-1z"/>
<glyph glyph-name="issueicons-regular-20" unicode="&#117;" d="M150 297l102-102c2-3 6-3 9 0l102 102c2 2 2 6 0 9-2 1-3 1-5 1-1 0-3 0-4-1l-98-99-98 99c-1 1-3 1-4 1-2 0-3 0-4-1-3-3-3-7 0-9z"/>
<glyph glyph-name="issueicons-regular-21" unicode="&#118;" d="M256 483c-97 0-176-79-176-176 0-97 79-175 176-175 97 0 176 78 176 175 0 97-79 176-176 176m0-360c-101 0-184 83-184 184 0 102 83 185 184 185 101 0 184-83 184-185 0-101-83-184-184-184m103 124c0-8-7-15-15-15l-176 0c-8 0-15 7-15 15l0 113c0 2 1 5 2 7l98-87c1 0 2-1 3-1 1 0 2 1 3 1l98 87c1-2 2-5 2-7z m-15 129c3 0 5-1 8-2l-96-84-96 84c3 1 5 2 8 2z m0 9l-176 0c-13 0-24-11-24-25l0-113c0-14 11-25 24-25l176 0c13 0 24 11 24 25l0 113c0 14-11 25-24 25"/>
<glyph glyph-name="issueicons-regular-22" unicode="&#119;" d="M260 292c0 20-16 36-36 36-20 0-36-16-36-36 0-19 16-35 36-35 20 0 36 16 36 35z m-69-40c-32-16-49-52-40-88 46-20 99-20 146 0 9 36-8 72-41 88-19-15-46-15-65 0z m141 114c-3 1-6 3-9 6-2 1-4 3-6 6l16 7c0-1 1-2 1-2 2-1 3-1 4-2 1 0 1 0 1 0l0 18c-2 0-5 0-7 1-3 1-6 3-9 6-3 2-5 5-7 8-1 3-2 6-2 10 0 3 1 7 2 10 2 3 4 6 7 8 3 2 6 4 9 5 2 1 5 2 7 2l0 5 9 0 0-5c3 0 5-1 7-2 4-1 7-3 10-5 2-2 4-4 5-6l-16-7c0 0-1 1-1 1-1 1-3 2-4 2 0 0 0 0-1 0l0-17c3-1 5-1 7-2 4-1 7-3 10-5 3-2 5-6 6-9 2-3 2-6 2-9 0-3 0-7-2-10-1-3-3-6-6-8-3-3-6-5-10-6-2-1-4-1-7-1l0-6-9 0 0 6c-2 0-5 0-7 1z m7 66c0 0 0 0-1 0-1 0-2-1-4-2-1-1-2-2-2-3-1-1-1-2-1-3 0-1 0-2 1-3 0-2 1-3 2-3 2-1 3-2 4-2 1 0 1 0 1 0z m9-51c1 0 1 0 1 0 1 1 3 1 4 2 1 1 2 2 3 4 0 1 1 2 1 3 0 1-1 2-1 3-1 1-2 2-3 3-1 1-3 1-4 2 0 0 0 0-1 0z m-8-81c0 15-12 28-27 28-16 0-28-13-28-28 0-15 12-28 28-28 15 0 27 13 27 28z m-72-47c5 7 12 12 20 16 15-12 35-12 49 0 26-12 39-41 32-68-20-8-41-13-63-12-2 27-16 50-38 64z m-106 47c0 15-12 28-27 28-15 0-27-13-27-28 0-15 12-28 27-28 15 0 27 13 27 28z m-20-111c1 27 16 50 38 64-5 7-13 12-20 16-15-12-35-12-50 0-25-12-38-41-31-68 20-8 41-13 63-12z m138 141c7 6 12 15 13 24-6 2-12 5-18 9-8 6-15 14-21 23-5 7-7 15-7 23 0 8 2 16 7 24 6 8 13 16 21 22 10 6 20 11 31 14 12 4 25 5 38 5 13 0 26-1 38-5 11-3 21-8 30-14 9-6 16-14 22-22 4-8 6-16 6-24 0-8-2-16-6-23-6-9-13-17-22-23-9-6-19-11-30-13-12-4-25-6-38-6-13 0-25 2-37 5-6-10-16-16-27-19z m153 79c0 7-2 14-5 20-5 8-12 15-20 21-9 5-18 9-28 12-12 3-24 5-36 5-13 0-25-2-37-5-10-3-19-7-27-12-9-6-15-13-20-21-4-6-6-13-6-20 0-7 2-14 6-19 5-9 11-16 20-21 8-6 17-10 27-13 12-3 24-5 37-5 12 0 24 2 36 5 10 3 19 7 28 13 8 5 15 12 20 21 3 5 5 12 5 19z"/>
<glyph glyph-name="issueicons-regular-23" unicode="&#120;" d="M72 441l0-267 368 0 0 267z m324-25l-140-128-140 128z m-300-218l0 202 160-146 160 146 0-202z"/>
<glyph glyph-name="issueicons-regular-24" unicode="&#121;" d="M427 453l-273 0c-8 0-14-7-14-14l0-41 14 0 0 40 272 0 0-213-189 0 0-14 190 0c7 0 13 6 13 13l0 215c0 7-6 14-13 14z m-229-157l-20 1-21-39-3 20 3 6c4 7-1 13-4 13l-12 0c-4 0-8-6-5-13l3-6-2-20-22 39-21-1c-12 0-21-7-22-18l0-68c19-19 47-27 76-27 30 0 54 7 73 27l1 68c-2 11-13 18-24 18z m-78 49c0 29 8 34 26 34 19 0 28-5 28-34 0-20-11-38-28-38-16 0-26 14-26 38z"/>
<glyph glyph-name="issueicons-regular-25" unicode="&#122;" d="M175 371c9 0 17 8 17 17 0 66-54 120-119 120-5 0-9-2-13-5-3-3-5-7-5-13 0-65 54-119 120-119z m98-55c5 0 9 1 12 5 23 23 35 53 35 85 0 31-13 61-36 84-6 7-17 7-24 0-23-23-35-53-35-84 0-32 13-63 35-85 5-4 9-5 13-5z m-31-14c-46 47-123 47-169 0-7-7-7-17 0-24 23-23 53-35 84-35 31 0 62 12 85 35 7 7 7 18 0 24z m145-83c47 46 47 123 0 169-7 7-17 7-25 0-46-46-46-123 0-169 4-4 8-5 13-5 4 0 8 2 12 5z m-127 17c-33 0-63-13-85-35-7-7-7-18 0-24 23-23 53-35 85-35 32 0 62 13 84 35 7 6 7 17 0 24-22 22-52 35-84 35z m192-101l-49 48c-7 7-17 7-24 0-7-7-7-17 0-23l49-49c3-3 7-5 11-5 5 0 9 2 13 5 6 7 6 18 0 24z"/>
<glyph glyph-name="issueicons-regular-26" unicode="&#65;" d="M423 197c2 3 3 7 2 10-2 4-6 8-9 7-27-10-54-13-70-18-1 0-2-1-3-3-1-13-29-18-97-1l11-1 23-3c9 0 46-2 53 6 2 2 5 6 5 10-1 13-8 15-38 19-2 0-32 5-33 5-18 5-24 7-37 10-15 3-20 3-28 3-11-1-34-4-42-7-34-11-23-9-55-26-3-2-7-4-10-6-4-1-6-5-5-9l6-61c0-3 2-7 5-8 3-2 7-2 10 0l20 14c3 2 6 4 9 6 24 15 31 19 39 19 9 0 82-25 104-31 21-6 25-6 35-1 4 2 8 4 15 8 16 8 70 38 90 58z m-39 190l-25 0-27-49-3 24 4 9c4 9-2 16-6 16l-15 0c-4 0-10-7-6-16l4-9-3-24-27 49-27 0c-15 0-27-9-28-25l0-85c24-24 60-34 97-34 37 0 68 9 92 34l0 85c-1 15-15 25-30 25z m-98 62c0 36 10 43 33 43 24 0 34-7 34-43 0-26-13-50-34-50-21 0-33 18-33 50z"/>
<glyph glyph-name="issueicons-regular-27" unicode="&#66;" d="M346 218c67 67 67 176 0 243-33 33-76 51-122 51-46 0-90-18-122-51-33-32-51-75-51-122 0-46 18-89 51-121 32-33 76-51 122-51 46 0 89 18 122 51z m-235 8c-31 31-48 70-48 113 0 43 17 83 48 114 30 30 70 47 113 47 43 0 83-17 113-47 62-63 62-164 0-227-30-30-70-47-113-47-43 0-83 17-113 47z m101 93l96 96 0-39c0-4 3-6 6-6 4 0 7 2 7 6l0 54c0 1 0 2-1 2-1 2-2 3-4 4 0 0-1 0-2 0l-54 0c-3 0-6-3-6-6 0-3 3-6 6-6l40 0-101-100 9-46-52-52c-2-2-2-6 0-8 1-2 3-2 4-2 2 0 3 0 5 2l56 56z"/>
<glyph glyph-name="issueicons-regular-28" unicode="&#67;" d="M329 500l-146 0c-14 0-25-13-25-28l0-324c0-16 11-29 25-29l146 0c13 0 25 13 25 29l0 324c0 15-12 28-25 28z m-48-19c0-1-1-2-2-2l-33 0c-1 0-2 1-2 2 0 1 1 2 2 2l33 0c1 0 2-1 2-2z m-48 4c2 0 4-1 4-3 0-2-2-4-4-4-2 0-3 2-3 4 0 2 1 3 3 3z m21-355c-7 0-14 6-14 14 0 8 7 15 14 15 9 0 15-7 15-15 0-8-6-14-15-14z m88 43c0-3-2-5-5-5l-162 0c-3 0-5 2-5 5l0 286c0 3 2 4 5 4l162 0c3 0 5-1 5-4z"/>
<glyph glyph-name="issueicons-regular-29" unicode="&#68;" d="M372 465l-237 0c-21 0-39-17-39-39l0-235c0-22 18-39 39-39l237 0c21 0 39 17 39 39l0 235c0 22-18 39-39 39z m-10-253c-6-6-13-13-22-17-4-3-8-4-13-4-17 0-33 4-48 10-56 21-93 61-115 115-8 21-12 44-13 63 1 4 1 8 1 12 0 5 3 9 6 13 6 8 14 14 22 19 5 4 11 5 17 2 5-2 9-5 13-8 2-1 4-4 5-6 2-8 5-16 6-24 2-7 3-13 4-20 1-4 0-8-2-11-2-2-4-4-5-6-4-3-8-6-11-10-4-3-4-6-3-10 6-15 15-28 25-40 13-15 28-28 44-39 6-3 8-3 13 1 4 4 8 8 13 11 3 3 6 4 10 5 1 0 2 0 3-1 13-3 26-7 39-13 8-3 13-9 16-18 3-9 2-16-5-24z"/>
<glyph glyph-name="issueicons-regular-30" unicode="&#69;" d="M386 239c-1 0-1 0-2 0-18-5-22 13-22 13l6 1c1 0 1 0 1-1 1 0 1 0 1 0 1 0 2 0 2 0l1 0c0 0 1 0 1 1l4 6c4 1 4 3 4 4 0 0 0 0 0 0l1 3c1 0 1 1 0 1l-1 1-9 7c0 0 0 1 0 1l1 2c0 0 0 0 0 0l0 13c0 0 0 0 0 1l-25 5c0 0 0 0 0 0 0 0-1-1-1 0l0 0c0 0-1 0-1 0 0-1 0-1-1 0l-93 68-3 1-15 11-1 0-10 8c-8 7-71 52-71 52l-83 60c-1 1-1 2 0 3 1 1 1 4 1 5 0 1 0 1 0 1l1 0c0 1 0 1 0 2-2 2-4 0-5 0 0 0-1 0-1-1-1 0-4-2-4-2 0 0-1-1-1-1-5-2-5-6-5-8 0 0 0-1 1-1l4-3c0 0 0 0 0 0l2 0c0 0 0 0 0 0l72-55c0 0 0-1 0-1l-4-6c-3-4-2-10 2-12l82-61c2-2 5-2 6 1l1 1c0 1 1 1 2 0l18-13c0-1 1 0 2 0l2 4c1 0 1 0 2 0l1-1c0 0 0-1 0-1l-46-62c-1-2 0-4 1-5l13-10c2-1 3 0 4 1l20 28c1 2 4 2 5 1l20-16c9-12 1-20 1-20-1-3 0-6 0-6 4-6-3-14-3-14-2-8 19-8 19-8 20 1 15 25 15 25-3 11 5 21 5 21 5 6 20-8 20-8-4-14 6-24 6-24 23-26 41-63 41-63 8-31 31-65 43-80 3-5 9-5 12 0l28 37c3 5 3 10-1 15z m-126 61c-6 4-9 11-6 15 3 3 9 3 15 1 1 0 1-1 1-2 1-2 1-3 0-6 0-1-3-6-7-6 0 0 0-1 0-2 0 0 1 0 2 0 0 0 6-1 8 4 0 0 0 1 1 2 1 0 1 1 3 0 1 0 2 0 2-2 1-2 0-3-1-6-5-3-12-3-18 2z"/>
<glyph glyph-name="issueicons-regular-31" unicode="&#70;" d="M260 399c0 0 0 0 0 0 15-26 43-43 74-44 0 0 0 0 0 0-15 25-43 43-74 44z m80-47c15-24 42-40 72-41-15 24-42 40-72 41z m-156 83c4-11 6-22 6-34 0-13-2-25-7-36 14 18 35 32 58 35-23 4-43 17-57 35z m-81-46c4-11 7-23 7-35 0-14-4-26-9-38 14 19 35 33 60 37-24 4-44 17-58 36z m70-37c-30-1-57-17-72-41 30 1 57 17 72 41z m143-89c-24 6-45 21-58 42 7-13 10-27 10-43 0-12-2-24-6-35 12 18 32 32 54 36z m36 90c25-4 46-18 60-37-5 11-8 24-8 38 0 12 2 24 7 35-14-19-35-32-59-36z m-91-46c0 0 0 0-1 0 13-22 37-39 64-42 3 0 6 0 9 0-16 24-42 41-72 42z m75 45c-7-13-10-27-10-42 0-16 3-30 10-42 7 12 11 26 11 42 0 15-4 29-11 42z m-4-91c-3 0-5 1-8 1-27-4-51-20-64-42 30 1 57 17 72 41z m68 49c-23 3-44 16-57 34 4-11 6-22 6-34 0-13-2-24-6-35 13 18 34 31 57 35z m-62 45c0 0 0 0 0 0 33 0 61 18 76 44 0 0 0 0 0 0-33 0-61-18-76-44z m91-2c0-12-3-24-7-35 4 6 10 11 15 15-2 14-5 26-9 39 1-6 1-13 1-19z m-322 1c0 15-4 29-10 41-7-13-10-26-10-42 0-15 3-28 9-41 7 13 11 27 11 42z m165 47c23-4 43-16 57-34-4 10-6 22-6 34 0 12 2 24 7 35-14-18-35-31-58-35z m-10 1c29 2 54 18 69 41-29-2-54-18-69-41z m-90-128c-5 11-8 23-8 36 0 12 3 24 8 35-14-18-35-31-59-35 24-4 45-18 59-36z m94-12c0 14-3 28-9 40-7-12-10-26-10-40 0-14 3-28 10-39 6 11 9 25 9 39z m-85 181c15-24 41-40 70-41-15 23-41 39-70 41z m72-223c-13 22-37 38-64 42-3 0-5-1-8-1 16-23 42-40 72-41z m-177 110c-1-5-1-11-1-16 5-2 12-3 18-3-5 7-11 14-17 19z m115 23c27-4 50-20 64-43 0 0 0 1 0 1-7 13-10 27-10 42 0 16 3 30 10 43 0 0 0 0 0 0-14-22-37-38-64-43z m226-41c6 13 9 26 9 41 0 15-3 29-10 42-6-13-9-26-9-41 0-15 3-29 10-42z m4-1c6 0 12 1 18 3-1 5-1 11-2 16-6-5-12-12-16-19z m18-3c0 0 0 0 0 0 0 1 0 2 0 3-3 0-6-1-8-1 2-1 5-1 8-2z m-364 3c0-1 0-2 0-3 2 1 5 1 7 2-2 0-5 1-7 1z m341-7c-6-13-9-26-9-41 0-15 3-30 9-42 1 1 2 2 2 4 5 11 8 24 8 37 0 16-3 29-10 42z m-74-50c5-11 7-24 7-36 0-16-4-32-11-45 0 0 0 0 0 0 30 0 57 15 73 38 1 2 2 4 3 6-29 1-56 15-72 37z m-245 50c-7-13-10-26-10-42 0-11 2-21 5-31 2-3 3-6 5-9 6 12 10 26 10 41 0 15-4 28-10 41z m154-77c-4 11-6 23-6 35 0 16 3 30 10 43-13-21-34-36-58-42 22-4 42-18 54-36z m85 131c7 13 10 27 10 41 0 16-4 30-11 42-6-12-9-26-9-40 0-15 3-30 10-43z m-159-90c7 13 10 26 10 42 0 15-3 29-10 41-6-12-10-26-10-41 0-16 4-29 10-42z m81 128c0 0 0 0 0 0 7-13 10-27 10-43 0-15-3-29-10-42 0 0 0-1 0-1 14 23 37 39 64 43-27 5-50 21-64 43z m-1 3z m-4-92c0 0-1 0-1 0-30-1-56-18-71-42 3 0 5 0 8 0 27 3 51 20 64 42z m77-34c-4 11-7 23-7 37 0 11 2 22 6 33-14-18-34-31-57-35 24-4 44-17 58-35z m-64 80c0 15-3 28-9 40-7-12-10-25-10-40 0-14 3-27 10-40 6 13 9 26 9 40z m-81-12c3-10 5-20 5-31 0-14-3-27-8-39 14 19 35 33 59 37-23 4-42 16-56 33z m-5 11c15-24 42-41 72-42 0 0 0 0 0 0-15 24-42 41-72 42z m152 0c-30-2-56-18-71-42 0 0 0 0 0 0 30 1 56 18 71 42z m-153 3c32 1 59 18 74 44 0 0 0 0 0 0-31-1-59-19-74-44z m234-135c-14 22-37 38-64 42-3 0-6-1-9-1 15-24 42-40 73-41z m-62 244c-5-6-9-12-14-19 24 0 46-9 63-24-13 17-30 32-49 43z m-15-204c-7-12-10-27-10-41 0-16 3-31 10-43 7 12 11 27 11 42 0 15-4 29-11 42z m-158 188c12 20 32 35 56 41-23-3-45-10-65-21 3-7 6-14 9-20z m100 41c24-6 44-21 56-41 4 7 7 13 9 20-20 11-42 18-65 21z m-24-361c0 1 0 1 1 2-7 12-11 27-11 43 0 13 3 25 7 35-16-22-42-36-70-38 15-25 42-41 73-42z m-77 49c7 12 10 26 10 42 0 14-3 28-9 41-7-13-11-27-11-42 0-15 3-29 10-41z m-10 290c-1-1-2-2-3-2 2-2 4-5 6-7-1 3-2 6-3 9z m166-297c-29 2-55 16-71 38 4-10 7-22 7-35 0-16-4-31-11-43 1-1 1-1 1-2 31 1 58 17 74 42z m-67 3c0 15-3 29-9 41-7-12-10-26-10-41 0-15 3-29 10-41 6 12 9 26 9 41z m-90 1c-8 13-12 28-12 44 0 13 3 26 9 38-17-23-43-38-74-38 2-4 5-8 7-12 16-20 41-33 69-33 0 0 0 1 1 1z m167-12c1-4 2-8 3-12 2 1 3 2 5 3-3 3-6 6-8 9z m-171 1c-3-4-6-7-10-10 2-1 3-2 5-3 1 5 3 9 5 13z m1 7c-20 0-40 8-55 20 12-14 26-26 42-36 5 5 9 10 13 16z m-58 252c16 15 37 23 61 23-4 7-9 13-14 18-18-10-34-24-47-41z m281-230c-15-13-35-22-56-22 4-6 8-11 13-16 16 10 31 23 43 38z m-54 264c2 3 5 6 7 9-1 1-2 1-4 2-1-4-2-7-3-11z m-169-195c-3 0-6 1-9 1-27-4-50-20-64-42 31 1 58 17 73 41z m62-133c-24 6-45 21-57 42-4-7-6-14-9-22 20-10 42-17 66-20z m101 42c-13-21-33-36-57-42 23 3 45 10 65 20-2 8-5 15-8 22z m75 58c-5 11-7 22-7 35 0 12 3 24 7 35-13-17-32-30-54-35 21-5 40-18 54-35z m-88-9c0 11 2 23 6 34-14-18-34-30-57-34 23-4 43-17 57-35-4 11-6 22-6 35z m-140-36c14 19 35 32 58 36-23 4-44 17-58 35 5-11 7-23 7-35 0-13-2-25-7-36z m-84 125c0 0 0 0 0 0 14-23 37-40 65-43 3 0 7 0 11 0-16 26-44 43-76 43z m154-91c-31-1-58-18-74-44 32 1 60 18 74 44z m-152 185c28-1 52-14 68-34-3 10-5 20-5 31 0 16 4 31 11 44-31-1-58-17-74-41z m-2-3c0 0 0 0 0 0 15-26 43-44 76-44 0 0 0 0 0 0-15 26-43 44-76 44z m-23-66c6-4 11-9 15-15-4 11-7 23-7 35 0 6 0 11 1 16-4-12-7-23-9-36z m8-71c0 14 3 27 8 38-4-6-10-12-16-16 2-13 5-24 9-35-1 4-1 9-1 13z m10 46c-6 0-13-1-19-3 0-6 0-12 1-18 7 6 13 13 18 21z m62-45c-21 5-40 18-54 35 5-11 8-23 8-35 0-13-3-24-7-35 13 18 32 30 53 35z m193 136c0-11-2-22-6-32 16 21 41 34 69 35-16 24-43 41-75 41 8-13 12-28 12-44z m-90 90c0-1 0-2-1-2 7-13 10-27 10-43 0-15-3-29-10-42 0 0 1 0 1 0 15 25 43 42 74 43-15 26-43 43-74 44z m-12-45c0-14 3-27 10-40 6 13 9 26 9 40 0 15-3 28-9 40-7-12-10-25-10-40z m-68 1c32-1 60-17 75-43 0 0 1 0 1 0-7 13-10 27-10 42 0 16 3 30 10 43-1 0-1 1-1 2-32-1-59-18-75-44z m235-137c0 0 0 0 0 0-32 0-60-17-76-43 4 0 8 0 11 0 28 3 51 20 65 43z m-80-135c-15 26-43 44-74 44 14-26 42-43 74-44z m-157 185c7 13 10 27 10 43 0 15-3 29-9 41-8-12-12-27-12-43 0-14 4-29 11-41z m242-50c5-8 11-16 18-22 1 6 1 13 2 19-7 2-14 3-20 3z m18-25c-6 5-12 11-16 18 5-12 8-25 8-39 0-5 0-11-1-16 4 12 7 24 9 37z"/>
<glyph glyph-name="issueicons-regular-32" unicode="&#71;" d="M259 292c0 20-16 36-35 36-20 0-36-16-36-36 0-19 16-35 36-35 19 0 35 16 35 35z m-68-40c-33-16-50-52-40-88 46-20 99-20 145 0 10 36-7 72-40 88-19-15-46-15-65 0z m152 163c-1 0-3 1-5 1-1 0-3 1-4 2-1 1-2 2-3 3 0 1-1 2-1 3 0 1 1 2 1 4 1 1 2 2 3 3 1 0 3 1 4 1 2 1 4 1 6 1 1 0 3 0 5-1 1 0 2-1 4-1 0-1 1-1 1-2l16 7c-2 2-3 4-5 6-4 2-7 4-10 5-2 2-5 2-7 3l0 4-9 0 0-4c-3-1-5-1-7-3-4-1-7-3-9-5-4-2-6-5-7-8-2-3-2-6-2-10 0-3 0-6 2-9 1-4 3-6 7-9 2-3 5-4 9-5 3-2 7-2 11-2 2 0 4-1 6-1 1-1 2-1 4-2 1-1 2-2 2-3 1-1 1-2 1-3 0-1 0-2-1-3 0-1-1-2-2-4-2 0-3-1-4-1-2-1-4-1-5-1-2 0-4 0-6 1-1 0-3 1-4 1 0 1-1 2-1 2l-16-7c1-2 4-4 6-6 2-3 5-4 9-6 2 0 4-1 7-1l0-5 9 0 0 5c2 0 5 1 7 1 3 2 6 3 10 6 2 2 4 5 6 8 1 3 2 7 2 10 0 3-1 6-2 9-2 3-4 7-6 9-4 2-7 4-10 5-4 2-8 2-11 2 0 0-1 0-1 0m-3-115c0 15-12 28-28 28-15 0-27-13-27-28 0-15 12-28 27-28 16 0 28 13 28 28z m-72-47c5 7 12 12 20 16 14-12 35-12 49 0 25-12 39-41 32-68-20-8-42-13-63-12-2 27-16 50-38 64z m-106 47c0 15-12 28-27 28-16 0-28-13-28-28 0-15 12-28 28-28 15 0 27 13 27 28z m-21-111c2 27 16 50 39 64-6 7-13 12-20 16-15-12-36-12-50 0-26-12-39-41-32-68 20-8 42-13 63-12z m139 141c7 6 11 15 13 24-6 2-12 5-18 9-8 6-16 14-22 23-4 7-6 15-6 23 0 8 2 16 6 24 6 8 14 16 22 22 9 6 19 11 30 14 12 4 25 5 39 5 12 0 25-1 38-5 10-3 20-8 30-14 8-6 16-14 21-22 5-8 7-16 7-24 0-8-2-16-7-23-5-9-13-17-21-23-10-6-20-11-30-13-13-4-26-6-38-6-13 0-26 2-38 5-5-10-15-16-26-19z m153 79c0 7-2 14-5 20-6 8-12 15-20 21-9 5-18 9-28 12-12 3-24 5-36 5-13 0-25-2-37-5-10-3-19-7-28-12-8-6-14-13-19-21-4-6-6-13-6-20 0-7 2-14 6-19 5-9 11-16 19-21 9-6 18-10 28-13 12-3 24-5 37-5 12 0 24 2 36 5 10 3 19 7 28 13 8 5 14 12 20 21 3 5 5 12 5 19z"/>
<glyph glyph-name="issueicons-regular-33" unicode="&#72;" d="M461 426c0 11-9 19-19 19l-372 0c-10 0-19-8-19-19l0-238c0-10 9-19 19-19l372 0c10 0 19 9 19 19z m-25 5l-180-150-180 150z m10-247l-380 0 0 236 130-108c32-27 55-46 55-46 3-2 7-2 10 0l185 154z"/>
<glyph glyph-name="issueicons-regular-34" unicode="&#73;" d="M104 444c-2-2 2-6 29-33 17-17 31-32 31-33 0 0-2-1-5-1-4-1-4-1-4-8 0-7 1-8 34-41 21-21 36-35 37-34 1 0 4-1 7-4l5-5-18-18c-16-15-20-20-25-30-3-8-6-14-6-15 0-2-2-7-4-12-3-7-5-9-12-12-11-5-53-46-55-54 0-2-3-7-6-11-12-13-12-14 1-23 5-4 13-11 19-15 8-7 10-8 11-6 1 1 10 19 20 38 10 20 20 38 21 40 2 2 7 6 12 8 8 3 10 6 7 10-3 4-5 13-3 20 2 8 9 16 12 14 1-1 5-2 8-2 4 0 6 1 9 6 2 4 5 9 5 14 1 3 4 9 6 13 4 6 14 16 17 16 2 0 13-13 17-20 2-4 4-10 5-13 0-5 0-5 1-1 2 5 5 5 10-1 4-4 5-12 2-12-1 0-4 2-6 4-6 5-7 4-2-2 4-4 13-6 16-2 2 3 7-2 11-10 4-8 3-15-2-24-2-4-2-4 2-7 2-2 5-4 6-4 7 0 14-12 32-47 10-19 19-37 20-38 1-2 4 0 15 9 21 17 26 21 26 23 0 0-4 5-8 10-4 5-8 11-8 13 0 6-45 50-53 53-9 2-11 5-17 23-11 26-11 27-31 46l-19 19 5 5c3 3 6 4 7 4 2 0 14 11 37 34 33 32 34 34 34 41 0 7 0 7-4 8-3 0-5 1-5 2 0 0 12 13 28 29 35 34 35 33 32 36-3 4-16 1-17-3-1-6-12-19-51-58-29-29-41-39-47-41-4-3-8-6-8-7 0-4-8-15-19-24l-10-9-6 5c-14 13-17 15-19 20-2 3-3 6-3 7 0 2-4 5-9 7-6 3-18 13-45 41-38 37-52 53-53 59-1 2-2 3-5 3-3 1-5 1-6 2-2 2-4 1-6-2z m127-211c1-3-4-13-7-13-1 0-3 0-3 0-1 0-2 1-2 2-1 1 0 2 1 1 2-2 2-1 0 1-1 2-1 3 0 6 5 6 10 8 11 3z"/>
</font>
</defs>
</svg>
