<?xml version="1.0" encoding="UTF-8" standalone="no"?>
<!DOCTYPE svg  PUBLIC '-//W3C//DTD SVG 1.1//EN'  'http://www.w3.org/Graphics/SVG/1.1/DTD/svg11.dtd'>
<svg xmlns="http://www.w3.org/2000/svg">
<defs>
<font id="Verlag-Light" horiz-adv-x="842">
<font-face underline-position="-50" font-weight="300" descent="-200" panose-1="0 0 0 0 0 0 0 0 0 0" units-per-em="1000" unicode-range="U+0020-2212" bbox="-73 -237 1006 956" x-height="418" underline-thickness="50" font-family="Verlag" ascent="800" cap-height="733"/>
<missing-glyph horiz-adv-x="1000"/>
<glyph glyph-name=".notdef" horiz-adv-x="1000"/>
<glyph glyph-name=".null" horiz-adv-x="0"/>
<glyph glyph-name="nonmarkingreturn" horiz-adv-x="333"/>
<glyph glyph-name="space" horiz-adv-x="214" unicode=" "/>
<glyph glyph-name="exclam" horiz-adv-x="203" unicode="!" d="M146 36q0 -19 -13 -31.5t-31 -12.5t-31 12.5t-13 31.5q0 18 13 30.5t31 12.5t31 -12.5t13 -30.5zM132 733l-9 -551h-43l-8 551h60z"/>
<glyph glyph-name="quotedbl" horiz-adv-x="356" unicode='&quot;' d="M328 632l-117 -168l-32 20l93 183zM195 643l-116 -168l-31 20l92 182z"/>
<glyph glyph-name="numbersign" horiz-adv-x="563" unicode="#" d="M371 372h-141l-38 -168h142zM542 417l-9 -45h-111l-38 -168h112l-10 -45h-112l-35 -159h-51l36 159h-142l-35 -159h-51l36 159h-111l10 45h111l37 168h-111l10 45h111l36 160h51l-36 -160h141l36 160h50l-35 -160h110z"/>
<glyph glyph-name="dollar" horiz-adv-x="429" unicode="$" d="M111 436q0 -61 89 -104l16 205q-52 -5 -78.5 -33t-26.5 -68zM329 149q0 38 -23.5 63t-67.5 46l-17 -219q47 5 77.5 33.5t30.5 76.5zM225 650l44 -4l-5 -62q57 -7 109 -41l-25 -44q-38 28 -88 37l-18 -223q74 -34 107.5 -68.5t33.5 -91.5q0 -68 -47.5 -113t-118.5 -49 l-5 -66l-44 3l5 64q-70 8 -144 56l28 45q57 -43 120 -52l19 235q-69 30 -103.5 65t-34.5 91q0 62 45 105.5t117 47.5z"/>
<glyph glyph-name="percent" horiz-adv-x="642" unicode="%" d="M550 137q0 45 -20 75t-57 30q-36 0 -56 -30t-20 -75q0 -44 20 -74t56 -30q37 0 57 30t20 74zM245 440q0 45 -20 75t-56 30t-56.5 -30t-20.5 -75q0 -44 20.5 -74t56.5 -30t56 30t20 74zM595 137q0 -61 -33 -103.5t-89 -42.5q-57 0 -89 42t-32 104t32.5 104t89.5 42 q56 0 88.5 -42t32.5 -104zM570 566l-466 -582l-32 27l466 582zM291 440q0 -61 -33 -103.5t-90 -42.5q-56 0 -88.5 42.5t-32.5 103.5q0 62 33 104t89 42q57 0 89.5 -42t32.5 -104z"/>
<glyph glyph-name="ampersand" horiz-adv-x="595" unicode="&amp;" d="M375 109q-111 106 -160 170q-110 -42 -110 -132q0 -48 34 -78t88 -30q69 0 148 70zM367 460q0 33 -22.5 57t-58.5 24q-35 0 -61.5 -29t-26.5 -71q0 -43 42 -109q70 28 98.5 58.5t28.5 69.5zM519 280l39 -28q-72 -96 -112 -139q70 -62 104 -90l-33 -38q-53 43 -107 93 q-93 -86 -185 -86q-77 0 -126 42t-49 114q0 108 140 168q-45 70 -45 123q0 61 43 103.5t99 42.5q60 0 95.5 -37t35.5 -84q0 -107 -151 -167q49 -65 144 -152q41 42 108 135z"/>
<glyph glyph-name="quotesingle" horiz-adv-x="223" unicode="&apos;" d="M195 643l-116 -168l-31 20l92 182z"/>
<glyph glyph-name="parenleft" horiz-adv-x="335" unicode="(" d="M340 -186l-24 -42q-128 78 -196.5 209t-68.5 277t68.5 277t196.5 210l25 -41q-113 -69 -175.5 -189t-62.5 -257t62.5 -256t174.5 -188z"/>
<glyph glyph-name="parenright" horiz-adv-x="335" unicode=")" d="M284 258q0 -146 -68.5 -277t-196.5 -209l-25 42q113 69 175.5 188t62.5 256t-62.5 257t-175.5 189l25 41q128 -79 196.5 -210t68.5 -277z"/>
<glyph glyph-name="asterisk" horiz-adv-x="369" unicode="*" d="M336 614l-121 -37l77 -98l-35 -25l-72 102l-72 -102l-35 25l76 98l-121 37l14 41l119 -42l-4 124h45l-4 -124l120 42z"/>
<glyph glyph-name="plus" horiz-adv-x="460" unicode="+" d="M400 256h-144v-151h-52v151h-144v49h144v151h52v-151h144v-49z"/>
<glyph glyph-name="comma" horiz-adv-x="182" unicode="," d="M138 23q0 -37 -25.5 -75.5t-63.5 -61.5l-11 13q47 43 57 94q-21 2 -34 15t-13 30t12.5 29t29.5 12q21 0 34.5 -15.5t13.5 -40.5z"/>
<glyph glyph-name="hyphen" horiz-adv-x="339" unicode="-" d="M289 218h-239v49h239v-49z"/>
<glyph glyph-name="period" horiz-adv-x="182" unicode="." d="M48 36q0 18 12.5 30.5t30.5 12.5q19 0 31.5 -12.5t12.5 -30.5q0 -19 -12.5 -31.5t-31.5 -12.5q-18 0 -30.5 12.5t-12.5 31.5z"/>
<glyph glyph-name="slash" horiz-adv-x="319" unicode="/" d="M318 733l-238 -949h-52l239 949h51z"/>
<glyph glyph-name="zero" horiz-adv-x="522" unicode="0" d="M422 288q0 108 -41.5 179t-118.5 71t-119 -71t-42 -179q0 -107 42 -177.5t119 -70.5t118.5 70.5t41.5 177.5zM480 288q0 -127 -59 -212t-160 -85q-102 0 -159.5 85t-57.5 212t58.5 212.5t160.5 85.5q101 0 159 -85t58 -213z"/>
<glyph glyph-name="one" horiz-adv-x="333" unicode="1" d="M213 0h-55v516l-102 -36l-17 48l165 61h9v-589z"/>
<glyph glyph-name="two" horiz-adv-x="436" unicode="2" d="M383 0h-364l-4 9q158 166 213 234q45 54 66.5 93.5t21.5 81.5q0 53 -34 85t-92 32q-69 0 -132 -42l-16 46q72 47 147 47q84 0 134 -45.5t50 -117.5q0 -47 -24 -93.5t-74 -107.5q-73 -85 -157 -172h265v-50z"/>
<glyph glyph-name="three" horiz-adv-x="422" unicode="3" d="M387 567l-210 -240q6 1 15 1q83 -6 132.5 -50.5t49.5 -115.5q0 -75 -54 -123.5t-141 -48.5q-69 0 -147 27l16 47q75 -25 128 -25q67 0 105 34t38 90q0 57 -43 89.5t-117 32.5q-36 0 -69 -6l-6 9l209 238h-259v50h348z"/>
<glyph glyph-name="four" horiz-adv-x="476" unicode="4" d="M306 222v246l-200 -246h200zM454 173h-96v-174h-52v174h-288v14l325 400h15v-365h96v-49z"/>
<glyph glyph-name="five" horiz-adv-x="458" unicode="5" d="M404 176q0 -80 -54 -132.5t-143 -52.5q-69 0 -149 29l16 46q66 -26 130 -26q68 0 106.5 37.5t38.5 97.5q0 56 -39 90t-110 34q-61 0 -111 -13l-7 8v283h297v-50h-244v-183q28 5 66 5q97 0 150 -48t53 -125z"/>
<glyph glyph-name="six" horiz-adv-x="477" unicode="6" d="M374 179q0 63 -37 101t-96 38q-62 0 -99.5 -38t-37.5 -97q0 -62 38 -103t96 -41q59 0 97.5 40t38.5 100zM428 186q0 -80 -53 -137.5t-137 -57.5t-137 57.5t-53 147.5q0 112 76 215.5t238 185.5l24 -43q-208 -103 -264 -251q48 59 131 59q74 0 124.5 -50t50.5 -126z"/>
<glyph glyph-name="seven" horiz-adv-x="407" unicode="7" d="M388 577l-257 -577h-54l237 527h-292v50h366z"/>
<glyph glyph-name="eight" horiz-adv-x="464" unicode="8" d="M353 155q0 50 -35 83.5t-87 33.5t-86 -33.5t-34 -83.5q0 -51 34 -84.5t86 -33.5q53 0 87.5 33.5t34.5 84.5zM343 429q0 47 -31 79t-81 32q-49 0 -80 -32t-31 -79t31 -79.5t80 -32.5q50 0 81 32.5t31 79.5zM408 154q0 -69 -50 -116t-127 -47t-126 47t-49 116q0 47 27 85 t72 56q-88 42 -88 135q0 67 46.5 111.5t117.5 44.5q73 0 119 -44.5t46 -111.5q0 -93 -88 -135q46 -18 73 -56t27 -85z"/>
<glyph glyph-name="nine" horiz-adv-x="470" unicode="9" d="M369 398q0 62 -37 101.5t-95 39.5q-59 0 -96.5 -39t-37.5 -99q0 -63 36 -100t96 -37q61 0 97.5 37.5t36.5 96.5zM425 382q0 -112 -75.5 -216t-237.5 -186l-24 43q202 100 262 249q-46 -54 -122 -54t-128 49.5t-52 126.5q0 81 54 136.5t136 55.5q85 0 136 -57t51 -147z "/>
<glyph glyph-name="colon" horiz-adv-x="182" unicode=":" d="M47 323q0 18 13 31t31 13t31 -13t13 -31t-13 -30.5t-31 -12.5t-31 12.5t-13 30.5zM48 36q0 18 12.5 30.5t30.5 12.5q19 0 31.5 -12.5t12.5 -30.5q0 -19 -12.5 -31.5t-31.5 -12.5q-18 0 -30.5 12.5t-12.5 31.5z"/>
<glyph glyph-name="semicolon" horiz-adv-x="182" unicode=";" d="M47 323q0 18 13 31t31 13t31 -13t13 -31t-13 -30.5t-31 -12.5t-31 12.5t-13 30.5zM138 23q0 -37 -25.5 -75.5t-63.5 -61.5l-11 13q47 43 57 94q-21 2 -34 15t-13 30t12.5 29t29.5 12q21 0 34.5 -15.5t13.5 -40.5z"/>
<glyph glyph-name="less" horiz-adv-x="381" unicode="&lt;" d="M342 73l-34 -35l-275 243l275 244l34 -37l-234 -208z"/>
<glyph glyph-name="equal" horiz-adv-x="403" unicode="=" d="M343 185h-283v49h283v-49zM343 326h-283v50h283v-50z"/>
<glyph glyph-name="greater" horiz-adv-x="381" unicode="&gt;" d="M348 282l-275 -244l-34 37l234 208l-234 207l34 35z"/>
<glyph glyph-name="question" horiz-adv-x="384" unicode="?" d="M185 36q0 -19 -13 -31.5t-31 -12.5t-31 12.5t-13 31.5q0 18 13 30.5t31 12.5t31 -12.5t13 -30.5zM359 574q0 -41 -20 -75.5t-48 -59t-56 -47t-48 -50.5t-20 -59v-21v-59h-52v67v24q0 35 19.5 65.5t46.5 53.5t54.5 45.5t47 51.5t19.5 62q0 53 -36 84.5t-102 31.5 q-59 0 -127 -34l-15 49q79 37 146 37q92 0 141.5 -46.5t49.5 -119.5z"/>
<glyph glyph-name="at" horiz-adv-x="684" unicode="@" d="M407 216v37q-32 22 -71 22q-25 0 -40.5 -11.5t-15.5 -32.5q0 -23 15 -36t41 -13q39 0 71 34zM635 313q0 -96 -57 -144q-32 -27 -71 -27q-59 0 -83 50q-44 -47 -97 -47q-40 0 -67 22.5t-27 62.5q0 35 26.5 57.5t69.5 22.5q40 0 78 -20v15q0 71 -73 71q-31 0 -68 -13l-8 38 q42 16 82 16q115 0 115 -114v-60q0 -32 15 -47t38 -15q28 0 44 15q38 33 38 114q0 90 -64 161.5t-184 71.5q-103 0 -174 -75t-71 -182q0 -111 73.5 -183.5t201.5 -72.5q57 0 124 23l11 -40q-80 -25 -137 -25q-145 0 -232.5 85.5t-87.5 212.5q0 124 85.5 211t206.5 87 q71 0 128.5 -24.5t92.5 -64t53.5 -86.5t18.5 -96z"/>
<glyph glyph-name="A" horiz-adv-x="696" unicode="A" d="M498 272l-151 359l-151 -359h302zM674 0h-60l-95 224h-344l-94 -224h-59l321 745h10z"/>
<glyph glyph-name="B" horiz-adv-x="565" unicode="B" d="M467 202q0 69 -59 111t-170 42q-64 0 -95 -2v-302q65 -9 121 -9q96 0 149.5 45t53.5 115zM450 548q0 66 -49.5 105t-145.5 39q-59 0 -112 -9v-281q30 -2 91 -2q107 0 161.5 41.5t54.5 106.5zM525 199q0 -86 -70.5 -146t-196.5 -60q-63 0 -171 12v723q93 12 164 12 q125 0 190.5 -53t65.5 -133q0 -133 -152 -174q84 -15 127 -63.5t43 -117.5z"/>
<glyph glyph-name="C" horiz-adv-x="740" unicode="C" d="M695 70q-120 -80 -253 -80q-163 0 -273.5 103.5t-110.5 271.5t111.5 274t272.5 106q138 0 255 -80l-25 -47q-114 75 -233 75q-137 0 -228.5 -90.5t-91.5 -236.5q0 -145 92.5 -234.5t230.5 -89.5q118 0 233 74z"/>
<glyph glyph-name="D" horiz-adv-x="740" unicode="D" d="M622 373q0 137 -94.5 227.5t-261.5 90.5q-77 0 -123 -8v-633q50 -8 128 -8q169 0 260 92.5t91 238.5zM682 373q0 -160 -109 -270t-304 -110q-92 0 -182 12v723q90 12 178 12q99 0 180 -30.5t131.5 -82.5t78 -117t27.5 -137z"/>
<glyph glyph-name="E" horiz-adv-x="563" unicode="E" d="M501 0h-414v733h414v-50h-358v-286h323v-50h-323v-296h358v-51z"/>
<glyph glyph-name="F" horiz-adv-x="543" unicode="F" d="M501 683h-358v-299h323v-50h-323v-334h-56v733h414v-50z"/>
<glyph glyph-name="G" horiz-adv-x="779" unicode="G" d="M447 349h265v-269q-114 -90 -266 -90q-101 0 -188.5 43.5t-143.5 131t-56 201.5q0 85 32.5 157.5t86 120.5t122 74.5t140.5 26.5q83 0 145.5 -22.5t125.5 -67.5l-30 -44q-114 83 -241 84q-137 0 -228.5 -92.5t-91.5 -236.5q0 -145 95.5 -235.5t233.5 -90.5q117 0 208 64 v193h-209v52z"/>
<glyph glyph-name="H" horiz-adv-x="707" unicode="H" d="M620 0h-56v348h-421v-348h-56v733h56v-335h421v335h56v-733z"/>
<glyph glyph-name="I" horiz-adv-x="238" unicode="I" d="M147 0h-56v733h56v-733z"/>
<glyph glyph-name="J" horiz-adv-x="465" unicode="J" d="M382 733v-515q0 -107 -53.5 -168.5t-148.5 -61.5q-93 0 -163 56l30 43q59 -47 134 -47q69 0 107 45t38 134v514h56z"/>
<glyph glyph-name="K" horiz-adv-x="593" unicode="K" d="M572 0h-74l-355 362v-362h-56v733h56v-341l343 341h72l-361 -356z"/>
<glyph glyph-name="L" horiz-adv-x="513" unicode="L" d="M501 0h-414v733h56v-682h358v-51z"/>
<glyph glyph-name="M" horiz-adv-x="847" unicode="M" d="M771 0h-57l-12 586l-274 -481h-9l-274 482l-12 -587h-57l25 742l13 2l312 -555l307 555l13 -2z"/>
<glyph glyph-name="N" horiz-adv-x="727" unicode="N" d="M640 -9l-10 -2l-488 622v-611h-55v741l13 3l484 -615v604h56v-742z"/>
<glyph glyph-name="O" d="M723 366q0 140 -85.5 233.5t-216.5 93.5t-216.5 -93.5t-85.5 -233.5q0 -139 85.5 -232.5t216.5 -93.5t216.5 93.5t85.5 232.5zM784 366q0 -161 -106 -268.5t-259 -107.5q-152 0 -256.5 107.5t-104.5 268.5t106 269.5t259 108.5q152 0 256.5 -108t104.5 -270z" unicode="O"/>
<glyph glyph-name="P" horiz-adv-x="555" unicode="P" d="M460 502q0 78 -57 132t-159 54q-48 0 -101 -7v-370q61 -7 92 -7q107 0 166 54.5t59 143.5zM520 505q0 -112 -77 -181t-210 -69q-40 0 -90 6v-261h-56v728q80 10 151 10q135 0 208.5 -66.5t73.5 -166.5z"/>
<glyph glyph-name="Q" d="M723 366q0 140 -85.5 233.5t-216.5 93.5t-216.5 -93.5t-85.5 -233.5q0 -139 85.5 -232.5t216.5 -93.5q113 0 189 68l-153 137l35 40l155 -139q76 90 76 220zM783 24l-35 -41q-75 70 -98 90q-101 -83 -231 -83q-153 0 -257 107t-104 269q0 161 106 269.5t258 108.5 t256.5 -108t104.5 -270q0 -151 -95 -257z" unicode="Q"/>
<glyph glyph-name="R" horiz-adv-x="590" unicode="R" d="M462 518q0 76 -55.5 123t-156.5 47q-54 0 -106 -9v-331q50 -6 92 -6q109 0 167.5 47t58.5 129zM565 0h-68l-200 298q-27 -4 -64 -4q-41 0 -89 4v-298h-57v726q93 12 157 12q133 0 205.5 -59.5t72.5 -157.5q0 -76 -44.5 -131.5t-125.5 -79.5z"/>
<glyph glyph-name="S" horiz-adv-x="517" unicode="S" d="M464 189q0 -88 -64.5 -144.5t-159.5 -56.5q-108 0 -212 68l27 49q97 -66 190 -66q72 0 117 40.5t45 102.5q0 60 -37 95t-124 74q-93 41 -137.5 86.5t-44.5 116.5q0 81 61.5 136t158.5 55q91 0 165 -50l-27 -47q-65 46 -143 46q-72 0 -115.5 -39t-43.5 -97q0 -54 37 -88 t114 -70q103 -46 148 -91.5t45 -119.5z"/>
<glyph glyph-name="T" horiz-adv-x="614" unicode="T" d="M584 683h-248v-683h-57v683h-249v50h554v-50z"/>
<glyph glyph-name="U" horiz-adv-x="708" unicode="U" d="M628 266q0 -128 -75 -202t-200 -74q-128 0 -200 72t-72 204v467h56v-466q0 -110 57.5 -168t158.5 -58q100 0 159 58.5t59 167.5v466h57v-467z"/>
<glyph glyph-name="V" horiz-adv-x="687" unicode="V" d="M668 733l-319 -745h-11l-319 745h62l264 -628l262 628h61z"/>
<glyph glyph-name="W" horiz-adv-x="952" unicode="W" d="M918 733l-192 -743l-14 -2l-237 627l-235 -627l-14 2l-192 743h56l154 -601l227 605h10l229 -603l153 599h55z"/>
<glyph glyph-name="X" horiz-adv-x="678" unicode="X" d="M640 0h-67l-235 329l-235 -329h-66l271 369l-267 364h68l230 -323l231 323h66l-266 -363z"/>
<glyph glyph-name="Y" horiz-adv-x="626" unicode="Y" d="M597 733l-256 -404v-329h-56v330l-256 403h63l223 -356l220 356h62z"/>
<glyph glyph-name="Z" horiz-adv-x="631" unicode="Z" d="M580 723l-446 -672h441v-51h-525l-4 10l445 673h-420v50h504z"/>
<glyph glyph-name="bracketleft" horiz-adv-x="295" unicode="[" d="M271 -216h-191v949h191v-46h-139v-857h139v-46z"/>
<glyph glyph-name="backslash" horiz-adv-x="319" unicode="\" d="M291 -216h-52l-238 949h51z"/>
<glyph glyph-name="bracketright" horiz-adv-x="295" unicode="]" d="M216 -216h-191v46h139v857h-139v46h191v-949z"/>
<glyph glyph-name="asciicircum" horiz-adv-x="440" unicode="^" d="M357 485h-59l-79 98l-75 -98h-58l121 149h30z"/>
<glyph glyph-name="underscore" horiz-adv-x="520" unicode="_" d="M520 0h-520v50h520v-50z"/>
<glyph glyph-name="grave" horiz-adv-x="440" unicode="`" d="M334 505l-19 -30l-192 99l31 54z"/>
<glyph glyph-name="a" horiz-adv-x="433" unicode="a" d="M321 93v82q-62 35 -120 35q-49 0 -79.5 -22.5t-30.5 -64.5q0 -41 30 -63t82 -22q72 0 118 55zM376 0h-52v45q-53 -53 -132 -53q-66 0 -110 35t-44 96q0 58 44.5 94.5t111.5 36.5q59 0 127 -32v38q0 60 -28.5 88.5t-92.5 28.5q-56 0 -109 -23l-11 48q65 24 126 24 q170 0 170 -166v-260z"/>
<glyph glyph-name="b" horiz-adv-x="506" unicode="b" d="M408 210q0 73 -42.5 120.5t-110.5 47.5q-83 0 -137 -63v-211q53 -64 133 -64q68 0 112.5 47.5t44.5 122.5zM463 211q0 -92 -60 -155.5t-145 -63.5t-142 57v-49h-53v733h55v-363q60 56 145 56q86 0 143 -61t57 -154z"/>
<glyph glyph-name="c" horiz-adv-x="424" unicode="c" d="M400 34q-66 -42 -139 -42q-95 0 -157 62t-62 153t62 155t157 64q73 0 139 -42l-25 -43q-57 36 -117 36q-71 0 -116.5 -46.5t-45.5 -121.5q0 -73 47.5 -120.5t116.5 -47.5q60 0 118 36z"/>
<glyph glyph-name="d" horiz-adv-x="506" unicode="d" d="M388 105v210q-53 63 -137 63q-66 0 -109.5 -47.5t-43.5 -122.5q0 -73 43 -120.5t112 -47.5q82 0 135 65zM443 0h-53v51q-57 -59 -144 -59q-89 0 -146 60.5t-57 154.5q0 92 60 155.5t145 63.5q83 0 140 -52v359h55v-733z"/>
<glyph glyph-name="e" horiz-adv-x="461" unicode="e" d="M99 241h270q-4 61 -37 99t-95 38q-59 0 -95 -37t-43 -100zM422 224q0 -17 -2 -27h-323q4 -71 46.5 -113.5t124.5 -42.5q56 0 119 25l11 -47q-71 -27 -133 -27q-107 0 -165 60.5t-58 155.5q0 92 54.5 155t144.5 63q86 0 133.5 -56.5t47.5 -145.5z"/>
<glyph glyph-name="f" horiz-adv-x="277" unicode="f" d="M307 730l-10 -48q-22 8 -50 8q-50 0 -74 -30t-24 -98v-144h124v-49h-124v-369h-55v369h-70v13l70 39v134q0 91 38.5 138t109.5 47q40 0 65 -10z"/>
<glyph glyph-name="g" horiz-adv-x="506" unicode="g" d="M388 103v210q-54 65 -136 65q-68 0 -111 -48t-43 -123q0 -73 44 -120.5t114 -47.5q80 0 132 64zM443 -41q0 -185 -175 -185q-65 0 -139 24l10 51q62 -24 123 -24q65 0 95.5 31.5t30.5 98.5v92q-59 -55 -142 -55q-89 0 -146 60.5t-57 154.5q0 92 60 155.5t145 63.5 q87 0 142 -57v49h53v-459z"/>
<glyph glyph-name="h" horiz-adv-x="466" unicode="h" d="M413 0h-56v269q0 109 -97 109q-76 0 -147 -80v-298h-55v733h55v-386q74 79 158 79q70 0 106 -39.5t36 -105.5v-281z"/>
<glyph glyph-name="i" horiz-adv-x="188" unicode="i" d="M122 0h-56v418h56v-418zM134 573q0 -17 -12 -28.5t-28 -11.5q-17 0 -28.5 11.5t-11.5 28.5t11.5 29t28.5 12q16 0 28 -12t12 -29z"/>
<glyph glyph-name="j" horiz-adv-x="189" unicode="j" d="M124 418v-517q0 -125 -107 -125q-25 0 -60 7l7 48q25 -5 42 -5q63 0 63 72v520h55zM136 573q0 -17 -11.5 -28.5t-28.5 -11.5q-16 0 -28 11.5t-12 28.5t12 29t28 12q17 0 28.5 -12t11.5 -29z"/>
<glyph glyph-name="k" horiz-adv-x="398" unicode="k" d="M396 0h-70l-208 206v-206h-55v733h55v-500l198 185h70l-217 -197z"/>
<glyph glyph-name="l" horiz-adv-x="187" unicode="l" d="M121 0h-55v733h55v-733z"/>
<glyph glyph-name="m" horiz-adv-x="748" unicode="m" d="M689 0h-56v274q0 103 -87 103q-76 0 -142 -81v-296h-56v272q0 106 -88 106q-72 0 -142 -81v-297h-55v418h53v-71q77 79 160 79q90 0 115 -86q71 85 170 85q59 0 93.5 -36.5t34.5 -105.5v-283z"/>
<glyph glyph-name="n" horiz-adv-x="474" unicode="n" d="M415 0h-56v269q0 109 -96 109q-72 0 -145 -80v-298h-55v418h53v-72q75 80 160 80q69 0 104 -39.5t35 -105.5v-281z"/>
<glyph glyph-name="o" horiz-adv-x="500" unicode="o" d="M402 209q0 75 -42 122.5t-110 47.5t-110 -48t-42 -122t42 -122t110 -48t110 48t42 122zM458 210q0 -92 -59 -155t-149 -63q-91 0 -149 62.5t-58 154.5q0 91 58.5 154t149.5 63q90 0 148.5 -62.5t58.5 -153.5z"/>
<glyph glyph-name="p" horiz-adv-x="506" unicode="p" d="M408 209q0 73 -43 121t-110 48q-83 0 -137 -63v-220q56 -56 136 -56q67 0 110.5 47t43.5 123zM463 210q0 -95 -59 -156.5t-150 -61.5q-72 0 -136 43v-251h-55v634h53v-51q61 59 147 59q85 0 142.5 -61.5t57.5 -154.5z"/>
<glyph glyph-name="q" horiz-adv-x="506" unicode="q" d="M388 104v211q-54 63 -136 63q-66 0 -110 -48t-44 -122q0 -75 43.5 -121.5t116.5 -46.5q78 0 130 64zM443 -216h-55v262q-59 -54 -139 -54q-89 0 -147.5 60t-58.5 155q0 93 61 156t147 63q83 0 139 -54v46h53v-634z"/>
<glyph glyph-name="r" horiz-adv-x="285" unicode="r" d="M268 373q-46 -2 -86.5 -24t-63.5 -63v-286h-55v418h53v-79q62 88 152 88v-54z"/>
<glyph glyph-name="s" horiz-adv-x="354" unicode="s" d="M311 116q0 -51 -37.5 -87.5t-96.5 -36.5q-76 0 -146 52l27 40q60 -46 117 -46q40 0 62.5 19.5t22.5 51.5q0 27 -21.5 46t-52 30.5t-60.5 25t-51.5 38.5t-21.5 61q0 47 36.5 81.5t97.5 34.5q62 0 121 -40l-25 -42q-51 36 -97 36q-40 0 -61 -18.5t-21 -46.5q0 -26 21.5 -44 t52 -29.5t60.5 -24.5t51.5 -38.5t21.5 -62.5z"/>
<glyph glyph-name="t" horiz-adv-x="293" unicode="t" d="M275 369h-132v-262q0 -66 70 -66q20 0 45 5l5 -47q-39 -7 -63 -7q-111 0 -111 119v258h-71v13l71 39v90l54 40v-133h132v-49z"/>
<glyph glyph-name="u" horiz-adv-x="474" unicode="u" d="M411 0h-53v69q-31 -32 -73.5 -54.5t-84.5 -22.5q-70 0 -105.5 39.5t-35.5 105.5v281h56v-269q0 -109 97 -109q73 0 144 78v300h55v-418z"/>
<glyph glyph-name="v" horiz-adv-x="433" unicode="v" d="M425 418l-206 -430h-10l-201 430h61l147 -333l150 333h59z"/>
<glyph glyph-name="w" horiz-adv-x="611" unicode="w" d="M593 418l-140 -430h-10l-134 324l-137 -324h-10l-141 430h60l94 -314l128 314h10l131 -314l90 314h59z"/>
<glyph glyph-name="x" horiz-adv-x="393" unicode="x" d="M381 0h-62l-121 169l-123 -169h-59l154 209l-153 209h63l120 -168l119 168h60l-152 -207z"/>
<glyph glyph-name="y" horiz-adv-x="427" unicode="y" d="M420 418l-295 -634h-56l118 244l-179 390h61l145 -334l146 334h60z"/>
<glyph glyph-name="z" horiz-adv-x="397" unicode="z" d="M376 408l-276 -360h270v-48h-352l-4 9l276 361h-256v48h338z"/>
<glyph glyph-name="braceleft" horiz-adv-x="296" unicode="{" d="M278 -223q-168 0 -168 173v214q0 37 -14.5 54.5t-52.5 17.5h-23v47h23q38 0 52.5 17t14.5 55v211q0 174 168 174v-49q-58 0 -86.5 -29t-28.5 -94v-200q0 -47 -13.5 -71t-52.5 -38q39 -14 52.5 -38t13.5 -71v-201q0 -65 28.5 -94t86.5 -29v-49z"/>
<glyph glyph-name="bar" horiz-adv-x="231" unicode="|" d="M140 -217h-50v949h50v-949z"/>
<glyph glyph-name="braceright" horiz-adv-x="296" unicode="}" d="M276 236h-23q-38 0 -52.5 -17.5t-14.5 -54.5v-214q0 -173 -168 -173v49q59 0 87.5 29t28.5 94v201q0 47 13.5 71t51.5 38q-38 14 -51.5 38t-13.5 71v200q0 65 -28.5 94t-87.5 29v49q168 0 168 -174v-211q0 -38 14.5 -55t52.5 -17h23v-47z"/>
<glyph glyph-name="asciitilde" horiz-adv-x="440" unicode="~" d="M370 378q-45 -54 -91 -54h-3q-25 0 -62 22q-33 21 -52 22q-31 0 -65 -41l-28 34q45 54 91 54h3q26 0 61 -22q35 -21 53 -22q31 0 65 41z"/>
<glyph glyph-name="uni00A0" horiz-adv-x="224" unicode=" "/>
<glyph glyph-name="exclamdown" horiz-adv-x="203" unicode="¡" d="M72 1l8 551h43l9 -551h-60zM58 698q0 19 12.5 31.5t31.5 12.5q18 0 30.5 -12.5t12.5 -31.5q0 -18 -12.5 -30.5t-30.5 -12.5q-19 0 -31.5 12.5t-12.5 30.5z"/>
<glyph glyph-name="cent" horiz-adv-x="438" unicode="¢" d="M95 208q0 -60 31 -102.5t82 -57.5l26 328q-62 -8 -100.5 -53.5t-38.5 -114.5zM198 -81l6 79q-74 16 -118.5 73t-44.5 135q0 88 56.5 150t140.5 69l6 75l47 -4l-6 -72q58 -5 114 -40l-25 -43q-51 29 -93 34l-26 -334h4q59 0 118 36l22 -43q-68 -42 -141 -42h-7l-6 -77z "/>
<glyph glyph-name="sterling" horiz-adv-x="435" unicode="£" d="M417 544l-27 -46q-57 38 -113 38q-120 0 -120 -146v-80h146v-48h-146v-212h259v-50h-381v50h66v212h-63v8l63 43v82q0 86 47.5 138.5t135.5 52.5q65 0 133 -42z"/>
<glyph glyph-name="yen" horiz-adv-x="495" unicode="¥" d="M468 577l-168 -266h138v-49h-162v-74h162v-48h-162v-140h-55v140h-164v48h164v74h-164v49h141l-171 266h64l159 -254l156 254h62z"/>
<glyph glyph-name="section" horiz-adv-x="422" unicode="§" d="M326 279q0 32 -29.5 49t-111.5 42q-32 -4 -54 -23.5t-22 -45.5q0 -12 5.5 -22t14 -17t24 -14t28.5 -11.5t36.5 -12t38.5 -13.5q29 5 49.5 24t20.5 44zM377 286q0 -69 -75 -98q49 -30 49 -79q0 -50 -41 -84t-107 -34q-81 0 -150 52l27 40q25 -20 60.5 -33.5t65.5 -13.5 q44 0 68 17t24 49q0 27 -25 44.5t-60.5 28t-71 23t-60.5 36t-25 59.5q0 34 22 60t57 38q-52 29 -52 79q0 49 42 82.5t104 33.5q73 0 134 -42l-25 -42q-53 39 -110 39q-41 0 -66 -18.5t-25 -47.5q0 -24 24.5 -40.5t60 -28t71 -24.5t60 -37t24.5 -59z"/>
<glyph glyph-name="dieresis" horiz-adv-x="440" unicode="¨" d="M177 543q0 -17 -12.5 -29.5t-29.5 -12.5t-29.5 12.5t-12.5 29.5t12.5 30t29.5 13t29.5 -13t12.5 -30zM348 543q0 -17 -12.5 -29.5t-29.5 -12.5q-18 0 -30.5 12.5t-12.5 29.5t12.5 30t30.5 13q17 0 29.5 -13t12.5 -30z"/>
<glyph glyph-name="copyright" d="M560 220q-57 -38 -124 -38q-84 0 -139.5 52t-55.5 136q0 83 56 136t139 53q64 0 124 -37l-17 -39q-54 33 -108 33q-63 0 -103.5 -40t-40.5 -106t41 -105.5t105 -39.5q54 0 107 34zM744 366q0 141 -94.5 239t-228.5 98t-228 -98t-94 -239q0 -140 94 -237.5t228 -97.5 t228.5 97.5t94.5 237.5zM792 366q0 -157 -108.5 -267.5t-262.5 -110.5t-262.5 110.5t-108.5 267.5t108.5 268t262.5 111t262.5 -111t108.5 -268z" unicode="©"/>
<glyph glyph-name="ordfeminine" horiz-adv-x="349" unicode="ª" d="M246 500v57q-42 24 -83 24q-33 0 -54 -15.5t-21 -43.5q0 -29 21 -44t56 -15q49 0 81 37zM297 429h-49v33q-38 -38 -95 -38q-49 0 -81.5 26t-32.5 70q0 43 33 70t82 27q44 0 92 -22v24q0 42 -20.5 62t-66.5 20q-40 0 -80 -16l-8 42q48 17 95 17q131 0 131 -126v-189z"/>
<glyph glyph-name="guillemotleft" horiz-adv-x="402" unicode="«" d="M212 9h-58l-105 164l105 163h58l-108 -163zM357 9h-58l-105 164l105 163h58l-108 -163z"/>
<glyph glyph-name="registered" horiz-adv-x="386" unicode="®" d="M193 400q-70 0 -119 50t-49 121q0 72 49 122.5t119 50.5t119.5 -51t49.5 -122q0 -70 -49.5 -120.5t-119.5 -50.5zM193 424q59 0 100.5 43.5t41.5 103.5q0 62 -41.5 105t-100.5 43t-100 -43.5t-41 -104.5q0 -60 41.5 -103.5t99.5 -43.5zM168 632v-59q7 -1 18 -1 q39 0 39 33q0 28 -37 28q-15 0 -20 -1zM140 489v166q21 3 45 3q34 0 51.5 -15t17.5 -37q0 -37 -31 -50l43 -67h-33l-37 61q-5 -1 -13 -1t-15 1v-61h-28z"/>
<glyph glyph-name="macron" horiz-adv-x="440" unicode="¯" d="M364 512h-287v48h287v-48z"/>
<glyph glyph-name="degree" horiz-adv-x="372" unicode="°" d="M252 583q0 30 -18 49.5t-48 19.5q-29 0 -47.5 -19.5t-18.5 -49.5t18.5 -49.5t47.5 -19.5q30 0 48 19.5t18 49.5zM293 583q0 -44 -30 -74t-77 -30q-46 0 -76 30t-30 74t30 74t76 30q47 0 77 -30t30 -74z"/>
<glyph glyph-name="acute" horiz-adv-x="440" unicode="´" d="M322 574l-192 -99l-18 31l181 123z"/>
<glyph glyph-name="paragraph" horiz-adv-x="558" unicode="¶" d="M299 214v319q-91 -7 -140.5 -52.5t-49.5 -118.5q0 -69 50.5 -109t122.5 -40q3 0 8.5 0.5t8.5 0.5zM484 0h-52v529q-24 3 -81 5v-534h-52v164h-18q-98 0 -165 52t-67 144q0 102 78.5 164t213.5 62q61 0 143 -10v-576z"/>
<glyph glyph-name="periodcentered" horiz-adv-x="222" unicode="·" d="M68 370q0 18 12.5 30.5t30.5 12.5q19 0 31.5 -12.5t12.5 -30.5q0 -19 -12.5 -31.5t-31.5 -12.5q-18 0 -30.5 12.5t-12.5 31.5z"/>
<glyph glyph-name="cedilla" horiz-adv-x="440" unicode="¸" d="M332 -150q0 -37 -27 -62t-75 -25q-46 0 -106 33l18 36q52 -29 88 -29q26 0 40.5 12t14.5 33q0 53 -101 63l-3 6l26 97l37 -9l-16 -60q53 -11 78.5 -36t25.5 -59z"/>
<glyph glyph-name="ordmasculine" horiz-adv-x="380" unicode="º" d="M296 583q0 52 -29 85t-77 33q-47 0 -76 -33t-29 -85t28.5 -85t76.5 -33q47 0 76.5 33.5t29.5 84.5zM347 583q0 -68 -44.5 -114.5t-112.5 -46.5q-69 0 -112.5 46.5t-43.5 114.5t43.5 114.5t112.5 46.5t113 -46.5t44 -114.5z"/>
<glyph glyph-name="guillemotright" horiz-adv-x="402" unicode="»" d="M208 173l-105 -164h-58l108 164l-108 163h58zM353 173l-105 -164h-58l108 164l-108 163h58z"/>
<glyph glyph-name="questiondown" horiz-adv-x="384" unicode="¿" d="M200 698q0 19 12.5 31.5t31.5 12.5q18 0 30.5 -12.5t12.5 -31.5q0 -18 -12.5 -30.5t-30.5 -12.5q-19 0 -31.5 12.5t-12.5 30.5zM26 160q0 41 20 75.5t48 59t56 47t48 50.5t20 59v80h52v-91q0 -35 -19.5 -65.5t-47 -53.5t-55 -45.5t-47 -51.5t-19.5 -62q0 -53 36 -84.5 t103 -31.5q60 0 126 34l16 -49q-81 -38 -146 -38q-92 0 -141.5 47t-49.5 120z"/>
<glyph glyph-name="Agrave" horiz-adv-x="696" unicode="À" d="M389 825l-19 -30l-192 99l31 54zM498 272l-151 359l-151 -359h302zM674 0h-60l-95 224h-344l-94 -224h-59l321 745h10z"/>
<glyph glyph-name="Aacute" horiz-adv-x="696" unicode="Á" d="M513 894l-192 -99l-18 31l181 123zM498 272l-151 359l-151 -359h302zM674 0h-60l-95 224h-344l-94 -224h-59l321 745h10z"/>
<glyph glyph-name="Acircumflex" horiz-adv-x="696" unicode="Â" d="M483 807h-59l-79 98l-75 -98h-58l121 149h30zM498 272l-151 359l-151 -359h302zM674 0h-60l-95 224h-344l-94 -224h-59l321 745h10z"/>
<glyph glyph-name="Atilde" horiz-adv-x="696" unicode="Ã" d="M500 871q-45 -54 -91 -54h-3q-25 0 -62 22q-33 21 -52 22q-31 0 -65 -41l-28 34q45 54 91 54h3q26 0 61 -22q35 -21 53 -22q31 0 65 41zM498 272l-151 359l-151 -359h302zM674 0h-60l-95 224h-344l-94 -224h-59l321 745h10z"/>
<glyph glyph-name="Adieresis" horiz-adv-x="696" unicode="Ä" d="M304 863q0 -17 -12.5 -29.5t-29.5 -12.5t-29.5 12.5t-12.5 29.5t12.5 30t29.5 13t29.5 -13t12.5 -30zM475 863q0 -17 -12.5 -29.5t-29.5 -12.5q-18 0 -30.5 12.5t-12.5 29.5t12.5 30t30.5 13q17 0 29.5 -13t12.5 -30zM498 272l-151 359l-151 -359h302zM674 0h-60l-95 224 h-344l-94 -224h-59l321 745h10z"/>
<glyph glyph-name="Aring" horiz-adv-x="696" unicode="Å" d="M410 812q0 28 -17.5 46.5t-44.5 18.5q-26 0 -43.5 -18.5t-17.5 -46.5q0 -29 17.5 -47.5t43.5 -18.5q27 0 44.5 18.5t17.5 47.5zM498 272l-151 359l-151 -359h302zM451 811q0 -38 -23 -65.5t-61 -34.5l307 -711h-60l-95 224h-344l-94 -224h-59l306 712q-37 6 -60 34 t-23 65q0 43 29 72t74 29q46 0 74.5 -29t28.5 -72z"/>
<glyph glyph-name="AE" horiz-adv-x="1020" unicode="Æ" d="M544 289v357l-254 -357h254zM958 0h-414v241h-288l-171 -241h-66l527 733h412v-50h-357v-286h322v-50h-322v-296h357v-51z"/>
<glyph glyph-name="Ccedilla" horiz-adv-x="740" unicode="Ç" d="M537 -150q0 -37 -27 -62t-75 -25q-46 0 -106 33l18 36q52 -29 88 -29q26 0 40.5 12t14.5 33q0 53 -101 63l-3 6l20 75q-150 12 -249 113.5t-99 259.5q0 168 111.5 274t272.5 106q138 0 255 -80l-25 -47q-114 75 -233 75q-137 0 -228.5 -90.5t-91.5 -236.5 q0 -145 92.5 -234.5t230.5 -89.5q118 0 233 74l20 -46q-118 -79 -250 -80l-12 -45q53 -11 78.5 -36t25.5 -59z"/>
<glyph glyph-name="Egrave" horiz-adv-x="563" unicode="È" d="M336 825l-19 -30l-192 99l31 54zM501 0h-414v733h414v-50h-358v-286h323v-50h-323v-296h358v-51z"/>
<glyph glyph-name="Eacute" horiz-adv-x="563" unicode="É" d="M501 0h-414v733h414v-50h-358v-286h323v-50h-323v-296h358v-51zM460 894l-192 -99l-18 31l181 123z"/>
<glyph glyph-name="Ecircumflex" horiz-adv-x="563" unicode="Ê" d="M501 0h-414v733h414v-50h-358v-286h323v-50h-323v-296h358v-51zM430 807h-59l-79 98l-75 -98h-58l121 149h30z"/>
<glyph glyph-name="Edieresis" horiz-adv-x="563" unicode="Ë" d="M501 0h-414v733h414v-50h-358v-286h323v-50h-323v-296h358v-51zM251 863q0 -17 -12.5 -29.5t-29.5 -12.5t-29.5 12.5t-12.5 29.5t12.5 30t29.5 13t29.5 -13t12.5 -30zM422 863q0 -17 -12.5 -29.5t-29.5 -12.5q-18 0 -30.5 12.5t-12.5 29.5t12.5 30t30.5 13q17 0 29.5 -13 t12.5 -30z"/>
<glyph glyph-name="Igrave" horiz-adv-x="237" unicode="Ì" d="M160 825l-19 -30l-192 99l31 54zM147 0h-56v733h56v-733z"/>
<glyph glyph-name="Iacute" horiz-adv-x="237" unicode="Í" d="M284 894l-192 -99l-18 31l181 123zM147 0h-56v733h56v-733z"/>
<glyph glyph-name="Icircumflex" horiz-adv-x="237" unicode="Î" d="M254 807h-59l-79 98l-75 -98h-58l121 149h30zM147 0h-56v733h56v-733z"/>
<glyph glyph-name="Idieresis" horiz-adv-x="237" unicode="Ï" d="M75 863q0 -17 -12.5 -29.5t-29.5 -12.5t-29.5 12.5t-12.5 29.5t12.5 30t29.5 13t29.5 -13t12.5 -30zM246 863q0 -17 -12.5 -29.5t-29.5 -12.5q-18 0 -30.5 12.5t-12.5 29.5t12.5 30t30.5 13q17 0 29.5 -13t12.5 -30zM147 0h-56v733h56v-733z"/>
<glyph glyph-name="Eth" horiz-adv-x="770" unicode="Ð" d="M652 373q0 137 -94 227.5t-261 90.5q-78 0 -124 -8v-285h136v-50h-136v-298q50 -8 129 -8q168 0 259 92.5t91 238.5zM712 373q0 -160 -109 -270t-304 -110q-92 0 -182 12v343h-87v50h87v330q90 12 178 12q99 0 180 -30.5t131.5 -82.5t78 -117t27.5 -137z"/>
<glyph glyph-name="Ntilde" horiz-adv-x="727" unicode="Ñ" d="M515 858q-45 -54 -91 -54h-3q-25 0 -62 22q-33 21 -52 22q-31 0 -65 -41l-28 34q45 54 91 54h3q26 0 61 -22q35 -21 53 -22q31 0 65 41zM640 -9l-10 -2l-488 622v-611h-55v741l13 3l484 -615v604h56v-742z"/>
<glyph glyph-name="Ograve" d="M462 825l-19 -30l-192 99l31 54zM723 366q0 140 -85.5 233.5t-216.5 93.5t-216.5 -93.5t-85.5 -233.5q0 -139 85.5 -232.5t216.5 -93.5t216.5 93.5t85.5 232.5zM784 366q0 -161 -106 -268.5t-259 -107.5q-152 0 -256.5 107.5t-104.5 268.5t106 269.5t259 108.5 q152 0 256.5 -108t104.5 -270z" unicode="Ò"/>
<glyph glyph-name="Oacute" d="M723 366q0 140 -85.5 233.5t-216.5 93.5t-216.5 -93.5t-85.5 -233.5q0 -139 85.5 -232.5t216.5 -93.5t216.5 93.5t85.5 232.5zM784 366q0 -161 -106 -268.5t-259 -107.5q-152 0 -256.5 107.5t-104.5 268.5t106 269.5t259 108.5q152 0 256.5 -108t104.5 -270zM586 894 l-192 -99l-18 31l181 123z" unicode="Ó"/>
<glyph glyph-name="Ocircumflex" d="M723 366q0 140 -85.5 233.5t-216.5 93.5t-216.5 -93.5t-85.5 -233.5q0 -139 85.5 -232.5t216.5 -93.5t216.5 93.5t85.5 232.5zM784 366q0 -161 -106 -268.5t-259 -107.5q-152 0 -256.5 107.5t-104.5 268.5t106 269.5t259 108.5q152 0 256.5 -108t104.5 -270zM556 807h-59 l-79 98l-75 -98h-58l121 149h30z" unicode="Ô"/>
<glyph glyph-name="Otilde" d="M573 871q-45 -54 -91 -54h-3q-25 0 -62 22q-33 21 -52 22q-31 0 -65 -41l-28 34q45 54 91 54h3q26 0 61 -22q35 -21 53 -22q31 0 65 41zM723 366q0 140 -85.5 233.5t-216.5 93.5t-216.5 -93.5t-85.5 -233.5q0 -139 85.5 -232.5t216.5 -93.5t216.5 93.5t85.5 232.5z M784 366q0 -161 -106 -268.5t-259 -107.5q-152 0 -256.5 107.5t-104.5 268.5t106 269.5t259 108.5q152 0 256.5 -108t104.5 -270z" unicode="Õ"/>
<glyph glyph-name="Odieresis" d="M723 366q0 140 -85.5 233.5t-216.5 93.5t-216.5 -93.5t-85.5 -233.5q0 -139 85.5 -232.5t216.5 -93.5t216.5 93.5t85.5 232.5zM784 366q0 -161 -106 -268.5t-259 -107.5q-152 0 -256.5 107.5t-104.5 268.5t106 269.5t259 108.5q152 0 256.5 -108t104.5 -270zM377 863 q0 -17 -12.5 -29.5t-29.5 -12.5t-29.5 12.5t-12.5 29.5t12.5 30t29.5 13t29.5 -13t12.5 -30zM548 863q0 -17 -12.5 -29.5t-29.5 -12.5q-18 0 -30.5 12.5t-12.5 29.5t12.5 30t30.5 13q17 0 29.5 -13t12.5 -30z" unicode="Ö"/>
<glyph glyph-name="multiply" horiz-adv-x="450" unicode="×" d="M70 401l34 35l121 -121l121 121l34 -35l-121 -121l121 -120l-34 -35l-121 121l-121 -121l-34 35l120 120z"/>
<glyph glyph-name="Oslash" d="M625 612q-84 81 -204 81q-131 0 -216.5 -93.5t-85.5 -233.5q0 -122 67 -209zM784 366q0 -161 -106 -268.5t-259 -107.5q-138 0 -240 91l-83 -87l-34 35l84 86q-88 106 -88 251q0 161 106 269.5t259 108.5q139 0 240 -93l84 88l34 -34q-68 -71 -85 -88q88 -104 88 -251z M656 576l-220 -228l-219 -228q85 -80 204 -80q131 0 216.5 93.5t85.5 232.5q0 123 -67 210z" unicode="Ø"/>
<glyph glyph-name="Ugrave" horiz-adv-x="708" unicode="Ù" d="M396 812l-19 -30l-192 99l31 54zM628 266q0 -128 -75 -202t-200 -74q-128 0 -200 72t-72 204v467h56v-466q0 -110 57.5 -168t158.5 -58q100 0 159 58.5t59 167.5v466h57v-467z"/>
<glyph glyph-name="Uacute" horiz-adv-x="708" unicode="Ú" d="M520 881l-192 -99l-18 31l181 123zM628 266q0 -128 -75 -202t-200 -74q-128 0 -200 72t-72 204v467h56v-466q0 -110 57.5 -168t158.5 -58q100 0 159 58.5t59 167.5v466h57v-467z"/>
<glyph glyph-name="Ucircumflex" horiz-adv-x="708" unicode="Û" d="M490 794h-59l-79 98l-75 -98h-58l121 149h30zM628 266q0 -128 -75 -202t-200 -74q-128 0 -200 72t-72 204v467h56v-466q0 -110 57.5 -168t158.5 -58q100 0 159 58.5t59 167.5v466h57v-467z"/>
<glyph glyph-name="Udieresis" horiz-adv-x="708" unicode="Ü" d="M311 850q0 -17 -12.5 -29.5t-29.5 -12.5t-29.5 12.5t-12.5 29.5t12.5 30t29.5 13t29.5 -13t12.5 -30zM482 850q0 -17 -12.5 -29.5t-29.5 -12.5q-18 0 -30.5 12.5t-12.5 29.5t12.5 30t30.5 13q17 0 29.5 -13t12.5 -30zM628 266q0 -128 -75 -202t-200 -74q-128 0 -200 72 t-72 204v467h56v-466q0 -110 57.5 -168t158.5 -58q100 0 159 58.5t59 167.5v466h57v-467z"/>
<glyph glyph-name="Yacute" horiz-adv-x="626" unicode="Ý" d="M478 881l-192 -99l-18 31l181 123zM597 733l-256 -404v-329h-56v330l-256 403h63l223 -356l220 356h62z"/>
<glyph glyph-name="Thorn" horiz-adv-x="555" unicode="Þ" d="M460 373q0 78 -57 132t-159 54q-48 0 -101 -7v-370q61 -7 92 -7q107 0 166 54.5t59 143.5zM520 376q0 -112 -77 -181.5t-210 -69.5q-40 0 -90 6v-131h-56v733h56v-127q41 4 95 4q135 0 208.5 -67t73.5 -167z"/>
<glyph glyph-name="germandbls" horiz-adv-x="468" unicode="ß" d="M434 408l-150 -188q73 -4 113.5 -44.5t40.5 -101.5q0 -79 -54.5 -123.5t-139.5 -44.5q-36 0 -67 7l7 48q30 -6 59 -6q66 0 103.5 31t37.5 86q0 48 -35 77t-99 29q-22 0 -44 -3l-5 12l144 182h-223v-369h-55v555q0 91 38.5 138t110.5 47q39 0 64 -10l-10 -48q-22 8 -49 8 q-51 0 -75 -30t-24 -98v-144h308z"/>
<glyph glyph-name="agrave" horiz-adv-x="433" unicode="à" d="M262 505l-19 -30l-192 99l31 54zM321 93v82q-62 35 -120 35q-49 0 -79.5 -22.5t-30.5 -64.5q0 -41 30 -63t82 -22q72 0 118 55zM376 0h-52v45q-53 -53 -132 -53q-66 0 -110 35t-44 96q0 58 44.5 94.5t111.5 36.5q59 0 127 -32v38q0 60 -28.5 88.5t-92.5 28.5 q-56 0 -109 -23l-11 48q65 24 126 24q170 0 170 -166v-260z"/>
<glyph glyph-name="aacute" horiz-adv-x="433" unicode="á" d="M385 574l-192 -99l-18 31l181 123zM321 93v82q-62 35 -120 35q-49 0 -79.5 -22.5t-30.5 -64.5q0 -41 30 -63t82 -22q72 0 118 55zM376 0h-52v45q-53 -53 -132 -53q-66 0 -110 35t-44 96q0 58 44.5 94.5t111.5 36.5q59 0 127 -32v38q0 60 -28.5 88.5t-92.5 28.5 q-56 0 -109 -23l-11 48q65 24 126 24q170 0 170 -166v-260z"/>
<glyph glyph-name="acircumflex" horiz-adv-x="433" unicode="â" d="M355 487h-59l-79 98l-75 -98h-58l121 149h30zM321 93v82q-62 35 -120 35q-49 0 -79.5 -22.5t-30.5 -64.5q0 -41 30 -63t82 -22q72 0 118 55zM376 0h-52v45q-53 -53 -132 -53q-66 0 -110 35t-44 96q0 58 44.5 94.5t111.5 36.5q59 0 127 -32v38q0 60 -28.5 88.5t-92.5 28.5 q-56 0 -109 -23l-11 48q65 24 126 24q170 0 170 -166v-260z"/>
<glyph glyph-name="atilde" horiz-adv-x="433" unicode="ã" d="M372 551q-45 -54 -91 -54h-3q-25 0 -62 22q-33 21 -52 22q-31 0 -65 -41l-28 34q45 54 91 54h3q26 0 61 -22q35 -21 53 -22q31 0 65 41zM321 93v82q-62 35 -120 35q-49 0 -79.5 -22.5t-30.5 -64.5q0 -41 30 -63t82 -22q72 0 118 55zM376 0h-52v45q-53 -53 -132 -53 q-66 0 -110 35t-44 96q0 58 44.5 94.5t111.5 36.5q59 0 127 -32v38q0 60 -28.5 88.5t-92.5 28.5q-56 0 -109 -23l-11 48q65 24 126 24q170 0 170 -166v-260z"/>
<glyph glyph-name="adieresis" horiz-adv-x="433" unicode="ä" d="M177 543q0 -17 -12.5 -29.5t-29.5 -12.5t-29.5 12.5t-12.5 29.5t12.5 30t29.5 13t29.5 -13t12.5 -30zM348 543q0 -17 -12.5 -29.5t-29.5 -12.5q-18 0 -30.5 12.5t-12.5 29.5t12.5 30t30.5 13q17 0 29.5 -13t12.5 -30zM321 93v82q-62 35 -120 35q-49 0 -79.5 -22.5 t-30.5 -64.5q0 -41 30 -63t82 -22q72 0 118 55zM376 0h-52v45q-53 -53 -132 -53q-66 0 -110 35t-44 96q0 58 44.5 94.5t111.5 36.5q59 0 127 -32v38q0 60 -28.5 88.5t-92.5 28.5q-56 0 -109 -23l-11 48q65 24 126 24q170 0 170 -166v-260z"/>
<glyph glyph-name="aring" horiz-adv-x="433" unicode="å" d="M282 586q0 29 -17.5 47.5t-44.5 18.5q-26 0 -43.5 -18.5t-17.5 -47.5q0 -28 17.5 -47t43.5 -19q27 0 44.5 18.5t17.5 47.5zM321 93v82q-62 35 -120 35q-49 0 -79.5 -22.5t-30.5 -64.5q0 -41 30 -63t82 -22q72 0 118 55zM323 586q0 -43 -28.5 -72t-74.5 -29q-45 0 -74 29 t-29 72q0 42 29 71.5t74 29.5t74 -29.5t29 -71.5zM376 0h-52v45q-53 -53 -132 -53q-66 0 -110 35t-44 96q0 58 44.5 94.5t111.5 36.5q59 0 127 -32v38q0 60 -28.5 88.5t-92.5 28.5q-56 0 -109 -23l-11 48q65 24 126 24q170 0 170 -166v-260z"/>
<glyph glyph-name="ae" horiz-adv-x="738" unicode="æ" d="M325 168q-55 42 -124 42q-49 0 -79.5 -22.5t-30.5 -64.5q0 -41 28 -63t75 -22q48 0 85.5 32t45.5 98zM647 241q-4 61 -37 99t-95 38q-59 0 -95 -37t-43 -100h270zM321 222v38q0 60 -28 88.5t-93 28.5q-56 0 -109 -23l-11 48q65 24 127 24q123 0 151 -90q53 90 161 90 q85 0 132.5 -56t47.5 -144q0 -19 -1 -29h-323q4 -71 46.5 -113.5t124.5 -42.5q56 0 118 25l12 -47q-71 -27 -133 -27q-141 0 -191 104q-24 -50 -69 -77t-100 -27q-61 0 -103 35.5t-42 95.5q0 58 44.5 94.5t110.5 36.5q64 0 128 -32z"/>
<glyph glyph-name="ccedilla" horiz-adv-x="424" unicode="ç" d="M342 -150q0 -37 -27 -62t-75 -25q-46 0 -106 33l18 36q52 -29 88 -29q26 0 40.5 12t14.5 33q0 53 -101 63l-3 6l21 80q-76 15 -123 73.5t-47 136.5q0 91 62 155t157 64q73 0 139 -42l-25 -43q-57 36 -117 36q-71 0 -116.5 -46.5t-45.5 -121.5q0 -73 47.5 -120.5 t116.5 -47.5q60 0 118 36l22 -43q-66 -42 -139 -42h-11l-12 -47q53 -11 78.5 -36t25.5 -59z"/>
<glyph glyph-name="egrave" horiz-adv-x="461" unicode="è" d="M282 505l-19 -30l-192 99l31 54zM99 241h270q-4 61 -37 99t-95 38q-59 0 -95 -37t-43 -100zM422 224q0 -17 -2 -27h-323q4 -71 46.5 -113.5t124.5 -42.5q56 0 119 25l11 -47q-71 -27 -133 -27q-107 0 -165 60.5t-58 155.5q0 92 54.5 155t144.5 63q86 0 133.5 -56.5 t47.5 -145.5z"/>
<glyph glyph-name="eacute" horiz-adv-x="461" unicode="é" d="M99 241h270q-4 61 -37 99t-95 38q-59 0 -95 -37t-43 -100zM422 224q0 -17 -2 -27h-323q4 -71 46.5 -113.5t124.5 -42.5q56 0 119 25l11 -47q-71 -27 -133 -27q-107 0 -165 60.5t-58 155.5q0 92 54.5 155t144.5 63q86 0 133.5 -56.5t47.5 -145.5zM405 574l-192 -99l-18 31 l181 123z"/>
<glyph glyph-name="ecircumflex" horiz-adv-x="461" unicode="ê" d="M99 241h270q-4 61 -37 99t-95 38q-59 0 -95 -37t-43 -100zM422 224q0 -17 -2 -27h-323q4 -71 46.5 -113.5t124.5 -42.5q56 0 119 25l11 -47q-71 -27 -133 -27q-107 0 -165 60.5t-58 155.5q0 92 54.5 155t144.5 63q86 0 133.5 -56.5t47.5 -145.5zM375 487h-59l-79 98 l-75 -98h-58l121 149h30z"/>
<glyph glyph-name="edieresis" horiz-adv-x="461" unicode="ë" d="M99 241h270q-4 61 -37 99t-95 38q-59 0 -95 -37t-43 -100zM422 224q0 -17 -2 -27h-323q4 -71 46.5 -113.5t124.5 -42.5q56 0 119 25l11 -47q-71 -27 -133 -27q-107 0 -165 60.5t-58 155.5q0 92 54.5 155t144.5 63q86 0 133.5 -56.5t47.5 -145.5zM196 543 q0 -17 -12.5 -29.5t-29.5 -12.5t-29.5 12.5t-12.5 29.5t12.5 30t29.5 13t29.5 -13t12.5 -30zM367 543q0 -17 -12.5 -29.5t-29.5 -12.5q-18 0 -30.5 12.5t-12.5 29.5t12.5 30t30.5 13q17 0 29.5 -13t12.5 -30z"/>
<glyph glyph-name="igrave" horiz-adv-x="191" unicode="ì" d="M138 505l-19 -30l-192 99l31 54zM124 0h-56v418h56v-418z"/>
<glyph glyph-name="iacute" horiz-adv-x="191" unicode="í" d="M124 0h-56v418h56v-418zM261 574l-192 -99l-18 31l181 123z"/>
<glyph glyph-name="icircumflex" horiz-adv-x="191" unicode="î" d="M124 0h-56v418h56v-418zM231 487h-59l-79 98l-75 -98h-58l121 149h30z"/>
<glyph glyph-name="idieresis" horiz-adv-x="191" unicode="ï" d="M124 0h-56v418h56v-418zM53 543q0 -17 -12.5 -29.5t-29.5 -12.5t-29.5 12.5t-12.5 29.5t12.5 30t29.5 13t29.5 -13t12.5 -30zM224 543q0 -17 -12.5 -29.5t-29.5 -12.5q-18 0 -30.5 12.5t-12.5 29.5t12.5 30t30.5 13q17 0 29.5 -13t12.5 -30z"/>
<glyph glyph-name="eth" horiz-adv-x="499" unicode="ð" d="M402 211q0 74 -42 121t-115 47q-66 0 -106.5 -47t-40.5 -119t41.5 -123t109.5 -51t110.5 49.5t42.5 122.5zM143 516l-29 34l82 73q-50 39 -116 70l22 43q75 -36 132 -79l70 62l30 -35l-64 -56q187 -165 187 -404q0 -103 -58.5 -167.5t-150.5 -64.5q-95 0 -150 64.5 t-55 159.5q0 88 55 149.5t138 61.5q96 0 151 -73q-32 133 -155 240z"/>
<glyph glyph-name="ntilde" horiz-adv-x="474" unicode="ñ" d="M390 551q-45 -54 -91 -54h-3q-25 0 -62 22q-33 21 -52 22q-31 0 -65 -41l-28 34q45 54 91 54h3q26 0 61 -22q35 -21 53 -22q31 0 65 41zM415 0h-56v269q0 109 -96 109q-72 0 -145 -80v-298h-55v418h53v-72q75 80 160 80q69 0 104 -39.5t35 -105.5v-281z"/>
<glyph glyph-name="ograve" horiz-adv-x="500" unicode="ò" d="M292 505l-19 -30l-192 99l31 54zM402 209q0 75 -42 122.5t-110 47.5t-110 -48t-42 -122t42 -122t110 -48t110 48t42 122zM458 210q0 -92 -59 -155t-149 -63q-91 0 -149 62.5t-58 154.5q0 91 58.5 154t149.5 63q90 0 148.5 -62.5t58.5 -153.5z"/>
<glyph glyph-name="oacute" horiz-adv-x="500" unicode="ó" d="M402 209q0 75 -42 122.5t-110 47.5t-110 -48t-42 -122t42 -122t110 -48t110 48t42 122zM458 210q0 -92 -59 -155t-149 -63q-91 0 -149 62.5t-58 154.5q0 91 58.5 154t149.5 63q90 0 148.5 -62.5t58.5 -153.5zM415 574l-192 -99l-18 31l181 123z"/>
<glyph glyph-name="ocircumflex" horiz-adv-x="500" unicode="ô" d="M402 209q0 75 -42 122.5t-110 47.5t-110 -48t-42 -122t42 -122t110 -48t110 48t42 122zM458 210q0 -92 -59 -155t-149 -63q-91 0 -149 62.5t-58 154.5q0 91 58.5 154t149.5 63q90 0 148.5 -62.5t58.5 -153.5zM385 487h-59l-79 98l-75 -98h-58l121 149h30z"/>
<glyph glyph-name="otilde" horiz-adv-x="500" unicode="õ" d="M402 551q-45 -54 -91 -54h-3q-25 0 -62 22q-33 21 -52 22q-31 0 -65 -41l-28 34q45 54 91 54h3q26 0 61 -22q35 -21 53 -22q31 0 65 41zM402 209q0 75 -42 122.5t-110 47.5t-110 -48t-42 -122t42 -122t110 -48t110 48t42 122zM458 210q0 -92 -59 -155t-149 -63 q-91 0 -149 62.5t-58 154.5q0 91 58.5 154t149.5 63q90 0 148.5 -62.5t58.5 -153.5z"/>
<glyph glyph-name="odieresis" horiz-adv-x="500" unicode="ö" d="M402 209q0 75 -42 122.5t-110 47.5t-110 -48t-42 -122t42 -122t110 -48t110 48t42 122zM458 210q0 -92 -59 -155t-149 -63q-91 0 -149 62.5t-58 154.5q0 91 58.5 154t149.5 63q90 0 148.5 -62.5t58.5 -153.5zM206 543q0 -17 -12.5 -29.5t-29.5 -12.5t-29.5 12.5 t-12.5 29.5t12.5 30t29.5 13t29.5 -13t12.5 -30zM377 543q0 -17 -12.5 -29.5t-29.5 -12.5q-18 0 -30.5 12.5t-12.5 29.5t12.5 30t30.5 13q17 0 29.5 -13t12.5 -30z"/>
<glyph glyph-name="divide" horiz-adv-x="460" unicode="÷" d="M190 135q0 17 11.5 29t28.5 12t28.5 -12t11.5 -29q0 -16 -11.5 -28t-28.5 -12q-16 0 -28 12t-12 28zM190 424q0 17 11.5 29t28.5 12t28.5 -12t11.5 -29q0 -16 -11.5 -28t-28.5 -12q-16 0 -28 12t-12 28zM60 256v49h340v-49h-340z"/>
<glyph glyph-name="oslash" horiz-adv-x="500" unicode="ø" d="M380 304l-234 -224q41 -41 104 -41q69 0 111 47.5t42 122.5q0 54 -23 95zM121 112l235 225q-40 42 -106 42q-69 0 -110.5 -47t-41.5 -123q0 -54 23 -97zM474 394l-56 -53q40 -55 40 -131q0 -93 -58.5 -155.5t-149.5 -62.5q-83 0 -140 54l-56 -54l-29 29l58 55 q-40 57 -40 133q0 92 58.5 154.5t149.5 62.5q84 0 141 -55l54 52z"/>
<glyph glyph-name="ugrave" horiz-adv-x="474" unicode="ù" d="M277 505l-19 -30l-192 99l31 54zM411 0h-53v69q-31 -32 -73.5 -54.5t-84.5 -22.5q-70 0 -105.5 39.5t-35.5 105.5v281h56v-269q0 -109 97 -109q73 0 144 78v300h55v-418z"/>
<glyph glyph-name="uacute" horiz-adv-x="474" unicode="ú" d="M411 0h-53v69q-31 -32 -73.5 -54.5t-84.5 -22.5q-70 0 -105.5 39.5t-35.5 105.5v281h56v-269q0 -109 97 -109q73 0 144 78v300h55v-418zM400 574l-192 -99l-18 31l181 123z"/>
<glyph glyph-name="ucircumflex" horiz-adv-x="474" unicode="û" d="M411 0h-53v69q-31 -32 -73.5 -54.5t-84.5 -22.5q-70 0 -105.5 39.5t-35.5 105.5v281h56v-269q0 -109 97 -109q73 0 144 78v300h55v-418zM370 487h-59l-79 98l-75 -98h-58l121 149h30z"/>
<glyph glyph-name="udieresis" horiz-adv-x="474" unicode="ü" d="M411 0h-53v69q-31 -32 -73.5 -54.5t-84.5 -22.5q-70 0 -105.5 39.5t-35.5 105.5v281h56v-269q0 -109 97 -109q73 0 144 78v300h55v-418zM191 543q0 -17 -12.5 -29.5t-29.5 -12.5t-29.5 12.5t-12.5 29.5t12.5 30t29.5 13t29.5 -13t12.5 -30zM362 543q0 -17 -12.5 -29.5 t-29.5 -12.5q-18 0 -30.5 12.5t-12.5 29.5t12.5 30t30.5 13q17 0 29.5 -13t12.5 -30z"/>
<glyph glyph-name="yacute" horiz-adv-x="427" unicode="ý" d="M378 574l-192 -99l-18 31l181 123zM420 418l-295 -634h-56l118 244l-179 390h61l145 -334l146 334h60z"/>
<glyph glyph-name="thorn" horiz-adv-x="506" unicode="þ" d="M408 209q0 73 -43 121t-110 48q-83 0 -137 -63v-220q56 -56 136 -56q67 0 110.5 47t43.5 123zM463 210q0 -95 -59 -156.5t-150 -61.5q-72 0 -136 43v-251h-55v949h53v-366q61 59 147 59q85 0 142.5 -61.5t57.5 -154.5z"/>
<glyph glyph-name="OE" horiz-adv-x="1068" unicode="Œ" d="M592 50v634q-50 8 -123 8q-169 0 -259.5 -92.5t-90.5 -239.5q0 -136 94 -226.5t261 -90.5q69 0 118 7zM1006 0h-401q-67 -7 -130 -7q-99 0 -179.5 31t-131.5 82.5t-78.5 117t-27.5 136.5q0 77 27 145t77.5 121t130.5 83.5t179 30.5q72 0 138 -7h396v-50h-358v-286h323 v-50h-323v-296h358v-51z"/>
<glyph glyph-name="oe" horiz-adv-x="818" unicode="œ" d="M402 209q0 75 -42 122.5t-110 47.5t-110 -48t-42 -122t42 -122t110 -48t110 48t42 122zM727 241q-3 61 -36.5 99t-95.5 38q-59 0 -94.5 -37t-42.5 -100h269zM780 224q0 -17 -1 -27h-323q3 -71 45.5 -113.5t124.5 -42.5q56 0 119 25l11 -47q-71 -27 -133 -27 q-143 0 -196 108q-25 -50 -71.5 -79t-105.5 -29q-91 0 -149 62.5t-58 154.5q0 91 58.5 154t149.5 63q59 0 105.5 -29t71.5 -78q24 49 68 78t103 29q86 0 133.5 -56.5t47.5 -145.5z"/>
<glyph glyph-name="Scaron" horiz-adv-x="517" unicode="Š" d="M464 189q0 -88 -64.5 -144.5t-159.5 -56.5q-108 0 -212 68l27 49q97 -66 190 -66q72 0 117 40.5t45 102.5q0 60 -37 95t-124 74q-93 41 -137.5 86.5t-44.5 116.5q0 81 61.5 136t158.5 55q91 0 165 -50l-27 -47q-65 46 -143 46q-72 0 -115.5 -39t-43.5 -97q0 -54 37 -88 t114 -70q103 -46 148 -91.5t45 -119.5zM402 951l-122 -149h-29l-120 149h59l78 -98l76 98h58z"/>
<glyph glyph-name="scaron" horiz-adv-x="356" unicode="š" d="M311 116q0 -51 -37.5 -87.5t-96.5 -36.5q-76 0 -146 52l27 40q60 -46 117 -46q40 0 62.5 19.5t22.5 51.5q0 27 -21.5 46t-52 30.5t-60.5 25t-51.5 38.5t-21.5 61q0 47 36.5 81.5t97.5 34.5q62 0 121 -40l-25 -42q-51 36 -97 36q-40 0 -61 -18.5t-21 -46.5q0 -26 21.5 -44 t52 -29.5t60.5 -24.5t51.5 -38.5t21.5 -62.5zM317 631l-122 -149h-29l-120 149h59l78 -98l76 98h58z"/>
<glyph glyph-name="Ydieresis" horiz-adv-x="626" unicode="Ÿ" d="M269 850q0 -17 -12.5 -29.5t-29.5 -12.5t-29.5 12.5t-12.5 29.5t12.5 30t29.5 13t29.5 -13t12.5 -30zM440 850q0 -17 -12.5 -29.5t-29.5 -12.5q-18 0 -30.5 12.5t-12.5 29.5t12.5 30t30.5 13q17 0 29.5 -13t12.5 -30zM597 733l-256 -404v-329h-56v330l-256 403h63 l223 -356l220 356h62z"/>
<glyph glyph-name="circumflex" horiz-adv-x="440" unicode="ˆ" d="M357 487h-59l-79 98l-75 -98h-58l121 149h30z"/>
<glyph glyph-name="tilde" horiz-adv-x="440" unicode="˜" d="M370 551q-45 -54 -91 -54h-3q-25 0 -62 22q-33 21 -52 22q-31 0 -65 -41l-28 34q45 54 91 54h3q26 0 61 -22q35 -21 53 -22q31 0 65 41z"/>
<glyph glyph-name="enspace" horiz-adv-x="500" unicode=" "/>
<glyph glyph-name="emspace" horiz-adv-x="1000" unicode=" "/>
<glyph glyph-name="thinspace" horiz-adv-x="133" unicode=" "/>
<glyph glyph-name="endash" horiz-adv-x="500" unicode="–" d="M450 218h-400v49h400v-49z"/>
<glyph glyph-name="emdash" horiz-adv-x="750" unicode="—" d="M700 218h-650v49h650v-49z"/>
<glyph glyph-name="quoteleft" horiz-adv-x="158" unicode="‘" d="M121 597q0 -17 -12 -29t-29 -12q-22 0 -35 15.5t-13 40.5q0 37 25 75.5t63 61.5l11 -13q-48 -46 -57 -95q22 -2 34.5 -14.5t12.5 -29.5z"/>
<glyph glyph-name="quotesinglbase" horiz-adv-x="158" unicode="‚" d="M127 23q0 -37 -25.5 -75.5t-63.5 -61.5l-11 13q47 43 57 94q-21 2 -34 15t-13 30t12.5 29t29.5 12q21 0 34.5 -15.5t13.5 -40.5z"/>
<glyph glyph-name="quotedblleft" horiz-adv-x="292" unicode="“" d="M121 597q0 -17 -12 -29t-29 -12q-22 0 -35 15.5t-13 40.5q0 37 25 75.5t63 61.5l11 -13q-48 -46 -57 -95q22 -2 34.5 -14.5t12.5 -29.5zM255 597q0 -17 -12 -29t-29 -12q-22 0 -35 15.5t-13 40.5q0 37 25 75.5t63 61.5l11 -13q-48 -46 -57 -95q22 -2 34.5 -14.5 t12.5 -29.5z"/>
<glyph glyph-name="quotedblright" horiz-adv-x="292" unicode="”" d="M127 687q0 -36 -25.5 -74.5t-63.5 -61.5l-11 13q47 43 57 94q-21 2 -34 14.5t-13 30.5q0 17 12.5 29t29.5 12q21 0 34.5 -16t13.5 -41zM261 687q0 -36 -25.5 -74.5t-63.5 -61.5l-11 13q47 43 57 94q-21 2 -34 14.5t-13 30.5q0 17 12.5 29t29.5 12q21 0 34.5 -16t13.5 -41 z"/>
<glyph glyph-name="dagger" horiz-adv-x="455" unicode="†" d="M415 502h-158v-346h-54v346h-160v49h160v182h54v-182h158v-49z"/>
<glyph glyph-name="daggerdbl" horiz-adv-x="455" unicode="‡" d="M417 312h-160v-156h-54v156h-157v48h157v169h-160v49h160v155h54v-155h158v-49h-158v-169h160v-48z"/>
<glyph glyph-name="ellipsis" horiz-adv-x="605" unicode="…" d="M459 36q0 18 13 30.5t31 12.5t31 -12.5t13 -30.5q0 -19 -13 -31.5t-31 -12.5t-31 12.5t-13 31.5zM259 36q0 18 13 30.5t31 12.5t31 -12.5t13 -30.5q0 -19 -13 -31.5t-31 -12.5t-31 12.5t-13 31.5zM59 36q0 18 13 30.5t31 12.5t31 -12.5t13 -30.5q0 -19 -13 -31.5 t-31 -12.5t-31 12.5t-13 31.5z"/>
<glyph glyph-name="perthousand" horiz-adv-x="924" unicode="‰" d="M877 137q0 -61 -33 -103.5t-89 -42.5q-57 0 -89 42t-32 104t32.5 104t89.5 42q56 0 88.5 -42t32.5 -104zM832 137q0 45 -20 75t-57 30q-36 0 -56 -30t-20 -75q0 -44 20 -74t56 -30q37 0 57 30t20 74zM595 137q0 -61 -33 -103.5t-89 -42.5q-57 0 -89 42t-32 104t32.5 104 t89.5 42q56 0 88.5 -42t32.5 -104zM550 137q0 45 -20 75t-57 30q-36 0 -56 -30t-20 -75q0 -44 20 -74t56 -30q37 0 57 30t20 74zM570 566l-466 -582l-32 27l466 582zM291 440q0 -61 -33 -103.5t-90 -42.5q-56 0 -88.5 42.5t-32.5 103.5q0 62 33 104t89 42q57 0 89.5 -42 t32.5 -104zM245 440q0 45 -20 75t-56 30t-56.5 -30t-20.5 -75q0 -44 20.5 -74t56.5 -30t56 30t20 74z"/>
<glyph glyph-name="guilsinglleft" horiz-adv-x="257" unicode="‹" d="M212 9h-58l-105 164l105 163h58l-108 -163z"/>
<glyph glyph-name="guilsinglright" horiz-adv-x="257" unicode="›" d="M208 173l-105 -164h-58l108 164l-108 163h58z"/>
<glyph glyph-name="fraction" horiz-adv-x="549" unicode="⁄" d="M533 565l-482 -582l-35 28l482 581z"/>
<glyph glyph-name="Euro" horiz-adv-x="639" unicode="€" d="M96 331h-68v49h79q28 94 108 150t182 56q101 0 190 -55l-24 -46q-82 51 -170 51q-80 0 -141 -41.5t-86 -114.5h303v-49h-315q-3 -21 -3 -45q0 -23 3 -44h315v-47h-302q25 -73 87.5 -113.5t142.5 -40.5q88 0 171 51l19 -46q-90 -56 -190 -56q-104 0 -183.5 55.5 t-107.5 149.5h-78v47h67q-2 28 -2 44q0 24 3 45z"/>
<glyph glyph-name="trademark" horiz-adv-x="481" unicode="™" d="M193 700h-69v-185h-37v185h-68v33h174v-33zM455 515h-35l-2 135l-70 -107h-4l-71 107l-1 -135h-36l9 221h5l96 -143l95 143h5z"/>
<glyph glyph-name="arrowleft" horiz-adv-x="711" unicode="←" d="M661 241l-534 1l222 -183l-30 -37l-288 239v9l288 239l30 -37l-222 -183l534 1v-49z"/>
<glyph glyph-name="arrowright" horiz-adv-x="711" unicode="→" d="M50 290l534 -1l-222 183l31 37l287 -239v-9l-287 -239l-31 37l222 183l-534 -1v49z"/>
<glyph glyph-name="minus" horiz-adv-x="460" unicode="−" d="M60 256v49h340v-49h-340z"/>
</font>
</defs>
</svg>
