<?xml version="1.0" encoding="UTF-8" standalone="no"?>
<!DOCTYPE svg  PUBLIC '-//W3C//DTD SVG 1.1//EN'  'http://www.w3.org/Graphics/SVG/1.1/DTD/svg11.dtd'>
<svg xmlns="http://www.w3.org/2000/svg">
<defs>
<font id="Verlag-Book" horiz-adv-x="440">
<font-face underline-position="-50" font-weight="325" descent="-200" panose-1="0 0 0 0 0 0 0 0 0 0" units-per-em="1000" unicode-range="U+0020-2212" bbox="-56 -237 1015 969" x-height="420" underline-thickness="50" font-family="Verlag" ascent="800" cap-height="733"/>
<missing-glyph horiz-adv-x="1000"/>
<glyph glyph-name=".notdef" horiz-adv-x="1000"/>
<glyph glyph-name=".null" horiz-adv-x="0"/>
<glyph glyph-name="nonmarkingreturn" horiz-adv-x="1000"/>
<glyph glyph-name="space" horiz-adv-x="225" unicode=" "/>
<glyph glyph-name="exclam" horiz-adv-x="220" unicode="!" d="M162 44q0 -22 -15 -37t-37 -15q-21 0 -36 15t-15 37q0 21 15 36t36 15q22 0 37 -15t15 -36zM154 733l-14 -551h-60l-14 551h88z"/>
<glyph glyph-name="quotedbl" horiz-adv-x="402" unicode='&quot;' d="M372 634l-129 -178l-44 29l94 198zM215 645l-127 -177l-44 29l94 196z"/>
<glyph glyph-name="numbersign" horiz-adv-x="590" unicode="#" d="M374 363h-124l-34 -150h125zM565 427l-14 -64h-106l-34 -150h107l-14 -63h-107l-33 -150h-70l33 150h-125l-33 -150h-71l33 150h-106l14 63h106l33 150h-106l14 64h106l34 149h71l-33 -149h124l34 149h70l-33 -149h106z"/>
<glyph glyph-name="dollar" horiz-adv-x="439" unicode="$" d="M137 429q0 -44 64 -80l13 166q-77 -14 -77 -86zM319 154q0 54 -65 89l-15 -184q37 7 59 31t21 64zM225 651l60 -5l-5 -63q58 -7 108 -41l-36 -63q-36 27 -77 35l-15 -193q72 -33 104 -68t32 -93q0 -68 -47 -116t-115 -54l-5 -65l-60 5l4 62q-71 9 -140 58l40 64 q53 -41 106 -53l16 207q-68 32 -101 66t-33 90q0 62 44 108t114 53z"/>
<glyph glyph-name="percent" horiz-adv-x="666" unicode="%" d="M555 137q0 39 -16 65t-45 25q-29 1 -45 -25t-16 -65t16 -65t45 -25q29 -1 45 25t16 65zM233 439q0 39 -16 65t-45 25q-29 1 -45 -25t-16 -65t16 -65t45 -25q29 -1 45 25t16 65zM616 137q0 -63 -33 -105t-90 -42t-89 42t-32 105t32 105t91 42q57 0 89 -42t32 -105z M595 558l-479 -577l-45 37l479 577zM295 439q0 -63 -33 -105t-91 -42q-57 0 -89 42t-32 105t33 105t90 42q58 0 90 -42t32 -105z"/>
<glyph glyph-name="ampersand" horiz-adv-x="608" unicode="&amp;" d="M365 112q-94 86 -145 152q-42 -16 -68 -46t-25 -67q0 -43 30 -69t78 -26q62 0 130 56zM367 450q-1 30 -21 52t-50 22q-31 0 -54 -26t-23 -63q0 -41 37 -98q111 47 111 113zM513 282l54 -40q-58 -75 -102 -123l98 -82l-46 -53l-103 84q-90 -78 -183 -78q-79 0 -130 42 t-51 120q0 101 134 164q-39 64 -39 115q0 63 47 109t104 46q64 0 102 -40t38 -88q0 -112 -143 -171q48 -59 123 -125q39 41 97 120z"/>
<glyph glyph-name="quotesingle" horiz-adv-x="245" unicode="&apos;" d="M215 645l-127 -177l-44 29l94 196z"/>
<glyph glyph-name="parenleft" horiz-adv-x="344" unicode="(" d="M351 -171l-33 -58q-128 77 -198 209t-70 278q0 147 70 278t198 210l33 -58q-111 -68 -170 -184t-59 -246q0 -131 59 -246t170 -183z"/>
<glyph glyph-name="parenright" horiz-adv-x="344" unicode=")" d="M294 258q0 -146 -70 -278t-198 -209l-33 58q111 68 170 183t59 246q0 130 -59 246t-170 184l33 58q128 -79 198 -210t70 -278z"/>
<glyph glyph-name="asterisk" horiz-adv-x="380" unicode="*" d="M340 604l-109 -30l71 -86l-50 -35l-62 92l-62 -92l-49 35l70 86l-109 30l19 57l106 -39l-6 110h62l-6 -110l106 39z"/>
<glyph glyph-name="plus" horiz-adv-x="460" unicode="+" d="M400 254h-134v-141h-72v141h-134v68h134v141h72v-141h134v-68z"/>
<glyph glyph-name="comma" horiz-adv-x="220" unicode="," d="M164 34q0 -38 -27 -81t-77 -73l-11 16q48 42 64 99q-24 1 -38 15t-14 36q1 20 15 34t34 15q26 1 40 -17t14 -44z"/>
<glyph glyph-name="hyphen" horiz-adv-x="339" unicode="-" d="M289 208h-239v68h239v-68z"/>
<glyph glyph-name="period" horiz-adv-x="220" unicode="." d="M59 44q0 21 15 36t36 15q22 0 37 -15t15 -36q0 -22 -15 -37t-37 -15q-21 0 -36 15t-15 37z"/>
<glyph glyph-name="slash" horiz-adv-x="337" unicode="/" d="M337 733l-238 -949h-71l239 949h70z"/>
<glyph glyph-name="zero" horiz-adv-x="531" unicode="0" d="M407 288q0 100 -36 165t-104 65q-69 0 -105 -65t-36 -165q0 -98 36 -164t105 -66q67 0 103 66t37 164zM489 288q1 -126 -59 -212t-165 -86t-163 86t-58 212t60 212t165 86q104 0 162 -85t58 -213z"/>
<glyph glyph-name="one" horiz-adv-x="341" unicode="1" d="M237 0h-79v485l-101 -37l-24 69l191 72h13v-589z"/>
<glyph glyph-name="two" horiz-adv-x="436" unicode="2" d="M386 0h-364l-5 11q142 152 202 231q40 50 59 88t19 81q0 47 -29 75t-80 27q-68 0 -124 -38l-24 64q71 47 147 47q88 0 140 -46t52 -120q0 -87 -89 -203q-58 -74 -125 -146h221v-71z"/>
<glyph glyph-name="three" horiz-adv-x="422" unicode="3" d="M393 565l-184 -235q82 -11 125 -55t43 -113q0 -74 -53 -123t-142 -49q-69 0 -150 27l22 66q69 -23 124 -23q58 0 90 28t32 77q0 50 -38 77t-114 27q-33 0 -62 -4l-6 9l180 230h-226v72h354z"/>
<glyph glyph-name="four" horiz-adv-x="483" unicode="4" d="M290 244v173l-142 -173h142zM461 173h-96v-175h-75v175h-268v20l323 394h20v-343h96v-71z"/>
<glyph glyph-name="five" horiz-adv-x="457" unicode="5" d="M405 177q0 -79 -53 -133t-142 -54q-76 0 -154 27l21 67q65 -25 126 -25t93 33t32 85q0 47 -34 76t-99 29q-59 0 -106 -12l-9 11v295h298v-72h-224v-152q24 2 44 2q101 0 154 -49t53 -128z"/>
<glyph glyph-name="six" horiz-adv-x="482" unicode="6" d="M357 181q-1 55 -31 91t-82 36q-58 0 -90 -34t-32 -92q0 -52 34 -88t84 -37q52 1 84 37t33 87zM434 192q0 -80 -53 -141t-141 -61t-142 58t-54 148q0 240 316 408l34 -60q-190 -105 -244 -219q44 45 114 45q74 0 122 -52t48 -126z"/>
<glyph glyph-name="seven" horiz-adv-x="424" unicode="7" d="M402 576l-254 -576h-78l227 504h-266v72h371z"/>
<glyph glyph-name="eight" horiz-adv-x="481" unicode="8" d="M343 158q-1 44 -29 74t-74 29q-46 1 -74 -29t-28 -74t28 -74t74 -29q46 -1 74 29t29 74zM334 424q0 41 -26 69t-68 28t-68 -28t-26 -69q0 -40 26 -68t68 -29q42 1 68 29t26 68zM421 156q-1 -70 -51 -118t-130 -48t-130 48t-50 118q0 46 24 82t67 58q-79 43 -79 128 q0 70 47 116t121 46t121 -46t47 -116q0 -84 -78 -128q42 -22 66 -58t25 -82z"/>
<glyph glyph-name="nine" horiz-adv-x="472" unicode="9" d="M353 401q1 51 -31 85t-81 34q-51 0 -83 -34t-32 -85q0 -56 30 -90t81 -34q58 -1 87 33t29 91zM434 382q0 -112 -76 -217t-241 -192l-33 59q181 100 240 215q-37 -34 -98 -34q-74 0 -126 51t-51 125q0 81 54 139t139 58q88 0 140 -58t52 -146z"/>
<glyph glyph-name="colon" horiz-adv-x="220" unicode=":" d="M58 318q0 21 15 36t37 15q21 0 36 -15t15 -36q0 -22 -15 -37t-36 -15q-22 0 -37 15t-15 37zM59 44q0 21 15 36t36 15q22 0 37 -15t15 -36q0 -22 -15 -37t-37 -15q-21 0 -36 15t-15 37z"/>
<glyph glyph-name="semicolon" horiz-adv-x="220" unicode=";" d="M58 318q0 21 15 36t37 15q21 0 36 -15t15 -36q0 -22 -15 -37t-36 -15q-22 0 -37 15t-15 37zM164 34q0 -38 -27 -81t-77 -73l-11 16q48 42 64 99q-24 1 -38 15t-14 36q1 20 15 34t34 15q26 1 40 -17t14 -44z"/>
<glyph glyph-name="less" horiz-adv-x="394" unicode="&lt;" d="M360 93l-47 -48l-275 243l275 244l47 -52l-218 -194z"/>
<glyph glyph-name="equal" horiz-adv-x="413" unicode="=" d="M353 182h-293v68h293v-68zM353 326h-293v68h293v-68z"/>
<glyph glyph-name="greater" horiz-adv-x="394" unicode="&gt;" d="M356 289l-275 -244l-47 52l218 194l-218 193l47 48z"/>
<glyph glyph-name="question" horiz-adv-x="384" unicode="?" d="M192 44q0 -22 -15 -37t-37 -15q-21 0 -36 15t-15 37q0 21 15 36t36 15q22 0 37 -15t15 -36zM361 574q0 -42 -19 -76q-20 -34 -46 -58t-53 -48t-46 -52t-19 -60v-77h-73v98q0 35 18 65t44 53q25 23 51 45t44 50q18 27 18 56q0 94 -120 94q-56 0 -116 -23l-22 72 q78 27 145 27q93 0 143 -46t51 -120z"/>
<glyph glyph-name="at" horiz-adv-x="684" unicode="@" d="M392 218v33q-27 17 -58 17q-21 0 -34 -10t-13 -27q0 -40 50 -40q33 0 55 27zM634 313q0 -101 -67 -149q-30 -22 -68 -22q-59 0 -83 49q-43 -46 -98 -46q-40 0 -66 23t-27 62q0 35 26 57t68 22q40 0 73 -15v11q0 59 -64 59q-29 0 -66 -11l-8 50q42 14 84 14 q119 0 119 -115v-64q0 -24 13 -36t32 -11q20 0 35 10q39 29 39 106q0 39 -13 77t-39 71q-26 35 -74 55q-47 20 -108 20q-96 0 -164 -72t-67 -172q0 -104 70 -174t193 -70q50 0 119 23l14 -53q-82 -24 -137 -24q-144 0 -232 86t-88 212q0 124 86 211t206 87q70 0 128 -24 t92 -64t54 -87q18 -47 18 -96z"/>
<glyph glyph-name="A" horiz-adv-x="681" unicode="A" d="M474 270l-135 315l-135 -315h270zM676 0h-86l-87 203h-328l-87 -203h-83l329 746h13z"/>
<glyph glyph-name="B" horiz-adv-x="557" unicode="B" d="M440 207q0 57 -51 97t-141 40q-62 0 -88 -3v-270q42 -8 108 -8q82 0 127 40t45 104zM422 539q0 61 -42 96t-123 35q-55 0 -97 -8v-253q27 -3 86 -3q90 0 133 38t43 95zM524 199q0 -83 -72 -144t-195 -61q-69 0 -177 12v720q93 12 170 12q123 0 189 -55t66 -133 q0 -62 -29 -104t-100 -67q148 -38 148 -180z"/>
<glyph glyph-name="C" horiz-adv-x="714" unicode="C" d="M686 58q-113 -70 -242 -70q-170 0 -280 106t-109 272q-1 162 111 270t278 109q129 0 242 -70l-33 -68q-109 63 -216 63q-135 0 -215 -86t-80 -218t82 -218t220 -85q108 0 216 63z"/>
<glyph glyph-name="D" horiz-adv-x="745" unicode="D" d="M603 373q0 133 -85 215t-240 82q-76 0 -118 -8v-591q41 -8 128 -8q155 0 235 86t80 224zM690 373q0 -75 -26 -143t-76 -120t-130 -84t-180 -32q-84 0 -198 12v720q96 12 191 12q100 0 181 -30t132 -82q50 -52 78 -116t28 -137z"/>
<glyph glyph-name="E" horiz-adv-x="574" unicode="E" d="M509 0h-429v733h429v-72h-349v-253h314v-72h-314v-264h349v-72z"/>
<glyph glyph-name="F" horiz-adv-x="538" unicode="F" d="M509 661h-349v-267h314v-72h-314v-322h-80v733h429v-72z"/>
<glyph glyph-name="G" horiz-adv-x="775" unicode="G" d="M441 363h274v-289q-116 -86 -268 -86q-158 0 -275 106t-117 272q0 84 33 156q34 72 88 120t122 76t140 27q86 0 148 -22t126 -67l-42 -63q-109 80 -231 80q-137 0 -217 -90t-80 -217q0 -130 89 -218t217 -89q104 0 187 50v179h-194v75z"/>
<glyph glyph-name="H" horiz-adv-x="712" unicode="H" d="M632 0h-80v336h-392v-336h-80v733h80v-325h392v325h80v-733z"/>
<glyph glyph-name="I" horiz-adv-x="250" unicode="I" d="M165 0h-80v733h80v-733z"/>
<glyph glyph-name="J" horiz-adv-x="454" unicode="J" d="M379 733v-515q0 -102 -54 -166t-153 -64q-93 0 -158 52l41 61q54 -40 118 -40q65 1 95 39t31 119v514h80z"/>
<glyph glyph-name="K" horiz-adv-x="599" unicode="K" d="M596 0h-105l-331 360v-360h-80v733h80v-341l319 341h101l-340 -356z"/>
<glyph glyph-name="L" horiz-adv-x="527" unicode="L" d="M509 0h-429v733h80v-661h349v-72z"/>
<glyph glyph-name="M" horiz-adv-x="855" unicode="M" d="M785 0h-81l-11 518l-260 -443h-11l-262 444l-9 -519h-81l28 745l15 2l318 -552l310 552l16 -2z"/>
<glyph glyph-name="N" horiz-adv-x="726" unicode="N" d="M646 -11l-10 -3l-476 570v-556h-80v743l16 4l470 -561v547h80v-744z"/>
<glyph glyph-name="O" horiz-adv-x="841" unicode="O" d="M699 366q-1 131 -79 219t-199 88t-200 -88t-79 -219t79 -219t200 -88t199 88t79 219zM786 366q0 -162 -109 -270t-260 -108t-257 108t-105 270q0 162 109 270t260 109q150 0 256 -108t106 -271z"/>
<glyph glyph-name="P" horiz-adv-x="551" unicode="P" d="M444 499q0 69 -49 118t-135 49q-65 0 -100 -8v-327q50 -6 88 -6q98 0 147 49t49 125zM530 505q0 -112 -77 -181t-210 -69q-33 0 -83 4v-259h-80v726q93 12 168 12q134 0 208 -66t74 -167z"/>
<glyph glyph-name="Q" horiz-adv-x="841" unicode="Q" d="M698 366q0 131 -78 219t-200 88t-200 -88t-78 -219t78 -219t200 -88q93 0 165 56l-33 31l-68 60l-33 30l51 58q137 -122 137 -123q59 85 59 195zM793 34l-51 -59l-101 90q-99 -77 -225 -77q-151 0 -256 108t-105 270q1 162 109 270t259 109q151 0 257 -108t105 -271 q0 -142 -87 -247z"/>
<glyph glyph-name="R" horiz-adv-x="594" unicode="R" d="M446 513q0 67 -48 110t-136 43q-66 0 -101 -8v-298q40 -5 89 -5q100 0 148 42t48 116zM585 0h-97l-195 289q-32 -2 -49 -2q-35 0 -83 2v-289h-80v726q93 12 169 12q138 0 210 -60t72 -160q0 -77 -42 -132t-118 -80z"/>
<glyph glyph-name="S" horiz-adv-x="502" unicode="S" d="M461 198q-1 -90 -65 -150t-159 -60q-108 0 -212 68l39 70q91 -65 177 -65q67 0 103 37t35 91q0 49 -29 83t-116 72q-94 42 -134 88t-40 113q0 82 63 141t161 59q91 0 163 -50l-36 -68q-62 45 -132 45q-67 0 -103 -35t-36 -88q0 -39 30 -71t95 -62q114 -52 155 -98 t41 -120z"/>
<glyph glyph-name="T" horiz-adv-x="619" unicode="T" d="M594 661h-244v-661h-80v661h-245v72h569v-72z"/>
<glyph glyph-name="U" horiz-adv-x="694" unicode="U" d="M623 263q-1 -127 -77 -201t-200 -74q-127 0 -201 72t-74 203v470h80v-464q0 -105 52 -157t143 -52q90 0 144 52t53 157v464h80v-470z"/>
<glyph glyph-name="V" horiz-adv-x="675" unicode="V" d="M670 733l-326 -746h-13l-326 746h90l245 -580l243 580h87z"/>
<glyph glyph-name="W" horiz-adv-x="916" unicode="W" d="M906 733l-202 -745l-16 -2l-232 580l-228 -580l-16 2l-202 745h81l145 -540l217 546h10l218 -543l144 537h81z"/>
<glyph glyph-name="X" horiz-adv-x="668" unicode="X" d="M648 0h-96l-219 309l-220 -309h-93l270 365l-270 368h96l219 -309l220 309h93l-270 -365z"/>
<glyph glyph-name="Y" horiz-adv-x="635" unicode="Y" d="M615 733l-258 -408v-325h-80v326l-257 407h90l210 -340l207 340h88z"/>
<glyph glyph-name="Z" horiz-adv-x="620" unicode="Z" d="M578 721l-415 -649h410v-72h-531l-5 11l415 650h-389v72h510z"/>
<glyph glyph-name="bracketleft" horiz-adv-x="297" unicode="[" d="M273 -216h-193v949h193v-64h-121v-822h121v-63z"/>
<glyph glyph-name="backslash" horiz-adv-x="337" unicode="\" d="M309 -216h-71l-238 949h70z"/>
<glyph glyph-name="bracketright" horiz-adv-x="297" unicode="]" d="M217 -216h-193v63h121v822h-121v64h193v-949z"/>
<glyph glyph-name="asciicircum" d="M369 485h-82l-67 85l-66 -85h-77l133 160h29z" unicode="^"/>
<glyph glyph-name="underscore" horiz-adv-x="520" unicode="_" d="M520 0h-520v68h520v-68z"/>
<glyph glyph-name="grave" d="M342 516l-26 -42l-191 89l42 78z" unicode="`"/>
<glyph glyph-name="a" horiz-adv-x="436" unicode="a" d="M311 107v57q-62 34 -114 34q-41 0 -65 -18t-24 -53t26 -53t71 -19q61 0 106 52zM388 0h-73v44q-54 -52 -130 -52q-65 0 -109 36t-43 99q0 57 43 94t108 37q60 0 127 -28v25q-1 54 -27 79t-83 25q-59 0 -110 -21l-13 68q72 22 133 22q89 0 133 -44t44 -134v-250z"/>
<glyph glyph-name="b" horiz-adv-x="510" unicode="b" d="M392 212q0 64 -37 107t-98 43q-74 0 -122 -50v-199q46 -55 113 -55q64 0 104 44t40 110zM470 213q0 -91 -62 -156t-145 -65q-81 0 -132 49v-41h-75v733h79v-351q55 46 137 46q86 0 142 -60t56 -155z"/>
<glyph glyph-name="c" horiz-adv-x="428" unicode="c" d="M410 35q-68 -43 -143 -43q-99 0 -163 62t-64 154t64 156t163 64q75 0 143 -43l-32 -60q-59 35 -118 35q-64 0 -104 -41t-40 -111q0 -66 44 -107t105 -41q59 0 118 35z"/>
<glyph glyph-name="d" horiz-adv-x="510" unicode="d" d="M375 113v192q-46 57 -122 57q-59 0 -97 -43t-38 -111q0 -66 38 -108t102 -42q70 0 117 55zM454 0h-75v43q-49 -51 -134 -51q-91 0 -148 60t-57 154q0 92 62 157t145 65q76 0 128 -42v347h79v-733z"/>
<glyph glyph-name="e" horiz-adv-x="461" unicode="e" d="M120 246h235q-3 52 -33 84t-83 32q-50 0 -81 -30t-38 -86zM428 226q0 -25 -3 -40h-308q16 -126 157 -126q47 0 116 23l14 -67q-82 -24 -137 -24q-109 0 -168 60t-59 156q0 92 55 156t149 64q88 0 136 -56t48 -146z"/>
<glyph glyph-name="f" horiz-adv-x="295" unicode="f" d="M321 731l-13 -68q-20 5 -39 5q-55 0 -77 -26t-23 -93v-129h124v-68h-124v-352h-78v352h-65v10l65 65v111q0 202 165 202q35 0 65 -9z"/>
<glyph glyph-name="g" horiz-adv-x="510" unicode="g" d="M375 108v197q-20 25 -52 41t-67 16q-62 0 -100 -44t-38 -112q0 -66 38 -108t107 -42q68 0 112 52zM454 -39q0 -93 -47 -139t-131 -46q-63 0 -141 23l11 72q65 -22 118 -22q58 -1 84 25t27 80v82q-52 -44 -130 -44q-91 0 -148 60t-57 154q0 92 62 157t145 65t132 -47v39 h75v-459z"/>
<glyph glyph-name="h" horiz-adv-x="485" unicode="h" d="M433 0h-79v264q0 98 -88 98q-34 0 -70 -20t-61 -48v-294h-79v733h79v-376q69 71 151 71q71 0 109 -39t38 -104v-285z"/>
<glyph glyph-name="i" horiz-adv-x="201" unicode="i" d="M140 0h-79v420h79v-420zM151 565q-1 -20 -15 -35t-35 -15t-35 15t-15 35q1 21 15 36t35 15t35 -15t15 -36z"/>
<glyph glyph-name="j" horiz-adv-x="201" unicode="j" d="M142 420v-512q0 -132 -118 -132q-29 0 -69 8l9 66q19 -3 35 -3q33 0 49 13t15 42v518h79zM153 565q-1 -20 -15 -35t-35 -15t-35 15t-15 35q1 21 15 36t35 15t35 -15t15 -36z"/>
<glyph glyph-name="k" horiz-adv-x="422" unicode="k" d="M421 0h-98l-188 207v-207h-79v733h79v-498l178 185h98l-203 -196z"/>
<glyph glyph-name="l" horiz-adv-x="199" unicode="l" d="M139 0h-79v733h79v-733z"/>
<glyph glyph-name="m" horiz-adv-x="750" unicode="m" d="M698 0h-79v269q0 91 -76 91q-62 0 -126 -67v-293h-79v264q0 50 -18 74t-61 24q-66 0 -124 -71v-291h-79v420h75v-64q76 72 155 72q83 0 114 -78q66 76 167 76q65 0 98 -38t33 -105v-283z"/>
<glyph glyph-name="n" horiz-adv-x="479" unicode="n" d="M427 0h-79v264q0 50 -20 74t-65 24q-66 0 -128 -68v-294h-79v420h75v-64q72 72 155 72q70 0 106 -38t35 -105v-285z"/>
<glyph glyph-name="o" horiz-adv-x="505" unicode="o" d="M387 210q0 70 -37 112t-97 42q-61 0 -98 -42t-37 -112t37 -112t98 -42q60 0 97 42t37 112zM465 210q0 -92 -59 -155t-153 -63q-93 0 -153 63t-60 155t60 155t153 63q94 0 153 -63t59 -155z"/>
<glyph glyph-name="p" horiz-adv-x="510" unicode="p" d="M392 212q0 64 -37 107t-98 43q-73 0 -123 -50v-207q42 -48 121 -48q61 -1 99 43t38 112zM470 213q0 -93 -60 -157t-153 -64q-66 0 -122 31v-239h-79v636h75v-42q57 50 141 50t141 -60t57 -155z"/>
<glyph glyph-name="q" horiz-adv-x="510" unicode="q" d="M375 111v194q-20 25 -52 41t-67 16q-60 0 -99 -44t-39 -110q0 -68 38 -109t111 -41q67 0 108 53zM454 -216h-79v249q-51 -41 -125 -41q-92 0 -151 58t-59 156q0 94 64 158t148 64q75 0 127 -45v37h75v-636z"/>
<glyph glyph-name="r" horiz-adv-x="296" unicode="r" d="M281 351q-102 0 -146 -64v-287h-79v420h75v-70q60 78 150 78v-77z"/>
<glyph glyph-name="s" horiz-adv-x="350" unicode="s" d="M316 124q0 -54 -39 -93t-100 -39q-82 0 -150 55l40 56q52 -47 106 -47q72 0 72 60q0 22 -20 38t-49 28l-58 24q-29 14 -49 38t-20 59q-1 53 39 89t104 36q61 0 122 -40l-35 -59q-50 35 -90 35q-34 0 -51 -15t-17 -39q1 -23 31 -41t66 -30q36 -11 68 -41q30 -30 30 -74z "/>
<glyph glyph-name="t" horiz-adv-x="295" unicode="t" d="M282 352h-124v-236q0 -55 66 -55q14 0 35 3l8 -64q-40 -8 -69 -8q-117 0 -117 132v228h-67v10l67 65v73l77 57v-137h124v-68z"/>
<glyph glyph-name="u" horiz-adv-x="479" unicode="u" d="M423 0h-75v59q-28 -27 -70 -47t-81 -20q-71 0 -108 39t-37 104v285h79v-264q0 -98 88 -98q65 0 125 64v298h79v-420z"/>
<glyph glyph-name="v" horiz-adv-x="435" unicode="v" d="M431 420l-209 -431h-13l-205 431h88l127 -294l127 294h85z"/>
<glyph glyph-name="w" horiz-adv-x="596" unicode="w" d="M592 420l-149 -431h-13l-128 285l-130 -285h-13l-151 431h88l82 -274l116 276h13l124 -276l77 274h84z"/>
<glyph glyph-name="x" horiz-adv-x="417" unicode="x" d="M404 0h-89l-104 152l-107 -152h-85l153 208l-153 212h89l106 -154l105 154h85l-151 -210z"/>
<glyph glyph-name="y" horiz-adv-x="435" unicode="y" d="M431 420l-297 -636h-79l126 256l-177 380h88l128 -301l126 301h85z"/>
<glyph glyph-name="z" horiz-adv-x="405" unicode="z" d="M385 408l-246 -340h241v-68h-357l-5 11l246 341h-227v68h343z"/>
<glyph glyph-name="braceleft" horiz-adv-x="297" unicode="{" d="M279 -223q-169 0 -169 173v212q0 34 -14 50t-48 15h-23v63h23q34 0 48 15t14 50v211q0 174 169 174v-70q-49 0 -73 -23t-24 -77v-199q0 -48 -13 -71t-55 -42q42 -20 55 -42t13 -71v-198q0 -55 24 -78t73 -23v-69z"/>
<glyph glyph-name="bar" horiz-adv-x="248" unicode="|" d="M158 -216h-68v949h68v-949z"/>
<glyph glyph-name="braceright" horiz-adv-x="297" unicode="}" d="M272 227h-23q-35 1 -49 -15t-13 -50v-212q0 -173 -169 -173v69q49 0 73 23t24 78v198q0 49 13 71t55 42q-42 19 -55 42t-13 71v199q0 54 -24 77t-73 23v70q169 0 169 -174v-211q-1 -35 13 -50t49 -15h23v-63z"/>
<glyph glyph-name="asciitilde" d="M367 369q-42 -54 -95 -54q-28 0 -58 19q-26 19 -49 19q-29 0 -58 -37l-36 47q42 54 95 54q28 0 57 -19q28 -19 50 -19q29 0 58 37z" unicode="~"/>
<glyph glyph-name="uni00A0" horiz-adv-x="245" unicode=" "/>
<glyph glyph-name="exclamdown" horiz-adv-x="220" unicode="¡" d="M66 0l14 551h60l14 -551h-88zM58 689q0 22 15 37t37 15q21 0 36 -15t15 -37q0 -21 -15 -36t-36 -15q-22 0 -37 15t-15 36z"/>
<glyph glyph-name="cent" horiz-adv-x="428" unicode="¢" d="M116 208q0 -48 24 -84t65 -53l22 286q-51 -10 -81 -49t-30 -100zM194 -72l5 73q-73 19 -116 77t-43 130q0 84 55 146t137 72l6 71l65 -5l-5 -67q58 -7 112 -40l-32 -60q-44 25 -86 32l-23 -297q53 1 114 35l27 -60q-71 -43 -142 -43h-4l-5 -69z"/>
<glyph glyph-name="sterling" horiz-adv-x="439" unicode="£" d="M429 543l-38 -66q-57 37 -112 37q-99 0 -99 -131v-66h123v-68h-123v-178h245v-71h-390v71h66v178h-66v6l66 68v70q0 85 50 139t139 54q67 0 139 -43z"/>
<glyph glyph-name="yen" horiz-adv-x="503" unicode="¥" d="M478 576l-152 -240h123v-68h-156v-67h156v-65h-156v-136h-79v136h-160v65h160v67h-160v68h126l-155 240h90l140 -225l136 225h87z"/>
<glyph glyph-name="section" horiz-adv-x="447" unicode="§" d="M327 277q0 25 -26 43t-99 39q-27 -3 -44 -18t-17 -35q0 -12 6 -22t21 -17q16 -8 28 -13q12 -4 40 -14t43 -16q21 6 35 20t13 33zM398 288q0 -65 -62 -96q36 -28 36 -73q0 -53 -42 -91t-109 -38q-89 0 -156 54l39 57q23 -21 58 -34t64 -13q73 0 73 54q0 23 -24 39t-58 26 q-34 11 -68 23t-58 36t-24 59q0 68 69 97q-41 27 -41 73q0 49 44 87t109 38q71 0 131 -41l-35 -58q-50 35 -98 35q-34 0 -54 -16t-21 -38q-1 -18 23 -32t57 -26q33 -10 67 -24t56 -39q24 -25 24 -59z"/>
<glyph glyph-name="dieresis" d="M184 544q0 -20 -15 -35t-36 -15q-20 0 -35 15t-15 35q0 21 15 36t35 15q21 0 36 -15t15 -36zM357 544q0 -20 -15 -35t-35 -15q-21 0 -36 15t-15 35q0 21 15 36t36 15q20 0 35 -15t15 -36z" unicode="¨"/>
<glyph glyph-name="copyright" horiz-adv-x="842" unicode="©" d="M559 215q-55 -34 -120 -34q-87 0 -143 53t-55 136q0 81 56 135t142 54q61 0 118 -33l-21 -53q-51 28 -98 28q-60 0 -94 -36t-35 -95q-1 -58 35 -94t96 -37q50 0 99 29zM725 366q0 132 -89 226t-215 94t-215 -94t-89 -226t89 -226t215 -93q126 -1 215 93t89 226zM792 366 q0 -158 -108 -268t-263 -110t-263 110t-108 268q0 157 108 268t263 111t263 -111t108 -268z"/>
<glyph glyph-name="ordfeminine" horiz-adv-x="342" unicode="ª" d="M230 508v39q-37 22 -72 22q-56 0 -56 -45q0 -47 60 -47q39 0 68 31zM304 429h-72v31q-36 -36 -91 -36q-47 0 -79 26t-31 71q0 41 31 69t80 28q43 0 88 -20v15q0 71 -77 71q-38 0 -78 -14l-10 59q52 16 99 16q140 0 140 -135v-181z"/>
<glyph glyph-name="guillemotleft" horiz-adv-x="423" unicode="«" d="M233 9h-79l-105 164l105 163h79l-110 -163zM378 9h-79l-105 164l105 163h79l-110 -163z"/>
<glyph glyph-name="registered" horiz-adv-x="386" unicode="®" d="M170 630v-56q7 -1 16 -1q36 0 36 31q0 27 -34 27q-13 0 -18 -1zM138 488v168q21 3 47 3q35 0 53 -15t18 -39q0 -38 -32 -50l44 -67h-37l-37 60q-5 -1 -11 -1l-13 1v-60h-32zM193 426q57 0 98 43t41 102q0 60 -40 103t-99 43q-57 0 -98 -43t-41 -103q0 -59 41 -102t98 -43 zM193 398q-70 0 -120 51t-50 122q0 72 50 123t120 51t120 -51t50 -123q0 -71 -50 -122t-120 -51z"/>
<glyph glyph-name="macron" d="M364 501h-287v67h287v-67z" unicode="¯"/>
<glyph glyph-name="degree" d="M273 583q-1 27 -15 43t-38 16t-38 -16t-15 -43q1 -27 15 -43t38 -16t38 16t15 43zM329 582q-1 -46 -31 -75t-78 -29t-78 29t-31 75q1 46 31 76t78 30t78 -30t31 -76z" unicode="°"/>
<glyph glyph-name="acute" d="M324 563l-191 -89l-23 44l175 125z" unicode="´"/>
<glyph glyph-name="paragraph" horiz-adv-x="592" unicode="¶" d="M308 232v278q-80 -7 -122 -47t-43 -103q1 -66 49 -100q41 -29 96 -29q10 0 20 1zM517 0h-72v506q-17 3 -65 5v-511h-72v159q-11 -1 -21 -1q-91 0 -157 48q-72 52 -73 150q0 104 82 167t219 63q63 0 159 -12v-574z"/>
<glyph glyph-name="periodcentered" horiz-adv-x="300" unicode="·" d="M99 366q0 21 15 36t36 15q22 0 37 -15t15 -36q0 -22 -15 -37t-37 -15q-21 0 -36 15t-15 37z"/>
<glyph glyph-name="cedilla" d="M339 -146q1 -39 -25 -65t-74 -26q-49 0 -108 34l23 46q45 -27 85 -27q18 0 28 10t11 26q-1 20 -23 34t-70 18l-4 8l27 102l46 -12l-14 -53q98 -22 98 -95z" unicode="¸"/>
<glyph glyph-name="ordmasculine" horiz-adv-x="361" unicode="º" d="M267 584q1 46 -23 74t-64 27q-40 0 -63 -27t-23 -74q0 -46 23 -73t63 -27t64 27t23 73zM341 584q-1 -68 -45 -114t-116 -46t-116 46t-44 114t44 114t116 47q72 -1 116 -47t45 -114z"/>
<glyph glyph-name="guillemotright" horiz-adv-x="423" unicode="»" d="M229 173l-105 -164h-79l110 164l-110 163h79zM374 173l-105 -164h-79l110 164l-110 163h79z"/>
<glyph glyph-name="questiondown" horiz-adv-x="384" unicode="¿" d="M23 159q0 41 19 75q20 34 46 60q26 24 53 48t46 52t19 59v77h73v-98q0 -34 -18 -64q-17 -30 -43 -54t-52 -46t-44 -49t-18 -56q0 -94 120 -94q56 0 116 23l22 -72q-78 -27 -145 -27q-93 1 -143 47t-51 119zM192 689q0 22 15 37t37 15q21 0 36 -15t15 -37q0 -21 -15 -36 t-36 -15q-22 0 -37 15t-15 36z"/>
<glyph glyph-name="Agrave" horiz-adv-x="681" unicode="À" d="M397 836l-26 -42l-191 89l42 78zM474 270l-135 315l-135 -315h270zM676 0h-86l-87 203h-328l-87 -203h-83l329 746h13z"/>
<glyph glyph-name="Aacute" horiz-adv-x="681" unicode="Á" d="M498 883l-191 -89l-23 44l175 125zM474 270l-135 315l-135 -315h270zM676 0h-86l-87 203h-328l-87 -203h-83l329 746h13z"/>
<glyph glyph-name="Acircumflex" horiz-adv-x="681" unicode="Â" d="M486 809h-82l-67 85l-66 -85h-77l133 160h29zM474 270l-135 315l-135 -315h270zM676 0h-86l-87 203h-328l-87 -203h-83l329 746h13z"/>
<glyph glyph-name="Atilde" horiz-adv-x="681" unicode="Ã" d="M491 864q-42 -54 -95 -54q-28 0 -58 19q-26 19 -49 19q-29 0 -58 -37l-36 47q42 54 95 54q28 0 57 -19q28 -19 50 -19q29 0 58 37zM474 270l-135 315l-135 -315h270zM676 0h-86l-87 203h-328l-87 -203h-83l329 746h13z"/>
<glyph glyph-name="Adieresis" horiz-adv-x="681" unicode="Ä" d="M304 864q0 -20 -15 -35t-36 -15q-20 0 -35 15t-15 35q0 21 15 36t35 15q21 0 36 -15t15 -36zM477 864q0 -20 -15 -35t-35 -15q-21 0 -36 15t-15 35q0 21 15 36t36 15q20 0 35 -15t15 -36zM474 270l-135 315l-135 -315h270zM676 0h-86l-87 203h-328l-87 -203h-83l329 746 h13z"/>
<glyph glyph-name="Aring" horiz-adv-x="681" unicode="Å" d="M392 810q0 25 -14 41t-37 16t-37 -16t-14 -41t14 -41t37 -16t37 16t14 41zM474 270l-135 315l-135 -315h270zM447 809q-1 -39 -23 -67t-61 -34l313 -708h-86l-87 203h-328l-87 -203h-83l312 709q-38 7 -60 35t-22 65q0 43 29 73t77 30t77 -30t29 -73z"/>
<glyph glyph-name="AE" horiz-adv-x="1020" unicode="Æ" d="M526 303v309l-219 -309h219zM955 0h-429v236h-267l-167 -236h-92l526 733h429v-72h-349v-253h314v-72h-314v-264h349v-72z"/>
<glyph glyph-name="Ccedilla" horiz-adv-x="714" unicode="Ç" d="M543 -146q1 -39 -25 -65t-74 -26q-49 0 -108 34l23 46q45 -27 85 -27q18 0 28 10t11 26q-1 20 -23 34t-70 18l-4 8l20 78q-155 12 -253 116t-98 260q-1 162 111 270t278 109q129 0 242 -70l-33 -68q-109 63 -216 63q-135 0 -215 -86t-80 -218t82 -218t220 -85 q108 0 216 63l26 -68q-106 -66 -231 -70l-10 -39q98 -22 98 -95z"/>
<glyph glyph-name="Egrave" horiz-adv-x="574" unicode="È" d="M354 836l-26 -42l-191 89l42 78zM509 0h-429v733h429v-72h-349v-253h314v-72h-314v-264h349v-72z"/>
<glyph glyph-name="Eacute" horiz-adv-x="574" unicode="É" d="M455 883l-191 -89l-23 44l175 125zM509 0h-429v733h429v-72h-349v-253h314v-72h-314v-264h349v-72z"/>
<glyph glyph-name="Ecircumflex" horiz-adv-x="574" unicode="Ê" d="M443 809h-82l-67 85l-66 -85h-77l133 160h29zM509 0h-429v733h429v-72h-349v-253h314v-72h-314v-264h349v-72z"/>
<glyph glyph-name="Edieresis" horiz-adv-x="574" unicode="Ë" d="M261 864q0 -20 -15 -35t-36 -15q-20 0 -35 15t-15 35q0 21 15 36t35 15q21 0 36 -15t15 -36zM434 864q0 -20 -15 -35t-35 -15q-21 0 -36 15t-15 35q0 21 15 36t36 15q20 0 35 -15t15 -36zM509 0h-429v733h429v-72h-349v-253h314v-72h-314v-264h349v-72z"/>
<glyph glyph-name="Igrave" horiz-adv-x="249" unicode="Ì" d="M181 836l-26 -42l-191 89l42 78zM165 0h-80v733h80v-733z"/>
<glyph glyph-name="Iacute" horiz-adv-x="249" unicode="Í" d="M282 883l-191 -89l-23 44l175 125zM165 0h-80v733h80v-733z"/>
<glyph glyph-name="Icircumflex" horiz-adv-x="249" unicode="Î" d="M270 809h-82l-67 85l-66 -85h-77l133 160h29zM165 0h-80v733h80v-733z"/>
<glyph glyph-name="Idieresis" horiz-adv-x="249" unicode="Ï" d="M88 864q0 -20 -15 -35t-36 -15q-20 0 -35 15t-15 35q0 21 15 36t35 15q21 0 36 -15t15 -36zM261 864q0 -20 -15 -35t-35 -15q-21 0 -36 15t-15 35q0 21 15 36t36 15q20 0 35 -15t15 -36zM165 0h-80v733h80v-733z"/>
<glyph glyph-name="Eth" horiz-adv-x="765" unicode="Ð" d="M623 373q-1 133 -85 215t-239 82q-77 0 -119 -8v-254h109v-72h-109v-265q41 -8 129 -8q155 0 235 86t79 224zM710 373q0 -75 -26 -143t-76 -120t-130 -84t-180 -32q-84 0 -198 12v330h-90v72h90v318q96 12 191 12q100 0 181 -30t132 -82q50 -52 78 -116t28 -137z"/>
<glyph glyph-name="Ntilde" horiz-adv-x="726" unicode="Ñ" d="M514 849q-42 -54 -95 -54q-28 0 -58 19q-26 19 -49 19q-29 0 -58 -37l-36 47q42 54 95 54q29 0 57 -19t50 -19q29 0 58 37zM646 -11l-10 -3l-476 570v-556h-80v743l16 4l470 -561v547h80v-744z"/>
<glyph glyph-name="Ograve" horiz-adv-x="841" unicode="Ò" d="M477 836l-26 -42l-191 89l42 78zM699 366q-1 131 -79 219t-199 88t-200 -88t-79 -219t79 -219t200 -88t199 88t79 219zM786 366q0 -162 -109 -270t-260 -108t-257 108t-105 270q0 162 109 270t260 109q150 0 256 -108t106 -271z"/>
<glyph glyph-name="Oacute" horiz-adv-x="841" unicode="Ó" d="M578 883l-191 -89l-23 44l175 125zM699 366q-1 131 -79 219t-199 88t-200 -88t-79 -219t79 -219t200 -88t199 88t79 219zM786 366q0 -162 -109 -270t-260 -108t-257 108t-105 270q0 162 109 270t260 109q150 0 256 -108t106 -271z"/>
<glyph glyph-name="Ocircumflex" horiz-adv-x="841" unicode="Ô" d="M566 809h-82l-67 85l-66 -85h-77l133 160h29zM699 366q-1 131 -79 219t-199 88t-200 -88t-79 -219t79 -219t200 -88t199 88t79 219zM786 366q0 -162 -109 -270t-260 -108t-257 108t-105 270q0 162 109 270t260 109q150 0 256 -108t106 -271z"/>
<glyph glyph-name="Otilde" horiz-adv-x="841" unicode="Õ" d="M571 864q-42 -54 -95 -54q-28 0 -58 19q-26 19 -49 19q-29 0 -58 -37l-36 47q42 54 95 54q29 0 57 -19t50 -19q29 0 58 37zM699 366q-1 131 -79 219t-199 88t-200 -88t-79 -219t79 -219t200 -88t199 88t79 219zM786 366q0 -162 -109 -270t-260 -108t-257 108t-105 270 q0 162 109 270t260 109q150 0 256 -108t106 -271z"/>
<glyph glyph-name="Odieresis" horiz-adv-x="841" unicode="Ö" d="M384 864q0 -20 -15 -35t-36 -15q-20 0 -35 15t-15 35q0 21 15 36t35 15q21 0 36 -15t15 -36zM557 864q0 -20 -15 -35t-35 -15q-21 0 -36 15t-15 35q0 21 15 36t36 15q20 0 35 -15t15 -36zM699 366q-1 131 -79 219t-199 88t-200 -88t-79 -219t79 -219t200 -88t199 88 t79 219zM786 366q0 -162 -109 -270t-260 -108t-257 108t-105 270q0 162 109 270t260 109q150 0 256 -108t106 -271z"/>
<glyph glyph-name="multiply" d="M60 400l48 48l112 -112l112 112l48 -48l-112 -112l112 -112l-48 -48l-112 112l-112 -112l-48 48l112 112z" unicode="×"/>
<glyph glyph-name="Oslash" horiz-adv-x="841" unicode="Ø" d="M699 366q0 106 -53 185q-406 -423 -406 -424q76 -68 181 -68q121 0 199 88t79 219zM601 604q-75 69 -180 69q-121 0 -200 -88t-79 -219q0 -106 53 -185zM786 366q0 -162 -109 -270t-260 -108q-131 0 -231 84l-74 -78l-49 50l13 13t24 25t26 28l11 11q-82 105 -82 245 q0 162 109 270t260 109q132 0 231 -85l74 78l49 -49l-75 -78q83 -104 83 -245z"/>
<glyph glyph-name="Ugrave" horiz-adv-x="694" unicode="Ù" d="M405 821l-26 -42l-191 89l42 78zM623 263q-1 -127 -77 -201t-200 -74q-127 0 -201 72t-74 203v470h80v-464q0 -105 52 -157t143 -52q90 0 144 52t53 157v464h80v-470z"/>
<glyph glyph-name="Uacute" horiz-adv-x="694" unicode="Ú" d="M506 868l-191 -89l-23 44l175 125zM623 263q-1 -127 -77 -201t-200 -74q-127 0 -201 72t-74 203v470h80v-464q0 -105 52 -157t143 -52q90 0 144 52t53 157v464h80v-470z"/>
<glyph glyph-name="Ucircumflex" horiz-adv-x="694" unicode="Û" d="M494 794h-82l-67 85l-66 -85h-77l133 160h29zM623 263q-1 -127 -77 -201t-200 -74q-127 0 -201 72t-74 203v470h80v-464q0 -105 52 -157t143 -52q90 0 144 52t53 157v464h80v-470z"/>
<glyph glyph-name="Udieresis" horiz-adv-x="694" unicode="Ü" d="M312 849q0 -20 -15 -35t-36 -15q-20 0 -35 15t-15 35q0 21 15 36t35 15q21 0 36 -15t15 -36zM485 849q0 -20 -15 -35t-35 -15q-21 0 -36 15t-15 35q0 21 15 36t36 15q20 0 35 -15t15 -36zM623 263q-1 -127 -77 -201t-200 -74q-127 0 -201 72t-74 203v470h80v-464 q0 -105 52 -157t143 -52q90 0 144 52t53 157v464h80v-470z"/>
<glyph glyph-name="Yacute" horiz-adv-x="635" unicode="Ý" d="M475 868l-191 -89l-23 44l175 125zM615 733l-258 -408v-325h-80v326l-257 407h90l210 -340l207 340h88z"/>
<glyph glyph-name="Thorn" horiz-adv-x="551" unicode="Þ" d="M444 370q0 69 -49 118t-135 49q-65 0 -100 -8v-327q50 -6 88 -6q98 0 147 49t49 125zM530 376q0 -112 -77 -182t-210 -70q-33 0 -83 4v-128h-80v733h80v-126q39 4 88 4q134 1 208 -67t74 -168z"/>
<glyph glyph-name="germandbls" horiz-adv-x="489" unicode="ß" d="M471 408l-137 -185q125 -23 125 -146q1 -87 -57 -129t-146 -42q-27 0 -60 5l10 68q24 -4 49 -4q61 0 94 25t33 73q0 41 -29 66t-90 25q-23 0 -36 -2l-6 14l125 176h-203v-352h-78v538q0 202 165 202q35 0 65 -9l-13 -68q-20 5 -39 5q-55 0 -77 -26t-23 -93v-129h323z"/>
<glyph glyph-name="agrave" horiz-adv-x="436" unicode="à" d="M282 516l-26 -42l-191 89l42 78zM311 107v57q-62 34 -114 34q-41 0 -65 -18t-24 -53t26 -53t71 -19q61 0 106 52zM388 0h-73v44q-54 -52 -130 -52q-65 0 -109 36t-43 99q0 57 43 94t108 37q60 0 127 -28v25q-1 54 -27 79t-83 25q-59 0 -110 -21l-13 68q72 22 133 22 q89 0 133 -44t44 -134v-250z"/>
<glyph glyph-name="aacute" horiz-adv-x="436" unicode="á" d="M383 563l-191 -89l-23 44l175 125zM311 107v57q-62 34 -114 34q-41 0 -65 -18t-24 -53t26 -53t71 -19q61 0 106 52zM388 0h-73v44q-54 -52 -130 -52q-65 0 -109 36t-43 99q0 57 43 94t108 37q60 0 127 -28v25q-1 54 -27 79t-83 25q-59 0 -110 -21l-13 68q72 22 133 22 q89 0 133 -44t44 -134v-250z"/>
<glyph glyph-name="acircumflex" horiz-adv-x="436" unicode="â" d="M371 489h-82l-67 85l-66 -85h-77l133 160h29zM311 107v57q-62 34 -114 34q-41 0 -65 -18t-24 -53t26 -53t71 -19q61 0 106 52zM388 0h-73v44q-54 -52 -130 -52q-65 0 -109 36t-43 99q0 57 43 94t108 37q60 0 127 -28v25q-1 54 -27 79t-83 25q-59 0 -110 -21l-13 68 q72 22 133 22q89 0 133 -44t44 -134v-250z"/>
<glyph glyph-name="atilde" horiz-adv-x="436" unicode="ã" d="M376 544q-42 -54 -95 -54q-28 0 -58 19q-26 19 -49 19q-29 0 -58 -37l-36 47q42 54 95 54q29 0 57 -19t50 -19q29 0 58 37zM311 107v57q-62 34 -114 34q-41 0 -65 -18t-24 -53t26 -53t71 -19q61 0 106 52zM388 0h-73v44q-54 -52 -130 -52q-65 0 -109 36t-43 99 q0 57 43 94t108 37q60 0 127 -28v25q-1 54 -27 79t-83 25q-59 0 -110 -21l-13 68q72 22 133 22q89 0 133 -44t44 -134v-250z"/>
<glyph glyph-name="adieresis" horiz-adv-x="436" unicode="ä" d="M189 544q0 -20 -15 -35t-36 -15q-20 0 -35 15t-15 35q0 21 15 36t35 15q21 0 36 -15t15 -36zM362 544q0 -20 -15 -35t-35 -15q-21 0 -36 15t-15 35q0 21 15 36t36 15q20 0 35 -15t15 -36zM311 107v57q-62 34 -114 34q-41 0 -65 -18t-24 -53t26 -53t71 -19q61 0 106 52z M388 0h-73v44q-54 -52 -130 -52q-65 0 -109 36t-43 99q0 57 43 94t108 37q60 0 127 -28v25q-1 54 -27 79t-83 25q-59 0 -110 -21l-13 68q72 22 133 22q89 0 133 -44t44 -134v-250z"/>
<glyph glyph-name="aring" horiz-adv-x="436" unicode="å" d="M276 588q0 25 -14 41t-37 16t-37 -16t-14 -41t14 -41t37 -16t37 16t14 41zM331 587q0 -44 -29 -73t-77 -29t-77 29t-29 73q0 43 29 73t77 30t77 -30t29 -73zM311 107v57q-62 34 -114 34q-41 0 -65 -18t-24 -53t26 -53t71 -19q61 0 106 52zM388 0h-73v44q-54 -52 -130 -52 q-65 0 -109 36t-43 99q0 57 43 94t108 37q60 0 127 -28v25q-1 54 -27 79t-83 25q-59 0 -110 -21l-13 68q72 22 133 22q89 0 133 -44t44 -134v-250z"/>
<glyph glyph-name="ae" horiz-adv-x="732" unicode="æ" d="M317 152q-19 20 -53 33t-67 13q-41 0 -65 -18t-24 -53t26 -53t71 -19q35 0 67 24t45 73zM626 246q-4 52 -34 84t-83 32q-51 0 -81 -30t-37 -86h235zM311 229v26q0 54 -26 79t-84 25q-57 0 -110 -21l-13 68q72 22 134 22q114 0 149 -75q55 75 154 75q86 0 135 -57t49 -145 q0 -18 -3 -40h-308q14 -126 157 -126q48 0 115 23l14 -67q-81 -24 -136 -24q-126 0 -184 84q-59 -84 -169 -84q-64 0 -108 36t-44 99q0 57 43 94t107 37t128 -29z"/>
<glyph glyph-name="ccedilla" horiz-adv-x="428" unicode="ç" d="M345 -146q1 -39 -25 -65t-74 -26q-49 0 -108 34l23 46q45 -27 85 -27q18 0 28 10t11 26q-1 20 -23 34t-70 18l-4 8l22 86q-76 16 -123 74t-47 136q0 92 64 156t163 64q75 0 143 -43l-32 -60q-59 35 -118 35q-64 0 -104 -41t-40 -111q0 -66 44 -107t105 -41q59 0 118 35 l27 -60q-68 -43 -143 -43h-9l-11 -43q98 -22 98 -95z"/>
<glyph glyph-name="egrave" horiz-adv-x="461" unicode="è" d="M299 516l-26 -42l-191 89l42 78zM120 246h235q-3 52 -33 84t-83 32q-50 0 -81 -30t-38 -86zM428 226q0 -25 -3 -40h-308q16 -126 157 -126q47 0 116 23l14 -67q-82 -24 -137 -24q-109 0 -168 60t-59 156q0 92 55 156t149 64q88 0 136 -56t48 -146z"/>
<glyph glyph-name="eacute" horiz-adv-x="461" unicode="é" d="M400 563l-191 -89l-23 44l175 125zM120 246h235q-3 52 -33 84t-83 32q-50 0 -81 -30t-38 -86zM428 226q0 -25 -3 -40h-308q16 -126 157 -126q47 0 116 23l14 -67q-82 -24 -137 -24q-109 0 -168 60t-59 156q0 92 55 156t149 64q88 0 136 -56t48 -146z"/>
<glyph glyph-name="ecircumflex" horiz-adv-x="461" unicode="ê" d="M388 489h-82l-67 85l-66 -85h-77l133 160h29zM120 246h235q-3 52 -33 84t-83 32q-50 0 -81 -30t-38 -86zM428 226q0 -25 -3 -40h-308q16 -126 157 -126q47 0 116 23l14 -67q-82 -24 -137 -24q-109 0 -168 60t-59 156q0 92 55 156t149 64q88 0 136 -56t48 -146z"/>
<glyph glyph-name="edieresis" horiz-adv-x="461" unicode="ë" d="M206 544q0 -20 -15 -35t-36 -15q-20 0 -35 15t-15 35q0 21 15 36t35 15q21 0 36 -15t15 -36zM379 544q0 -20 -15 -35t-35 -15q-21 0 -36 15t-15 35q0 21 15 36t36 15q20 0 35 -15t15 -36zM120 246h235q-3 52 -33 84t-83 32q-50 0 -81 -30t-38 -86zM428 226q0 -25 -3 -40 h-308q16 -126 157 -126q47 0 116 23l14 -67q-82 -24 -137 -24q-109 0 -168 60t-59 156q0 92 55 156t149 64q88 0 136 -56t48 -146z"/>
<glyph glyph-name="igrave" horiz-adv-x="208" unicode="ì" d="M161 516l-26 -42l-191 89l42 78zM144 0h-79v420h79v-420z"/>
<glyph glyph-name="iacute" horiz-adv-x="208" unicode="í" d="M262 563l-191 -89l-23 44l175 125zM144 0h-79v420h79v-420z"/>
<glyph glyph-name="icircumflex" horiz-adv-x="208" unicode="î" d="M250 489h-82l-67 85l-66 -85h-77l133 160h29zM144 0h-79v420h79v-420z"/>
<glyph glyph-name="idieresis" horiz-adv-x="208" unicode="ï" d="M68 544q0 -20 -15 -35t-36 -15q-20 0 -35 15t-15 35q0 21 15 36t35 15q21 0 36 -15t15 -36zM241 544q0 -20 -15 -35t-35 -15q-21 0 -36 15t-15 35q0 21 15 36t36 15q20 0 35 -15t15 -36zM144 0h-79v420h79v-420z"/>
<glyph glyph-name="eth" horiz-adv-x="506" unicode="ð" d="M389 212q-1 66 -39 109t-101 43q-59 0 -95 -41t-37 -109q-1 -64 37 -110t98 -47q62 0 100 44t37 111zM151 506l-40 47l72 64q-43 31 -104 59l32 59q68 -31 124 -71l66 60l40 -48l-57 -51q182 -157 182 -394q0 -107 -60 -173t-154 -66q-102 0 -157 64t-55 163q0 90 55 150 t137 60q87 0 141 -60q-32 113 -141 209z"/>
<glyph glyph-name="ntilde" horiz-adv-x="479" unicode="ñ" d="M392 544q-42 -54 -95 -54q-28 0 -58 19q-26 19 -49 19q-29 0 -58 -37l-36 47q42 54 95 54q29 0 57 -19t50 -19q29 0 58 37zM427 0h-79v264q0 50 -20 74t-65 24q-66 0 -128 -68v-294h-79v420h75v-64q72 72 155 72q70 0 106 -38t35 -105v-285z"/>
<glyph glyph-name="ograve" horiz-adv-x="505" unicode="ò" d="M309 516l-26 -42l-191 89l42 78zM387 210q0 70 -37 112t-97 42q-61 0 -98 -42t-37 -112t37 -112t98 -42q60 0 97 42t37 112zM465 210q0 -92 -59 -155t-153 -63q-93 0 -153 63t-60 155t60 155t153 63q94 0 153 -63t59 -155z"/>
<glyph glyph-name="oacute" horiz-adv-x="505" unicode="ó" d="M410 563l-191 -89l-23 44l175 125zM387 210q0 70 -37 112t-97 42q-61 0 -98 -42t-37 -112t37 -112t98 -42q60 0 97 42t37 112zM465 210q0 -92 -59 -155t-153 -63q-93 0 -153 63t-60 155t60 155t153 63q94 0 153 -63t59 -155z"/>
<glyph glyph-name="ocircumflex" horiz-adv-x="505" unicode="ô" d="M398 489h-82l-67 85l-66 -85h-77l133 160h29zM387 210q0 70 -37 112t-97 42q-61 0 -98 -42t-37 -112t37 -112t98 -42q60 0 97 42t37 112zM465 210q0 -92 -59 -155t-153 -63q-93 0 -153 63t-60 155t60 155t153 63q94 0 153 -63t59 -155z"/>
<glyph glyph-name="otilde" horiz-adv-x="505" unicode="õ" d="M403 544q-42 -54 -95 -54q-28 0 -58 19q-26 19 -49 19q-29 0 -58 -37l-36 47q42 54 95 54q28 0 57 -19q28 -19 50 -19q29 0 58 37zM387 210q0 70 -37 112t-97 42q-61 0 -98 -42t-37 -112t37 -112t98 -42q60 0 97 42t37 112zM465 210q0 -92 -59 -155t-153 -63 q-93 0 -153 63t-60 155t60 155t153 63q94 0 153 -63t59 -155z"/>
<glyph glyph-name="odieresis" horiz-adv-x="505" unicode="ö" d="M216 544q0 -20 -15 -35t-36 -15q-20 0 -35 15t-15 35q0 21 15 36t35 15q21 0 36 -15t15 -36zM389 544q0 -20 -15 -35t-35 -15q-21 0 -36 15t-15 35q0 21 15 36t36 15q20 0 35 -15t15 -36zM387 210q0 70 -37 112t-97 42q-61 0 -98 -42t-37 -112t37 -112t98 -42q60 0 97 42 t37 112zM465 210q0 -92 -59 -155t-153 -63q-93 0 -153 63t-60 155t60 155t153 63q94 0 153 -63t59 -155z"/>
<glyph glyph-name="divide" horiz-adv-x="460" unicode="÷" d="M180 151q0 21 14 36t36 15t36 -15t14 -36q0 -20 -14 -35t-36 -15t-36 15t-14 35zM180 424q0 21 14 36t36 15t36 -15t14 -36q0 -20 -14 -35t-36 -15t-36 15t-14 35zM60 254v68h340v-68h-340z"/>
<glyph glyph-name="oslash" horiz-adv-x="505" unicode="ø" d="M374 286l-209 -200q35 -30 88 -30q63 0 99 41t36 113q0 42 -14 76zM132 130l211 201q-34 33 -90 33q-63 0 -99 -41t-37 -113q0 -46 15 -80zM477 384l-49 -46q37 -55 37 -128q0 -94 -59 -156t-153 -62q-81 0 -137 47l-49 -47l-39 39l51 48q-39 58 -39 131q0 94 60 156 t153 62q84 0 139 -50l47 45z"/>
<glyph glyph-name="ugrave" horiz-adv-x="479" unicode="ù" d="M294 516l-26 -42l-191 89l42 78zM423 0h-75v59q-28 -27 -70 -47t-81 -20q-71 0 -108 39t-37 104v285h79v-264q0 -98 88 -98q65 0 125 64v298h79v-420z"/>
<glyph glyph-name="uacute" horiz-adv-x="479" unicode="ú" d="M395 563l-191 -89l-23 44l175 125zM423 0h-75v59q-28 -27 -70 -47t-81 -20q-71 0 -108 39t-37 104v285h79v-264q0 -98 88 -98q65 0 125 64v298h79v-420z"/>
<glyph glyph-name="ucircumflex" horiz-adv-x="479" unicode="û" d="M383 489h-82l-67 85l-66 -85h-77l133 160h29zM423 0h-75v59q-28 -27 -70 -47t-81 -20q-71 0 -108 39t-37 104v285h79v-264q0 -98 88 -98q65 0 125 64v298h79v-420z"/>
<glyph glyph-name="udieresis" horiz-adv-x="479" unicode="ü" d="M201 544q0 -20 -15 -35t-36 -15q-20 0 -35 15t-15 35q0 21 15 36t35 15q21 0 36 -15t15 -36zM374 544q0 -20 -15 -35t-35 -15q-21 0 -36 15t-15 35q0 21 15 36t36 15q20 0 35 -15t15 -36zM423 0h-75v59q-28 -27 -70 -47t-81 -20q-71 0 -108 39t-37 104v285h79v-264 q0 -98 88 -98q65 0 125 64v298h79v-420z"/>
<glyph glyph-name="yacute" horiz-adv-x="435" unicode="ý" d="M375 563l-191 -89l-23 44l175 125zM431 420l-297 -636h-79l126 256l-177 380h88l128 -301l126 301h85z"/>
<glyph glyph-name="thorn" horiz-adv-x="510" unicode="þ" d="M392 212q0 64 -37 107t-98 43q-73 0 -123 -50v-207q42 -48 121 -48q61 -1 99 43t38 112zM470 213q0 -93 -60 -157t-153 -64q-66 0 -122 31v-239h-79v949h75v-355q57 50 141 50t141 -60t57 -155z"/>
<glyph glyph-name="OE" horiz-adv-x="1080" unicode="Œ" d="M586 71v591q-41 8 -129 8q-155 0 -235 -86t-80 -225q0 -132 85 -214t240 -82q77 0 119 8zM1015 0h-415q-78 -6 -126 -6q-100 0 -181 30t-132 82t-79 116t-27 137q1 76 27 143q26 66 76 120t129 85q80 31 180 31q61 0 126 -5h422v-72h-349v-253h314v-72h-314v-264h349v-72 z"/>
<glyph glyph-name="oe" horiz-adv-x="805" unicode="œ" d="M387 210q0 70 -37 112t-97 42q-61 0 -98 -42t-37 -112t37 -112t98 -42q60 0 97 42t37 112zM701 246q-3 52 -33 84t-84 32q-50 0 -80 -30t-38 -86h235zM774 226q0 -18 -3 -40h-308q14 -126 156 -126q47 0 116 23l14 -67q-81 -24 -136 -24q-132 0 -190 91q-58 -91 -170 -91 q-93 0 -153 63t-60 155t60 155t153 63q113 0 171 -92q55 92 166 92q86 0 135 -57t49 -145z"/>
<glyph glyph-name="Scaron" horiz-adv-x="502" unicode="Š" d="M413 958l-134 -161h-28l-130 161h81l67 -86l66 86h78zM461 198q-1 -90 -65 -150t-159 -60q-108 0 -212 68l39 70q91 -65 177 -65q67 0 103 37t35 91q0 49 -29 83t-116 72q-94 42 -134 88t-40 113q0 82 63 141t161 59q91 0 163 -50l-36 -68q-62 45 -132 45q-67 0 -103 -35 t-36 -88q0 -39 30 -71t95 -62q114 -52 155 -98t41 -120z"/>
<glyph glyph-name="scaron" horiz-adv-x="354" unicode="š" d="M334 638l-134 -161h-28l-130 161h81l67 -86l66 86h78zM316 124q0 -54 -39 -93t-100 -39q-82 0 -150 55l40 56q52 -47 106 -47q72 0 72 60q0 22 -20 38t-49 28l-58 24q-29 14 -49 38t-20 59q-1 53 39 89t104 36q61 0 122 -40l-35 -59q-50 35 -90 35q-34 0 -51 -15t-17 -39 q1 -23 31 -41t66 -30q36 -11 68 -41q30 -30 30 -74z"/>
<glyph glyph-name="Ydieresis" horiz-adv-x="635" unicode="Ÿ" d="M281 849q0 -20 -15 -35t-36 -15q-20 0 -35 15t-15 35q0 21 15 36t35 15q21 0 36 -15t15 -36zM454 849q0 -20 -15 -35t-35 -15q-21 0 -36 15t-15 35q0 21 15 36t36 15q20 0 35 -15t15 -36zM615 733l-258 -408v-325h-80v326l-257 407h90l210 -340l207 340h88z"/>
<glyph glyph-name="circumflex" d="M369 489h-82l-67 85l-66 -85h-77l133 160h29z" unicode="ˆ"/>
<glyph glyph-name="tilde" d="M367 544q-42 -54 -95 -54q-28 0 -58 19q-26 19 -49 19q-29 0 -58 -37l-36 47q42 54 95 54q28 0 57 -19q28 -19 50 -19q29 0 58 37z" unicode="˜"/>
<glyph glyph-name="enspace" horiz-adv-x="500" unicode=" "/>
<glyph glyph-name="emspace" horiz-adv-x="1000" unicode=" "/>
<glyph glyph-name="thinspace" horiz-adv-x="133" unicode=" "/>
<glyph glyph-name="endash" horiz-adv-x="500" unicode="–" d="M450 208h-400v68h400v-68z"/>
<glyph glyph-name="emdash" horiz-adv-x="750" unicode="—" d="M700 208h-650v68h650v-68z"/>
<glyph glyph-name="quoteleft" horiz-adv-x="172" unicode="‘" d="M133 586q-1 -20 -15 -34t-34 -15q-26 -1 -40 17t-14 45q0 39 27 81t77 72l11 -16q-48 -42 -64 -99q24 -1 38 -15t14 -36z"/>
<glyph glyph-name="quotesinglbase" horiz-adv-x="172" unicode="‚" d="M142 34q0 -38 -27 -81t-77 -73l-11 16q48 42 64 99q-24 1 -38 15t-14 36q1 20 15 34t34 15q26 1 40 -17t14 -44z"/>
<glyph glyph-name="quotedblleft" horiz-adv-x="319" unicode="“" d="M133 586q-1 -20 -15 -34t-34 -15q-26 -1 -40 17t-14 45q0 39 27 81t77 72l11 -16q-48 -42 -64 -99q24 -1 38 -15t14 -36zM280 586q0 -20 -14 -34t-35 -15q-25 -1 -39 17t-15 45q0 39 27 81t77 72l11 -16q-48 -42 -64 -99q24 -1 38 -15t14 -36z"/>
<glyph glyph-name="quotedblright" horiz-adv-x="319" unicode="”" d="M142 683q0 -39 -27 -81t-77 -72l-11 16q48 42 64 99q-24 1 -38 15t-14 36q1 20 15 34t34 15q26 1 40 -17t14 -45zM289 683q0 -39 -27 -81t-77 -72l-11 16q48 42 64 99q-24 1 -38 15t-14 36q0 20 14 34t35 15q25 1 39 -17t15 -45z"/>
<glyph glyph-name="dagger" horiz-adv-x="455" unicode="†" d="M425 492h-158v-336h-75v336h-162v68h162v173h75v-173h158v-68z"/>
<glyph glyph-name="daggerdbl" horiz-adv-x="455" unicode="‡" d="M430 301h-163v-145h-75v145h-157v68h157v151h-162v68h162v145h75v-145h158v-68h-158v-151h163v-68z"/>
<glyph glyph-name="ellipsis" horiz-adv-x="700" unicode="…" d="M529 44q0 21 15 36t36 15q22 0 37 -15t15 -36q0 -22 -15 -37t-37 -15q-21 0 -36 15t-15 37zM299 44q0 21 15 36t36 15q22 0 37 -15t15 -36q0 -22 -15 -37t-37 -15q-21 0 -36 15t-15 37zM69 44q0 21 15 36t36 15q22 0 37 -15t15 -36q0 -22 -15 -37t-37 -15q-21 0 -36 15 t-15 37z"/>
<glyph glyph-name="perthousand" horiz-adv-x="953" unicode="‰" d="M903 137q0 -63 -33 -105t-90 -42q-58 0 -90 42t-31 105t33 105t90 42q57 0 89 -42t32 -105zM842 137q0 39 -16 65t-45 25q-29 1 -45 -25t-16 -65t16 -65t45 -25q29 -1 45 25t16 65zM616 137q0 -63 -33 -105t-90 -42t-89 42t-32 105t32 105t91 42q57 0 89 -42t32 -105z M555 137q0 39 -16 65t-45 25q-29 1 -45 -25t-16 -65t16 -65t45 -25q29 -1 45 25t16 65zM595 558l-479 -577l-45 37l479 577zM295 439q0 -63 -33 -105t-91 -42q-57 0 -89 42t-32 105t33 105t90 42q58 0 90 -42t32 -105zM233 439q0 39 -16 65t-45 25q-29 1 -45 -25t-16 -65 t16 -65t45 -25q29 -1 45 25t16 65z"/>
<glyph glyph-name="guilsinglleft" horiz-adv-x="278" unicode="‹" d="M233 9h-79l-105 164l105 163h79l-110 -163z"/>
<glyph glyph-name="guilsinglright" horiz-adv-x="278" unicode="›" d="M229 173l-105 -164h-79l110 164l-110 163h79z"/>
<glyph glyph-name="fraction" horiz-adv-x="576" unicode="⁄" d="M549 558l-478 -577l-45 37l479 577z"/>
<glyph glyph-name="Euro" horiz-adv-x="651" unicode="€" d="M93 325h-65v68h81q33 87 111 140t180 53t193 -56l-33 -64q-84 49 -167 49q-70 -1 -122 -33t-77 -89h276v-68h-295q-2 -24 -2 -39q0 -21 3 -39h294v-66h-274q26 -57 80 -89t123 -33q83 0 167 49l27 -64q-91 -56 -193 -56q-104 0 -182 52t-110 141h-80v66h65q-2 24 -2 39 t2 39z"/>
<glyph glyph-name="trademark" horiz-adv-x="489" unicode="™" d="M200 692h-66v-176h-45v176h-66v41h177v-41zM466 516h-43l-3 117l-63 -88h-5l-64 88l-2 -117h-44l10 219h6l97 -131l95 131h6z"/>
<glyph glyph-name="arrowleft" horiz-adv-x="711" unicode="←" d="M661 254h-493l193 -159l-42 -50l-286 237v12l286 237l42 -50l-193 -159h493v-68z"/>
<glyph glyph-name="arrowright" horiz-adv-x="711" unicode="→" d="M50 322h493l-193 159l42 50l286 -237v-12l-286 -237l-42 50l193 159h-493v68z"/>
<glyph glyph-name="minus" horiz-adv-x="460" unicode="−" d="M60 254v68h340v-68h-340z"/>
</font>
</defs>
</svg>
