<?xml version="1.0" encoding="UTF-8" standalone="no"?>
<!DOCTYPE svg  PUBLIC '-//W3C//DTD SVG 1.1//EN'  'http://www.w3.org/Graphics/SVG/1.1/DTD/svg11.dtd'>
<svg xmlns="http://www.w3.org/2000/svg">
<defs>
<font id="Verlag-Black" horiz-adv-x="500">
<font-face underline-position="-50" font-weight="450" descent="-200" panose-1="0 0 0 0 0 0 0 0 0 0" units-per-em="1000" unicode-range="U+0020-2212" bbox="-68 -271 1022 1012" x-height="434" underline-thickness="50" font-family="Verlag" ascent="800" cap-height="733"/>
<missing-glyph horiz-adv-x="1000"/>
<glyph glyph-name=".notdef" horiz-adv-x="1000"/>
<glyph glyph-name=".null" horiz-adv-x="0"/>
<glyph glyph-name="nonmarkingreturn" horiz-adv-x="1000"/>
<glyph glyph-name="space" horiz-adv-x="205" unicode=" "/>
<glyph glyph-name="exclam" horiz-adv-x="304" unicode="!" d="M230 71q0 -33 -23 -56t-55 -23q-33 0 -56 23t-23 56t23 56t56 23q32 0 55 -23t23 -56zM233 733l-33 -505h-97l-33 505h163z"/>
<glyph glyph-name="quotedbl" horiz-adv-x="450" unicode='&quot;' d="M444 621l-168 -215l-55 37l127 244zM252 631l-168 -215l-55 37l127 244z"/>
<glyph glyph-name="numbersign" horiz-adv-x="636" unicode="#" d="M374 352h-88l-25 -114h88zM611 452l-22 -100h-107l-25 -114h107l-23 -100h-106l-30 -138h-107l30 138h-88l-30 -138h-108l30 138h-107l23 100h106l25 114h-106l22 100h105l30 138h107l-30 -138h88l30 138h108l-30 -138h108z"/>
<glyph glyph-name="dollar" horiz-adv-x="521" unicode="$" d="M196 434q0 -35 44 -55l9 101q-53 -4 -53 -46zM341 163q-1 19 -11 33t-37 26l-10 -109q58 6 58 50zM268 678h74l-8 -81q73 -12 132 -45l-38 -124q-45 30 -106 46l-12 -120q92 -32 130 -72t38 -106q0 -80 -56 -132t-150 -55l-7 -77h-74l7 81q-89 12 -166 61l45 125 q63 -45 133 -61l13 129q-90 31 -126 71t-36 102q0 73 54 124t145 56z"/>
<glyph glyph-name="percent" horiz-adv-x="745" unicode="%" d="M596 144q0 78 -44 78q-45 0 -45 -78q0 -79 45 -79q44 0 44 79zM238 446q0 78 -45 78q-44 0 -44 -78t44 -78q45 0 45 78zM695 144q0 -62 -39 -108t-105 -46t-104 45t-38 109q0 62 39 108t105 46t104 -46t38 -108zM636 556l-469 -572l-58 49l469 572zM336 446 q0 -62 -39 -108t-105 -46t-104 46t-38 108t39 108t105 46t104 -45t38 -109z"/>
<glyph glyph-name="ampersand" horiz-adv-x="656" unicode="&amp;" d="M348 132q-64 64 -104 112q-46 -21 -46 -71q0 -29 20 -47t55 -18q32 0 75 24zM380 448q0 22 -14 37t-39 15q-21 0 -35 -17t-14 -41q0 -38 27 -73q75 25 75 79zM535 303l86 -76q-58 -66 -91 -98l66 -57l-86 -85q-11 11 -37 31t-38 31q-89 -59 -177 -59q-84 0 -146 46 t-62 124q0 52 36 98t97 71q-41 66 -41 113q0 68 54 118t132 50q79 0 129 -46t50 -109q-1 -53 -39 -95t-108 -63q39 -46 86 -90q48 44 89 96z"/>
<glyph glyph-name="quotesingle" horiz-adv-x="258" unicode="&apos;" d="M252 631l-168 -215l-55 37l127 244z"/>
<glyph glyph-name="parenleft" horiz-adv-x="380" unicode="(" d="M388 -157l-70 -91q-130 84 -197 218t-67 288t67 288t197 218l70 -90q-209 -144 -209 -416q0 -271 209 -415z"/>
<glyph glyph-name="parenright" horiz-adv-x="380" unicode=")" d="M326 258q0 -154 -67 -288t-197 -218l-70 91q209 144 209 415q0 272 -209 416l70 90q130 -84 197 -218t67 -288z"/>
<glyph glyph-name="asterisk" horiz-adv-x="409" unicode="*" d="M369 577l-107 -24l73 -82l-76 -55l-56 94l-56 -94l-76 55l73 82l-107 24l29 89l100 -43l-10 109h94l-10 -109l100 43z"/>
<glyph glyph-name="plus" horiz-adv-x="458" unicode="+" d="M398 235h-114v-121h-110v121h-114v106h114v121h110v-121h114v-106z"/>
<glyph glyph-name="comma" horiz-adv-x="274" unicode="," d="M216 51q0 -54 -40 -110t-97 -80l-14 22q58 50 74 109q-36 2 -58 24t-22 55q-1 31 21 53t53 22q39 0 61 -27t22 -68z"/>
<glyph glyph-name="hyphen" horiz-adv-x="351" unicode="-" d="M304 194h-257v105h257v-105z"/>
<glyph glyph-name="period" horiz-adv-x="274" unicode="." d="M59 71q0 33 23 56t55 23q33 0 56 -23t23 -56t-23 -56t-56 -23q-32 0 -55 23t-23 56z"/>
<glyph glyph-name="slash" horiz-adv-x="374" unicode="/" d="M374 733l-238 -949h-108l238 949h108z"/>
<glyph glyph-name="zero" horiz-adv-x="592" unicode="0" d="M398 295q0 184 -101 184q-49 -1 -75 -49t-26 -135t26 -135t75 -49q101 0 101 184zM550 295q0 -129 -67 -217t-188 -88q-81 0 -139 44t-86 110q-26 68 -26 151q0 129 66 217t189 88q81 0 139 -43t86 -111q26 -68 26 -151z"/>
<glyph glyph-name="one" horiz-adv-x="411" unicode="1" d="M315 0h-148v425l-101 -42l-47 124l249 96h47v-603z"/>
<glyph glyph-name="two" horiz-adv-x="491" unicode="2" d="M447 0h-411v82q129 108 185 174q66 76 66 127q0 39 -23 63t-66 23q-49 0 -107 -39l-52 113q87 57 184 57q95 0 152 -54t57 -135q0 -80 -67 -166q-44 -57 -121 -120h203v-125z"/>
<glyph glyph-name="three" horiz-adv-x="487" unicode="3" d="M435 492l-167 -141q93 -7 135 -50t42 -110q0 -79 -67 -140t-172 -61q-90 0 -169 27l31 122q60 -22 125 -22q45 0 73 18t28 50q0 29 -26 47t-77 19q-47 0 -80 -8l-27 69l167 153h-198v125h382v-98z"/>
<glyph glyph-name="four" horiz-adv-x="515" unicode="4" d="M273 234v130l-102 -130h102zM493 120h-79v-122h-141v122h-251v101l300 380h92v-367h79v-114z"/>
<glyph glyph-name="five" horiz-adv-x="513" unicode="5" d="M475 201q-1 -91 -71 -151t-186 -60q-81 0 -159 27l21 125q67 -25 126 -25q58 0 90 20t33 52q0 73 -123 73q-63 0 -114 -13l-9 11v330h356v-125h-217v-85q34 2 48 2q104 0 154 -50t51 -131z"/>
<glyph glyph-name="six" horiz-adv-x="523" unicode="6" d="M338 192q0 40 -20 64t-53 24q-77 0 -77 -86q0 -41 20 -66t56 -25q38 0 56 25t18 64zM481 194q-1 -80 -59 -142t-159 -62q-99 0 -159 62t-60 154q0 254 340 412l59 -117q-160 -57 -230 -143q39 22 84 22q90 0 137 -52t47 -134z"/>
<glyph glyph-name="seven" horiz-adv-x="492" unicode="7" d="M492 590l-263 -590h-149l198 459h-225v131h439z"/>
<glyph glyph-name="eight" horiz-adv-x="538" unicode="8" d="M339 181q0 32 -19 50t-51 18t-51 -18t-19 -50q-1 -30 19 -49t51 -19t51 19t19 49zM339 409q1 30 -19 49t-51 19t-51 -19t-19 -49q0 -31 19 -49t51 -18t51 18t19 49zM488 158q0 -70 -60 -119t-159 -49t-159 49t-60 119q0 100 98 142q-86 44 -86 134q0 70 58 118t149 48 t149 -48t58 -118q0 -90 -86 -134q98 -42 98 -142z"/>
<glyph glyph-name="nine" horiz-adv-x="524" unicode="9" d="M342 396q0 41 -20 66t-57 25t-55 -25t-19 -64q0 -40 20 -64t53 -24q38 0 58 22t20 64zM486 375q0 -113 -80 -216t-261 -186l-62 111q138 58 224 143q-37 -17 -75 -17q-90 0 -136 52t-47 134q0 80 58 142t159 62q100 0 160 -62t60 -163z"/>
<glyph glyph-name="colon" horiz-adv-x="274" unicode=":" d="M59 323q0 31 23 55t55 24q33 0 56 -24t23 -55q0 -33 -23 -56t-56 -23q-32 0 -55 23t-23 56zM59 71q0 33 23 56t55 23q33 0 56 -23t23 -56t-23 -56t-56 -23q-32 0 -55 23t-23 56z"/>
<glyph glyph-name="semicolon" horiz-adv-x="274" unicode=";" d="M59 323q0 31 23 55t55 24q33 0 56 -24t23 -55q0 -33 -23 -56t-56 -23q-32 0 -55 23t-23 56zM216 51q0 -54 -40 -110t-97 -80l-14 22q58 50 74 109q-36 2 -58 24t-22 55q-1 31 21 53t53 22q39 0 61 -27t22 -68z"/>
<glyph glyph-name="less" horiz-adv-x="394" unicode="&lt;" d="M350 132l-84 -87l-228 243l228 244l84 -87l-153 -157z"/>
<glyph glyph-name="equal" horiz-adv-x="449" unicode="=" d="M389 149h-329v101h329v-101zM389 326h-329v101h329v-101z"/>
<glyph glyph-name="greater" horiz-adv-x="394" unicode="&gt;" d="M356 288l-228 -243l-84 87l152 156l-152 157l84 87z"/>
<glyph glyph-name="question" horiz-adv-x="403" unicode="?" d="M223 71q0 -33 -23 -56t-56 -23t-56 23t-23 56t23 56t56 23t56 -23t23 -56zM393 560q0 -41 -19 -75q-20 -35 -46 -59t-53 -47t-46 -51t-19 -60v-37h-130v46q0 42 14 77q14 34 34 58t42 44q20 20 34 42q14 21 14 42q0 64 -82 64q-42 0 -91 -18l-22 128q76 26 148 26 q107 0 165 -52t57 -128z"/>
<glyph glyph-name="at" horiz-adv-x="690" unicode="@" d="M392 221v30q-15 14 -37 14q-16 0 -27 -9t-11 -22q0 -31 35 -31q26 0 40 18zM646 316q0 -100 -67 -150q-30 -21 -69 -21q-60 0 -84 50q-40 -43 -103 -43q-39 0 -65 22t-25 59q-1 37 25 59t71 22q35 0 63 -15v7q0 51 -58 51q-28 0 -62 -9l-8 62q42 14 85 14q65 0 92 -30 t27 -90v-64q0 -24 14 -36t32 -11q20 0 34 11q39 29 39 105q1 39 -13 79t-41 75q-27 37 -75 59t-109 22q-95 0 -167 -75t-72 -176q0 -105 74 -178t196 -73q52 0 119 23l14 -53q-81 -24 -136 -24q-145 0 -236 89t-91 216q0 125 89 215t210 90q71 0 129 -26t94 -68t54 -91 q20 -49 20 -97z"/>
<glyph glyph-name="A" horiz-adv-x="693" unicode="A" d="M417 263l-72 176l-73 -176h145zM703 0h-177l-55 133h-253l-55 -133h-173l345 739h23z"/>
<glyph glyph-name="B" horiz-adv-x="674" unicode="B" d="M443 226q0 88 -134 88q-39 0 -64 -3v-170q36 -3 71 -3q127 0 127 88zM431 512q-1 36 -29 58t-80 22q-35 0 -77 -7v-153q29 -3 63 -3q123 0 123 83zM627 208q1 -91 -85 -153t-243 -62q-99 0 -219 15v716q106 16 205 16q153 0 237 -58t84 -139q0 -111 -126 -163 q147 -44 147 -172z"/>
<glyph glyph-name="C" horiz-adv-x="724" unicode="C" d="M692 56q-104 -68 -236 -68q-178 0 -290 107t-111 271q-1 165 111 272t290 107q121 0 229 -64l-52 -144q-88 49 -175 49q-102 0 -162 -59t-60 -161t60 -161t162 -59q96 0 183 54z"/>
<glyph glyph-name="D" horiz-adv-x="798" unicode="D" d="M562 373q0 101 -62 157t-180 56q-35 0 -70 -4v-432q41 -4 81 -4q115 0 173 60t58 167zM743 373q0 -171 -110 -275t-329 -104q-89 0 -224 12v720q113 12 217 12q219 0 333 -101t113 -264z"/>
<glyph glyph-name="E" horiz-adv-x="614" unicode="E" d="M544 0h-464v733h464v-156h-294v-131h268v-148h-268v-143h294v-155z"/>
<glyph glyph-name="F" horiz-adv-x="572" unicode="F" d="M544 577h-294v-162h252v-149h-252v-266h-170v733h464v-156z"/>
<glyph glyph-name="G" horiz-adv-x="775" unicode="G" d="M411 412h307v-350q-128 -74 -278 -74q-164 0 -274 106t-111 272q1 167 113 273t281 106q125 0 246 -63l-71 -137q-79 41 -164 41q-108 0 -166 -60t-58 -160q0 -103 61 -165t153 -62q69 0 108 20v108h-147v145z"/>
<glyph glyph-name="H" horiz-adv-x="782" unicode="H" d="M702 0h-170v294h-282v-294h-170v733h170v-287h282v287h170v-733z"/>
<glyph glyph-name="I" horiz-adv-x="340" unicode="I" d="M255 0h-170v733h170v-733z"/>
<glyph glyph-name="J" horiz-adv-x="551" unicode="J" d="M476 733v-480q0 -129 -62 -197t-201 -68q-109 0 -200 52l53 142q62 -39 142 -39q98 0 98 125v465h170z"/>
<glyph glyph-name="K" horiz-adv-x="744" unicode="K" d="M724 0h-205l-269 343v-343h-170v733h170v-319l257 319h201l-301 -349z"/>
<glyph glyph-name="L" horiz-adv-x="562" unicode="L" d="M544 0h-464v733h170v-578h294v-155z"/>
<glyph glyph-name="M" horiz-adv-x="911" unicode="M" d="M841 0h-165l-9 360l-203 -257h-18l-205 257l-7 -360h-164l34 738l23 2l332 -419l324 419l23 -2z"/>
<glyph glyph-name="N" horiz-adv-x="789" unicode="N" d="M709 -11l-17 -3l-442 397v-383h-170v743l23 4l436 -394v380h170v-744z"/>
<glyph glyph-name="O" horiz-adv-x="861" unicode="O" d="M624 366q0 100 -54 164t-140 63q-86 1 -140 -63t-54 -164q0 -99 54 -163t140 -64t140 64t54 163zM806 366q0 -162 -106 -270t-273 -108q-168 0 -270 107t-102 271q-1 164 105 272t274 107q168 0 270 -107t102 -272z"/>
<glyph glyph-name="P" horiz-adv-x="646" unicode="P" d="M436 474q0 47 -32 76t-91 29q-28 0 -63 -4v-209q48 -2 51 -2q135 0 135 110zM610 477q0 -117 -78 -189t-219 -71q-17 0 -63 2v-219h-170v726q112 12 204 12q154 0 240 -73t86 -188z"/>
<glyph glyph-name="Q" horiz-adv-x="861" unicode="Q" d="M625 366q0 99 -54 163t-140 64q-86 1 -140 -63t-54 -164q0 -99 54 -163t140 -64q43 0 83 19l-108 92l103 118l102 -93q14 44 14 91zM825 89l-103 -117l-86 78q-95 -62 -209 -62q-167 0 -269 107t-103 271t105 272t274 107q168 0 270 -107t102 -272q0 -113 -62 -208 l20 -17q20 -17 40 -35z"/>
<glyph glyph-name="R" horiz-adv-x="671" unicode="R" d="M438 489q0 45 -33 71t-88 26q-36 0 -66 -5v-202q33 -3 54 -3q61 0 97 29t36 84zM661 0h-193l-125 239q-10 -1 -29 -1q-15 0 -63 2v-240h-170v726q106 12 216 12q162 0 240 -68t78 -175q1 -65 -33 -121t-93 -91z"/>
<glyph glyph-name="S" horiz-adv-x="572" unicode="S" d="M533 216q0 -96 -68 -162t-193 -66q-62 0 -130 22t-117 53l47 154q97 -71 205 -71q83 0 83 64q0 31 -26 54t-105 55q-174 70 -174 215q0 86 68 148t190 63q57 0 113 -17t92 -40l-43 -152q-35 24 -81 42t-81 18q-43 0 -65 -17t-22 -42q0 -33 26 -51t103 -52q99 -42 139 -93 t39 -125z"/>
<glyph glyph-name="T" horiz-adv-x="660" unicode="T" d="M635 577h-220v-577h-170v577h-220v156h610v-156z"/>
<glyph glyph-name="U" horiz-adv-x="763" unicode="U" d="M693 298q0 -150 -82 -230t-232 -80q-149 0 -228 79t-79 231v435h170v-423q0 -167 141 -167q140 0 140 167v423h170v-435z"/>
<glyph glyph-name="V" horiz-adv-x="700" unicode="V" d="M710 733l-350 -739h-20l-350 739h195l167 -396l167 396h191z"/>
<glyph glyph-name="W" horiz-adv-x="1022" unicode="W" d="M1022 733l-263 -745l-23 -2l-225 439l-222 -439l-22 2l-267 745h195l118 -385l191 391h18l192 -388l117 382h191z"/>
<glyph glyph-name="X" horiz-adv-x="738" unicode="X" d="M719 0h-203l-147 241l-149 -241h-200l241 358l-241 375h203l148 -242l149 242h199l-241 -358z"/>
<glyph glyph-name="Y" horiz-adv-x="706" unicode="Y" d="M696 733l-258 -443v-290h-170v291l-258 442h195l150 -281l150 281h191z"/>
<glyph glyph-name="Z" horiz-adv-x="680" unicode="Z" d="M661 714l-363 -559h351v-155h-622l-5 18l363 559h-337v156h608z"/>
<glyph glyph-name="bracketleft" horiz-adv-x="347" unicode="[" d="M326 -216h-249v949h249v-110h-130v-729h130v-110z"/>
<glyph glyph-name="backslash" horiz-adv-x="375" unicode="\" d="M346 -216h-108l-238 949h108z"/>
<glyph glyph-name="bracketright" horiz-adv-x="347" unicode="]" d="M270 -216h-249v110h130v729h-130v110h249v-949z"/>
<glyph glyph-name="asciicircum" d="M444 497h-131l-63 83l-63 -83h-125l163 194h61z" unicode="^"/>
<glyph glyph-name="underscore" horiz-adv-x="520" unicode="_" d="M520 0h-520v68h520v-68z"/>
<glyph glyph-name="grave" d="M393 547l-40 -64l-216 94l63 116z" unicode="`"/>
<glyph glyph-name="a" horiz-adv-x="481" unicode="a" d="M289 107v49q-26 23 -62 23q-25 -1 -43 -15t-19 -36q-1 -24 15 -38t42 -14q44 0 67 31zM436 0h-143v37q-47 -45 -118 -45q-65 0 -107 36t-42 99q0 58 42 96t117 38q57 0 104 -26v11q0 86 -97 86q-39 0 -102 -15l-13 103q73 22 141 22q218 0 218 -199v-243z"/>
<glyph glyph-name="b" horiz-adv-x="557" unicode="b" d="M372 222q0 105 -86 105q-48 0 -81 -36v-143q29 -41 79 -41q88 0 88 115zM520 224q0 -92 -59 -162t-141 -70q-68 0 -119 42v-34h-144v733h148v-337q49 46 120 46q83 0 139 -62t56 -156z"/>
<glyph glyph-name="c" horiz-adv-x="436" unicode="c" d="M430 35q-68 -43 -143 -43q-123 0 -189 64t-66 159t66 161t189 66q75 0 143 -43l-43 -99q-48 25 -97 25q-48 0 -80 -27t-31 -81q0 -50 33 -79t84 -29q52 0 96 25z"/>
<glyph glyph-name="d" horiz-adv-x="552" unicode="d" d="M352 148v136q-31 43 -77 43q-40 0 -65 -27t-25 -81q1 -54 23 -83t65 -29q49 0 79 41zM500 0h-144v36q-51 -44 -121 -44q-89 0 -143 64t-55 161q0 93 62 159t145 66q63 0 108 -34v325h148v-733z"/>
<glyph glyph-name="e" horiz-adv-x="491" unicode="e" d="M180 253h157q-5 37 -25 57t-52 20q-69 0 -80 -77zM466 233q0 -39 -3 -61h-284q7 -38 33 -54t76 -16q51 0 132 23l14 -109q-96 -24 -161 -24q-121 0 -181 62t-60 161q0 91 61 159t167 68q98 0 152 -60t54 -149z"/>
<glyph glyph-name="f" horiz-adv-x="382" unicode="f" d="M390 731l-12 -125q-17 4 -46 4q-36 0 -54 -21t-18 -77v-78h117v-117h-117v-317h-148v317h-93v21l93 96v90q0 102 52 159t151 57q37 0 75 -9z"/>
<glyph glyph-name="g" horiz-adv-x="547" unicode="g" d="M352 139v157q-29 29 -73 29q-42 0 -68 -31t-26 -86q1 -46 25 -74t69 -28t73 33zM500 -4q0 -122 -54 -171t-166 -49q-76 0 -143 20l11 127q52 -18 108 -18q48 -1 72 21t24 73v21q-40 -28 -100 -28q-94 0 -154 56t-61 162q1 96 63 164t148 68q60 0 108 -31v23h144v-438z "/>
<glyph glyph-name="h" horiz-adv-x="544" unicode="h" d="M499 0h-149v264q0 55 -46 55q-50 0 -98 -52v-267h-149v733h148v-374q76 83 159 83q66 0 100 -39t35 -105v-298z"/>
<glyph glyph-name="i" horiz-adv-x="273" unicode="i" d="M211 0h-149v434h149v-434zM220 584q0 -34 -24 -58t-59 -25q-35 1 -59 25t-24 58q0 36 24 60t59 24t59 -24t24 -60z"/>
<glyph glyph-name="j" horiz-adv-x="273" unicode="j" d="M211 434v-456q0 -202 -203 -202q-41 0 -76 8l13 123q20 -5 46 -5q37 0 54 18t17 66v448h149zM220 584q0 -34 -24 -58t-59 -25q-35 1 -59 25t-24 58q0 36 24 60t59 24t59 -24t24 -60z"/>
<glyph glyph-name="k" horiz-adv-x="530" unicode="k" d="M523 0h-174l-144 197v-197h-148v733h148v-481l137 182h174l-175 -207z"/>
<glyph glyph-name="l" horiz-adv-x="262" unicode="l" d="M205 0h-148v733h148v-733z"/>
<glyph glyph-name="m" horiz-adv-x="809" unicode="m" d="M764 0h-149v265q0 55 -45 55q-39 0 -85 -52v-268h-149v264q0 55 -45 55q-37 0 -85 -52v-267h-149v434h145v-78q80 86 154 86q93 0 120 -86q81 87 159 87q63 0 96 -39t33 -104v-300z"/>
<glyph glyph-name="n" horiz-adv-x="544" unicode="n" d="M499 0h-149v264q0 55 -46 55q-50 0 -98 -52v-267h-149v434h145v-78q85 86 162 86q66 0 100 -39t35 -105v-298z"/>
<glyph glyph-name="o" horiz-adv-x="531" unicode="o" d="M352 217q0 55 -22 85t-64 30q-41 0 -64 -30t-23 -85t23 -85t64 -30q42 0 64 30t22 85zM499 217q0 -95 -63 -160t-170 -65q-106 0 -170 65t-64 160t64 160t170 65q107 0 170 -65t63 -160z"/>
<glyph glyph-name="p" horiz-adv-x="557" unicode="p" d="M372 219q0 51 -22 79t-62 29q-49 0 -83 -40v-151q26 -29 78 -29q37 1 63 29t26 83zM520 220q0 -94 -60 -161t-153 -67q-57 0 -102 24v-232h-148v650h144v-39q56 47 128 47q83 0 137 -63t54 -159z"/>
<glyph glyph-name="q" horiz-adv-x="552" unicode="q" d="M352 146v138q-29 43 -76 43q-42 -1 -66 -31t-25 -84q0 -51 24 -78t65 -27q22 1 44 11t34 28zM500 -217h-148v243q-42 -34 -115 -34q-85 0 -143 60t-57 158q0 96 61 164t144 68q38 0 62 -9t52 -29v30h144v-651z"/>
<glyph glyph-name="r" horiz-adv-x="372" unicode="r" d="M357 294q-42 9 -73 9q-56 0 -78 -29v-274h-149v434h145v-70q32 42 66 60t89 18v-148z"/>
<glyph glyph-name="s" horiz-adv-x="418" unicode="s" d="M397 131q0 -63 -54 -101t-136 -38q-101 0 -188 56l47 106q75 -53 141 -53q50 0 50 29q1 14 -21 24t-53 16q-31 8 -63 20t-52 39q-22 27 -22 67q0 66 52 106t132 40t158 -41l-36 -106q-72 39 -129 39q-21 0 -33 -8t-12 -19q0 -15 22 -24t56 -17q32 -8 64 -22 q32 -12 54 -41t23 -72z"/>
<glyph glyph-name="t" horiz-adv-x="383" unicode="t" d="M360 317h-115v-155q0 -50 37 -50q14 0 38 7l34 -111q-68 -16 -112 -16q-70 0 -108 38t-37 136v151h-95v21l95 96v66l148 85v-151h115v-117z"/>
<glyph glyph-name="u" horiz-adv-x="542" unicode="u" d="M495 0h-145v73q-81 -81 -159 -81q-66 0 -102 39t-36 104v299h149v-264q0 -55 49 -55q50 0 95 49v270h149v-434z"/>
<glyph glyph-name="v" horiz-adv-x="477" unicode="v" d="M490 434l-240 -445h-27l-236 445h164l89 -214l89 214h161z"/>
<glyph glyph-name="w" horiz-adv-x="674" unicode="w" d="M679 434l-181 -445h-27l-134 235l-134 -235h-27l-181 445h164l61 -207l103 207h27l103 -207l61 207h165z"/>
<glyph glyph-name="x" horiz-adv-x="498" unicode="x" d="M488 0h-161l-81 132l-83 -132h-157l153 215l-153 219h161l81 -133l83 133h157l-152 -216z"/>
<glyph glyph-name="y" horiz-adv-x="487" unicode="y" d="M495 434l-307 -650h-148l135 262l-183 388h164l89 -242l89 242h161z"/>
<glyph glyph-name="z" horiz-adv-x="442" unicode="z" d="M424 415l-201 -295h196v-120h-399l-5 18l201 296h-182v120h385z"/>
<glyph glyph-name="braceleft" horiz-adv-x="325" unicode="{" d="M319 -223q-101 -1 -155 51t-54 141v174q0 33 -14 49t-48 16h-23v100h23q34 0 48 16t14 49v174q0 89 54 141t155 52v-116q-47 0 -67 -22t-21 -79v-152q-1 -45 -17 -69t-60 -44q44 -20 60 -43t17 -70v-152q1 -55 21 -77t67 -23v-116z"/>
<glyph glyph-name="bar" horiz-adv-x="285" unicode="|" d="M195 -216h-105v949h105v-949z"/>
<glyph glyph-name="braceright" horiz-adv-x="325" unicode="}" d="M300 208h-23q-35 0 -49 -16t-13 -49v-174q-1 -89 -55 -141t-154 -51v116q48 1 68 23t20 77v152q0 47 16 70t61 43q-45 20 -61 44t-16 69v152q0 57 -20 79t-68 22v116q100 0 154 -52t55 -141v-174q-1 -33 13 -49t49 -16h23v-100z"/>
<glyph glyph-name="asciitilde" d="M445 358q-24 -28 -57 -46t-63 -18q-36 0 -74 20q-34 19 -65 19q-43 0 -77 -40l-45 82q22 27 56 45t64 19q39 0 74 -20q31 -17 60 -17q41 0 77 40z" unicode="~"/>
<glyph glyph-name="uni00A0" horiz-adv-x="205" unicode=" "/>
<glyph glyph-name="exclamdown" horiz-adv-x="304" unicode="¡" d="M71 0l33 505h97l33 -505h-163zM74 662q0 33 23 56t55 23q33 0 56 -23t23 -56t-23 -56t-56 -23q-32 0 -55 23t-23 56z"/>
<glyph glyph-name="cent" horiz-adv-x="446" unicode="¢" d="M174 217q0 -74 60 -99l18 206q-78 -17 -78 -107zM216 -88l7 86q-87 14 -139 72t-52 145q0 97 64 159t166 67l7 79h71l-7 -83q49 -9 97 -38l-42 -103q-36 21 -65 27l-19 -216q44 4 87 29l39 -101q-61 -38 -136 -42l-7 -81h-71z"/>
<glyph glyph-name="sterling" horiz-adv-x="509" unicode="£" d="M485 559l-38 -130q-50 36 -105 36q-34 0 -53 -20t-19 -54v-43h116v-117h-116v-102h211v-129h-442v129h83v102h-80v7l80 81v75q0 92 56 150t163 57q73 0 144 -42z"/>
<glyph glyph-name="yen" horiz-adv-x="591" unicode="¥" d="M566 590l-155 -256h101v-96h-139v-58h139v-93h-139v-87h-150v87h-143v93h143v58h-143v96h105l-160 256h169l106 -197l101 197h165z"/>
<glyph glyph-name="section" horiz-adv-x="504" unicode="§" d="M315 284q-1 16 -21 26t-65 20q-29 -5 -29 -26t52 -35q8 -3 26 -7q10 -3 15 -4q22 7 22 26zM455 295q0 -45 -53 -85q35 -30 35 -82q0 -64 -54 -102t-136 -38q-101 0 -188 56l47 106q75 -53 141 -53q50 0 50 30q1 14 -23 24t-58 18q-34 9 -68 21t-58 38t-23 66q0 52 48 88 q-30 28 -30 72q0 66 52 106t133 41q82 0 157 -40l-35 -107q-73 40 -129 40q-21 0 -33 -8t-12 -21q0 -14 24 -24q24 -11 60 -19q34 -8 69 -20t59 -40t25 -67z"/>
<glyph glyph-name="dieresis" d="M230 569q0 -31 -22 -53t-54 -22q-31 0 -53 22t-22 53t22 53t53 23q32 -1 54 -23t22 -53zM421 569q0 -31 -22 -53t-53 -22t-53 22t-22 53t22 53t53 23q31 0 53 -22t22 -54z" unicode="¨"/>
<glyph glyph-name="copyright" horiz-adv-x="842" unicode="©" d="M561 208q-57 -35 -122 -35q-91 0 -149 55t-58 140t58 140t149 55q62 0 118 -33l-27 -74q-45 26 -90 26q-54 0 -84 -30t-30 -84q0 -53 30 -83t84 -30q50 0 94 27zM725 366q0 132 -89 226t-215 94t-215 -94t-89 -226t89 -226t215 -93q126 -1 215 93t89 226zM792 366 q0 -158 -108 -268t-263 -110t-263 110t-108 268q0 157 108 268t263 111t263 -111t108 -268z"/>
<glyph glyph-name="ordfeminine" horiz-adv-x="397" unicode="ª" d="M243 477v39q-19 18 -50 18q-21 0 -35 -12t-15 -29q1 -19 13 -30t33 -11q35 0 54 25zM361 391h-115v30q-37 -37 -94 -37q-53 0 -87 29t-34 79q1 48 35 78t93 30q45 0 84 -21v9q0 69 -78 69q-29 0 -82 -12l-10 82q56 18 113 18q175 0 175 -159v-195z"/>
<glyph glyph-name="guillemotleft" horiz-adv-x="521" unicode="«" d="M285 9h-134l-105 164l105 163h134l-109 -163zM486 9h-134l-105 164l105 163h134l-109 -163z"/>
<glyph glyph-name="registered" horiz-adv-x="386" unicode="®" d="M174 622v-45q5 -1 12 -1q30 0 30 25q0 22 -28 22q-9 0 -14 -1zM131 486v172q23 3 53 3q77 0 77 -59q0 -33 -30 -50l41 -66h-49l-30 55h-19v-55h-43zM193 427q57 1 97 43t40 101q0 61 -40 103t-97 42t-97 -42t-40 -103q0 -59 40 -101t97 -43zM193 397q-71 0 -121 51 t-50 123q0 73 50 124t121 51t121 -51t50 -124q0 -72 -50 -123t-121 -51z"/>
<glyph glyph-name="macron" d="M394 507h-288v104h288v-104z" unicode="¯"/>
<glyph glyph-name="degree" horiz-adv-x="380" unicode="°" d="M230 580q0 20 -12 34t-28 13q-16 0 -28 -13t-12 -34t12 -34t28 -13t28 13t12 34zM305 580q-1 -45 -33 -78t-82 -33t-82 33t-33 78q1 45 33 78t82 33t82 -33t33 -78z"/>
<glyph glyph-name="acute" d="M376 572l-213 -89l-35 67l189 142z" unicode="´"/>
<glyph glyph-name="paragraph" horiz-adv-x="657" unicode="¶" d="M317 270v195q-47 -10 -73 -37t-26 -65q0 -43 26 -67t73 -26zM582 0h-100v465q-34 4 -65 5v-470h-100v140h-16q-95 0 -167 55q-78 60 -77 159q-1 106 95 176t253 71q83 0 177 -12v-589z"/>
<glyph glyph-name="periodcentered" horiz-adv-x="274" unicode="·" d="M59 366q0 33 23 56t55 23q33 0 56 -23t23 -56t-23 -56t-56 -23q-32 0 -55 23t-23 56z"/>
<glyph glyph-name="cedilla" d="M375 -158q0 -48 -34 -80t-96 -33q-61 0 -131 42l32 76q59 -38 105 -38q34 0 34 31q0 39 -99 39l-5 10l35 131l55 -14l-13 -57q117 -27 117 -107z" unicode="¸"/>
<glyph glyph-name="ordmasculine" horiz-adv-x="414" unicode="º" d="M276 565q0 44 -18 68t-51 24q-33 -1 -51 -25t-19 -67q1 -45 19 -69t51 -24t51 24t18 69zM394 565q0 -77 -50 -129t-137 -52t-137 52t-50 129q0 76 50 128t137 52t137 -52t50 -128z"/>
<glyph glyph-name="guillemotright" horiz-adv-x="521" unicode="»" d="M274 173l-105 -164h-134l109 164l-109 163h134zM475 173l-105 -164h-134l109 164l-109 163h134z"/>
<glyph glyph-name="questiondown" horiz-adv-x="403" unicode="¿" d="M10 173q0 41 19 75t46 58t53 48q26 23 46 51q19 28 19 60v37h130v-46q0 -42 -14 -77q-15 -35 -35 -59t-40 -44t-35 -41q-14 -21 -14 -42q0 -64 82 -64q42 0 91 18l22 -128q-76 -26 -148 -26q-106 -1 -164 51t-58 129zM180 662q0 33 23 56t56 23t56 -23t23 -56t-23 -56 t-56 -23t-56 23t-23 56z"/>
<glyph glyph-name="Agrave" horiz-adv-x="693" unicode="À" d="M401 852l-40 -64l-216 94l63 116zM417 263l-72 176l-73 -176h145zM703 0h-177l-55 133h-253l-55 -133h-173l345 739h23z"/>
<glyph glyph-name="Aacute" horiz-adv-x="693" unicode="Á" d="M530 877l-213 -89l-35 67l189 142zM417 263l-72 176l-73 -176h145zM703 0h-177l-55 133h-253l-55 -133h-173l345 739h23z"/>
<glyph glyph-name="Acircumflex" horiz-adv-x="693" unicode="Â" d="M537 802h-131l-63 83l-63 -83h-125l163 194h61zM417 263l-72 176l-73 -176h145zM703 0h-177l-55 133h-253l-55 -133h-173l345 739h23z"/>
<glyph glyph-name="Atilde" horiz-adv-x="693" unicode="Ã" d="M541 868q-24 -28 -57 -46t-63 -18q-36 0 -74 20q-34 19 -65 19q-43 0 -77 -40l-45 82q22 27 56 45t64 19q39 0 74 -20q31 -17 60 -17q41 0 77 40zM417 263l-72 176l-73 -176h145zM703 0h-177l-55 133h-253l-55 -133h-173l345 739h23z"/>
<glyph glyph-name="Adieresis" horiz-adv-x="693" unicode="Ä" d="M326 874q0 -31 -22 -53t-54 -22q-31 0 -53 22t-22 53q0 32 22 54t53 22q32 0 54 -22t22 -54zM517 874q0 -31 -22 -53t-53 -22t-53 22t-22 53q0 32 22 54t53 22t53 -22t22 -54zM417 263l-72 176l-73 -176h145zM703 0h-177l-55 133h-253l-55 -133h-173l345 739h23z"/>
<glyph glyph-name="Aring" horiz-adv-x="693" unicode="Å" d="M395 812q-1 24 -15 40t-35 17q-21 0 -35 -16t-13 -41q-1 -25 13 -41t35 -16t35 16t15 41zM417 263l-72 176l-73 -176h145zM475 812q-1 -43 -27 -77t-69 -44l324 -691h-177l-55 133h-253l-55 -133h-173l322 691q-44 10 -70 44t-26 77q0 51 36 88t93 37q56 0 93 -37t37 -88 z"/>
<glyph glyph-name="AE" horiz-adv-x="1014" unicode="Æ" d="M481 263v222l-137 -222h137zM944 0h-463v124h-223l-77 -124h-192l492 733h463v-156h-293v-131h267v-148h-267v-143h293v-155z"/>
<glyph glyph-name="Ccedilla" horiz-adv-x="724" unicode="Ç" d="M576 -148q0 -48 -34 -80t-96 -33q-61 0 -131 42l32 76q59 -38 105 -38q34 0 34 31q0 39 -99 39l-5 10l24 91q-158 16 -254 120t-97 256q-1 165 111 272t290 107q121 0 229 -64l-52 -144q-88 49 -175 49q-102 0 -162 -59t-60 -161t60 -161t162 -59q96 0 183 54l51 -144 q-98 -65 -227 -68l-6 -29q117 -27 117 -107z"/>
<glyph glyph-name="Egrave" horiz-adv-x="614" unicode="È" d="M367 852l-40 -64l-216 94l63 116zM544 0h-464v733h464v-156h-294v-131h268v-148h-268v-143h294v-155z"/>
<glyph glyph-name="Eacute" horiz-adv-x="614" unicode="É" d="M496 877l-213 -89l-35 67l189 142zM544 0h-464v733h464v-156h-294v-131h268v-148h-268v-143h294v-155z"/>
<glyph glyph-name="Ecircumflex" horiz-adv-x="614" unicode="Ê" d="M503 802h-131l-63 83l-63 -83h-125l163 194h61zM544 0h-464v733h464v-156h-294v-131h268v-148h-268v-143h294v-155z"/>
<glyph glyph-name="Edieresis" horiz-adv-x="614" unicode="Ë" d="M292 874q0 -31 -22 -53t-54 -22q-31 0 -53 22t-22 53q0 32 22 54t53 22q32 0 54 -22t22 -54zM483 874q0 -31 -22 -53t-53 -22t-53 22t-22 53q0 32 22 54t53 22t53 -22t22 -54zM544 0h-464v733h464v-156h-294v-131h268v-148h-268v-143h294v-155z"/>
<glyph glyph-name="Igrave" horiz-adv-x="340" unicode="Ì" d="M225 852l-40 -64l-216 94l63 116zM255 0h-170v733h170v-733z"/>
<glyph glyph-name="Iacute" horiz-adv-x="340" unicode="Í" d="M354 892l-213 -89l-35 67l189 142zM255 0h-170v733h170v-733z"/>
<glyph glyph-name="Icircumflex" horiz-adv-x="340" unicode="Î" d="M361 802h-131l-63 83l-63 -83h-125l163 194h61zM255 0h-170v733h170v-733z"/>
<glyph glyph-name="Idieresis" horiz-adv-x="340" unicode="Ï" d="M150 874q0 -31 -22 -53t-54 -22q-31 0 -53 22t-22 53q0 32 22 54t53 22q32 0 54 -22t22 -54zM341 874q0 -31 -22 -53t-53 -22t-53 22t-22 53q0 32 22 54t53 22t53 -22t22 -54zM255 0h-170v733h170v-733z"/>
<glyph glyph-name="Eth" horiz-adv-x="798" unicode="Ð" d="M582 373q0 101 -62 157t-180 56q-35 0 -70 -4v-141h114v-135h-114v-156q41 -4 81 -4q115 0 173 60t58 167zM763 373q0 -171 -110 -275t-329 -104q-89 0 -224 12v300h-73v135h73v285q113 12 217 12q219 0 333 -101t113 -264z"/>
<glyph glyph-name="Ntilde" horiz-adv-x="789" unicode="Ñ" d="M589 868q-24 -28 -57 -46t-63 -18q-36 0 -74 20q-34 19 -65 19q-43 0 -77 -40l-45 82q22 27 56 45t64 19q39 0 74 -20q31 -17 60 -17q41 0 77 40zM709 -11l-17 -3l-442 397v-383h-170v743l23 4l436 -394v380h170v-744z"/>
<glyph glyph-name="Ograve" horiz-adv-x="861" unicode="Ò" d="M485 852l-40 -64l-216 94l63 116zM624 366q0 100 -54 164t-140 63q-86 1 -140 -63t-54 -164q0 -99 54 -163t140 -64t140 64t54 163zM806 366q0 -162 -106 -270t-273 -108q-168 0 -270 107t-102 271q-1 164 105 272t274 107q168 0 270 -107t102 -272z"/>
<glyph glyph-name="Oacute" horiz-adv-x="861" unicode="Ó" d="M614 877l-213 -89l-35 67l189 142zM624 366q0 100 -54 164t-140 63q-86 1 -140 -63t-54 -164q0 -99 54 -163t140 -64t140 64t54 163zM806 366q0 -162 -106 -270t-273 -108q-168 0 -270 107t-102 271q-1 164 105 272t274 107q168 0 270 -107t102 -272z"/>
<glyph glyph-name="Ocircumflex" horiz-adv-x="861" unicode="Ô" d="M621 802h-131l-63 83l-63 -83h-125l163 194h61zM624 366q0 100 -54 164t-140 63q-86 1 -140 -63t-54 -164q0 -99 54 -163t140 -64t140 64t54 163zM806 366q0 -162 -106 -270t-273 -108q-168 0 -270 107t-102 271q-1 164 105 272t274 107q168 0 270 -107t102 -272z"/>
<glyph glyph-name="Otilde" horiz-adv-x="861" unicode="Õ" d="M625 868q-24 -28 -57 -46t-63 -18q-36 0 -74 20q-34 19 -65 19q-43 0 -77 -40l-45 82q22 27 56 45t64 19q39 0 74 -20q31 -17 60 -17q41 0 77 40zM624 366q0 100 -54 164t-140 63q-86 1 -140 -63t-54 -164q0 -99 54 -163t140 -64t140 64t54 163zM806 366 q0 -162 -106 -270t-273 -108q-168 0 -270 107t-102 271q-1 164 105 272t274 107q168 0 270 -107t102 -272z"/>
<glyph glyph-name="Odieresis" horiz-adv-x="861" unicode="Ö" d="M410 874q0 -31 -22 -53t-54 -22q-31 0 -53 22t-22 53q0 32 22 54t53 22q32 0 54 -22t22 -54zM601 874q0 -31 -22 -53t-53 -22t-53 22t-22 53q0 32 22 54t53 22t53 -22t22 -54zM624 366q0 100 -54 164t-140 63q-86 1 -140 -63t-54 -164q0 -99 54 -163t140 -64t140 64 t54 163zM806 366q0 -162 -106 -270t-273 -108q-168 0 -270 107t-102 271q-1 164 105 272t274 107q168 0 270 -107t102 -272z"/>
<glyph glyph-name="multiply" horiz-adv-x="458" unicode="×" d="M63 386l73 73l93 -97l93 97l73 -73l-95 -98l95 -98l-73 -73l-93 96l-93 -96l-73 73l94 98z"/>
<glyph glyph-name="Oslash" horiz-adv-x="861" unicode="Ø" d="M624 366q0 48 -13 86l-294 -275q47 -38 113 -38q86 0 140 64t54 163zM543 555q-47 38 -113 38q-86 1 -140 -63t-54 -164q0 -47 12 -86zM806 366q0 -162 -106 -270t-273 -108q-137 0 -233 74l-73 -68l-86 87l77 72q-57 92 -57 213q-1 164 105 272t274 107q138 0 233 -75 l72 68l86 -86l-77 -72q58 -92 58 -214z"/>
<glyph glyph-name="Ugrave" horiz-adv-x="763" unicode="Ù" d="M437 852l-40 -64l-216 94l63 116zM693 298q0 -150 -82 -230t-232 -80q-149 0 -228 79t-79 231v435h170v-423q0 -167 141 -167q140 0 140 167v423h170v-435z"/>
<glyph glyph-name="Uacute" horiz-adv-x="763" unicode="Ú" d="M566 877l-213 -89l-35 67l189 142zM693 298q0 -150 -82 -230t-232 -80q-149 0 -228 79t-79 231v435h170v-423q0 -167 141 -167q140 0 140 167v423h170v-435z"/>
<glyph glyph-name="Ucircumflex" horiz-adv-x="763" unicode="Û" d="M573 802h-131l-63 83l-63 -83h-125l163 194h61zM693 298q0 -150 -82 -230t-232 -80q-149 0 -228 79t-79 231v435h170v-423q0 -167 141 -167q140 0 140 167v423h170v-435z"/>
<glyph glyph-name="Udieresis" horiz-adv-x="763" unicode="Ü" d="M362 874q0 -31 -22 -53t-54 -22q-31 0 -53 22t-22 53q0 32 22 54t53 22q32 0 54 -22t22 -54zM553 874q0 -31 -22 -53t-53 -22t-53 22t-22 53q0 32 22 54t53 22t53 -22t22 -54zM693 298q0 -150 -82 -230t-232 -80q-149 0 -228 79t-79 231v435h170v-423q0 -167 141 -167 q140 0 140 167v423h170v-435z"/>
<glyph glyph-name="Yacute" horiz-adv-x="706" unicode="Ý" d="M537 877l-213 -89l-35 67l189 142zM696 733l-258 -443v-290h-170v291l-258 442h195l150 -281l150 281h191z"/>
<glyph glyph-name="Thorn" horiz-adv-x="646" unicode="Þ" d="M436 361q0 47 -32 76t-91 29q-28 0 -63 -4v-209q48 -2 51 -2q135 0 135 110zM610 364q0 -116 -78 -188t-219 -72q-17 0 -63 2v-106h-170v733h170v-108h34q154 0 240 -73t86 -188z"/>
<glyph glyph-name="germandbls" horiz-adv-x="593" unicode="ß" d="M590 422l-136 -199q109 -43 109 -140q1 -81 -69 -129t-168 -48q-27 0 -60 5l11 116q23 -4 48 -4q90 0 90 60q0 23 -20 38t-61 15q-23 0 -36 -2l-7 14l100 166h-177v-314h-148v524q0 102 52 159t151 57q37 0 75 -9l-12 -125q-17 4 -46 4q-36 0 -54 -21t-18 -77v-78h371z "/>
<glyph glyph-name="agrave" horiz-adv-x="481" unicode="à" d="M302 547l-40 -64l-216 94l63 116zM289 107v49q-26 23 -62 23q-25 -1 -43 -15t-19 -36q-1 -24 15 -38t42 -14q44 0 67 31zM436 0h-143v37q-47 -45 -118 -45q-65 0 -107 36t-42 99q0 58 42 96t117 38q57 0 104 -26v11q0 86 -97 86q-39 0 -102 -15l-13 103q73 22 141 22 q218 0 218 -199v-243z"/>
<glyph glyph-name="aacute" horiz-adv-x="481" unicode="á" d="M431 572l-213 -89l-35 67l189 142zM289 107v49q-26 23 -62 23q-25 -1 -43 -15t-19 -36q-1 -24 15 -38t42 -14q44 0 67 31zM436 0h-143v37q-47 -45 -118 -45q-65 0 -107 36t-42 99q0 58 42 96t117 38q57 0 104 -26v11q0 86 -97 86q-39 0 -102 -15l-13 103q73 22 141 22 q218 0 218 -199v-243z"/>
<glyph glyph-name="acircumflex" horiz-adv-x="481" unicode="â" d="M438 497h-131l-63 83l-63 -83h-125l163 194h61zM289 107v49q-26 23 -62 23q-25 -1 -43 -15t-19 -36q-1 -24 15 -38t42 -14q44 0 67 31zM436 0h-143v37q-47 -45 -118 -45q-65 0 -107 36t-42 99q0 58 42 96t117 38q57 0 104 -26v11q0 86 -97 86q-39 0 -102 -15l-13 103 q73 22 141 22q218 0 218 -199v-243z"/>
<glyph glyph-name="atilde" horiz-adv-x="481" unicode="ã" d="M442 563q-24 -27 -57 -45t-63 -19q-36 0 -74 20q-34 19 -65 19q-43 0 -77 -40l-45 82q23 28 57 46t63 18q39 0 74 -20q31 -17 60 -17q41 0 77 40zM289 107v49q-26 23 -62 23q-25 -1 -43 -15t-19 -36q-1 -24 15 -38t42 -14q44 0 67 31zM436 0h-143v37q-47 -45 -118 -45 q-65 0 -107 36t-42 99q0 58 42 96t117 38q57 0 104 -26v11q0 86 -97 86q-39 0 -102 -15l-13 103q73 22 141 22q218 0 218 -199v-243z"/>
<glyph glyph-name="adieresis" horiz-adv-x="481" unicode="ä" d="M227 569q-1 -31 -23 -53t-53 -22t-53 22t-22 53t22 53t53 23q31 -1 53 -23t23 -53zM418 569q0 -31 -22 -53t-53 -22t-53 22t-22 53t22 53t53 23q31 0 53 -22t22 -54zM289 107v49q-26 23 -62 23q-25 -1 -43 -15t-19 -36q-1 -24 15 -38t42 -14q44 0 67 31zM436 0h-143v37 q-47 -45 -118 -45q-65 0 -107 36t-42 99q0 58 42 96t117 38q57 0 104 -26v11q0 86 -97 86q-39 0 -102 -15l-13 103q73 22 141 22q218 0 218 -199v-243z"/>
<glyph glyph-name="aring" horiz-adv-x="481" unicode="å" d="M297 614q-1 24 -15 40t-35 17q-21 0 -35 -16t-13 -41q-1 -25 13 -41t35 -16t35 16t15 41zM377 614q0 -51 -37 -88t-93 -37q-57 0 -93 37t-36 88t36 88t93 37q56 0 93 -37t37 -88zM289 107v49q-26 23 -62 23q-25 -1 -43 -15t-19 -36q-1 -24 15 -38t42 -14q44 0 67 31z M436 0h-143v37q-47 -45 -118 -45q-65 0 -107 36t-42 99q0 58 42 96t117 38q57 0 104 -26v11q0 86 -97 86q-39 0 -102 -15l-13 103q73 22 141 22q218 0 218 -199v-243z"/>
<glyph glyph-name="ae" horiz-adv-x="748" unicode="æ" d="M311 138q-31 47 -88 47q-23 -1 -41 -15t-17 -37q-1 -23 15 -37t42 -14q28 0 52 14t37 42zM594 253q-4 37 -24 57t-52 20q-69 0 -80 -77h156zM290 235v11q0 86 -97 86q-39 0 -102 -15l-13 103q72 22 136 22q114 0 164 -61q61 61 145 61q94 0 147 -60t53 -149q0 -39 -3 -61 h-284q6 -38 32 -54t78 -16q51 0 131 23l14 -109q-94 -24 -156 -24q-115 0 -180 80q-74 -80 -167 -80q-74 0 -118 36t-44 99q0 58 42 96t117 38q56 0 105 -26z"/>
<glyph glyph-name="ccedilla" horiz-adv-x="436" unicode="ç" d="M385 -148q0 -48 -34 -80t-96 -33q-61 0 -131 42l32 76q59 -38 105 -38q34 0 34 31q0 39 -99 39l-5 10l26 99q-89 16 -137 76t-48 141q0 95 66 161t189 66q75 0 143 -43l-43 -99q-48 25 -97 25q-48 0 -80 -27t-31 -81q0 -50 33 -79t84 -29q52 0 96 25l38 -99 q-68 -43 -143 -43h-12l-7 -33q117 -27 117 -107z"/>
<glyph glyph-name="egrave" horiz-adv-x="491" unicode="è" d="M313 547l-40 -64l-216 94l63 116zM180 253h157q-5 37 -25 57t-52 20q-69 0 -80 -77zM466 233q0 -39 -3 -61h-284q7 -38 33 -54t76 -16q51 0 132 23l14 -109q-96 -24 -161 -24q-121 0 -181 62t-60 161q0 91 61 159t167 68q98 0 152 -60t54 -149z"/>
<glyph glyph-name="eacute" horiz-adv-x="491" unicode="é" d="M442 572l-213 -89l-35 67l189 142zM180 253h157q-5 37 -25 57t-52 20q-69 0 -80 -77zM466 233q0 -39 -3 -61h-284q7 -38 33 -54t76 -16q51 0 132 23l14 -109q-96 -24 -161 -24q-121 0 -181 62t-60 161q0 91 61 159t167 68q98 0 152 -60t54 -149z"/>
<glyph glyph-name="ecircumflex" horiz-adv-x="491" unicode="ê" d="M449 497h-131l-63 83l-63 -83h-125l163 194h61zM180 253h157q-5 37 -25 57t-52 20q-69 0 -80 -77zM466 233q0 -39 -3 -61h-284q7 -38 33 -54t76 -16q51 0 132 23l14 -109q-96 -24 -161 -24q-121 0 -181 62t-60 161q0 91 61 159t167 68q98 0 152 -60t54 -149z"/>
<glyph glyph-name="edieresis" horiz-adv-x="491" unicode="ë" d="M238 569q0 -31 -22 -53t-54 -22q-31 0 -53 22t-22 53t22 53t53 23q32 -1 54 -23t22 -53zM429 569q0 -31 -22 -53t-53 -22t-53 22t-22 53t22 53t53 23q31 0 53 -22t22 -54zM180 253h157q-5 37 -25 57t-52 20q-69 0 -80 -77zM466 233q0 -39 -3 -61h-284q7 -38 33 -54 t76 -16q51 0 132 23l14 -109q-96 -24 -161 -24q-121 0 -181 62t-60 161q0 91 61 159t167 68q98 0 152 -60t54 -149z"/>
<glyph glyph-name="igrave" horiz-adv-x="272" unicode="ì" d="M191 547l-40 -64l-216 94l63 116zM211 0h-149v434h149v-434z"/>
<glyph glyph-name="iacute" horiz-adv-x="272" unicode="í" d="M320 572l-213 -89l-35 67l189 142zM211 0h-149v434h149v-434z"/>
<glyph glyph-name="icircumflex" horiz-adv-x="272" unicode="î" d="M327 497h-131l-63 83l-63 -83h-125l163 194h61zM211 0h-149v434h149v-434z"/>
<glyph glyph-name="idieresis" horiz-adv-x="272" unicode="ï" d="M116 569q0 -31 -22 -53t-54 -22q-31 0 -53 22t-22 53t22 53t53 23q32 -1 54 -23t22 -53zM307 569q0 -31 -22 -53t-53 -22t-53 22t-22 53t22 53t53 23q31 0 53 -22t22 -54zM211 0h-149v434h149v-434z"/>
<glyph glyph-name="eth" horiz-adv-x="541" unicode="ð" d="M364 218q0 54 -26 84t-65 31q-39 0 -64 -29t-25 -81q0 -55 24 -89t67 -35q43 0 66 32t23 87zM163 465l-57 71l55 48q-48 29 -93 43l57 118q84 -38 137 -73l66 58l62 -76l-50 -41q164 -146 164 -361q0 -120 -62 -192t-171 -72q-111 0 -173 68t-61 164q0 94 52 158t149 63 q60 0 101 -30q-28 60 -99 118z"/>
<glyph glyph-name="ntilde" horiz-adv-x="544" unicode="ñ" d="M473 563q-24 -27 -57 -45t-63 -19q-36 0 -74 20q-34 19 -65 19q-43 0 -77 -40l-45 82q22 28 56 46t64 18q39 0 74 -20q31 -17 60 -17q41 0 77 40zM499 0h-149v264q0 55 -46 55q-50 0 -98 -52v-267h-149v434h145v-78q85 86 162 86q66 0 100 -39t35 -105v-298z"/>
<glyph glyph-name="ograve" horiz-adv-x="541" unicode="ò" d="M325 547l-40 -64l-216 94l63 116zM352 217q0 55 -22 85t-64 30q-41 0 -64 -30t-23 -85t23 -85t64 -30q42 0 64 30t22 85zM499 217q0 -95 -63 -160t-170 -65q-106 0 -170 65t-64 160t64 160t170 65q107 0 170 -65t63 -160z"/>
<glyph glyph-name="oacute" horiz-adv-x="541" unicode="ó" d="M454 572l-213 -89l-35 67l189 142zM352 217q0 55 -22 85t-64 30q-41 0 -64 -30t-23 -85t23 -85t64 -30q42 0 64 30t22 85zM499 217q0 -95 -63 -160t-170 -65q-106 0 -170 65t-64 160t64 160t170 65q107 0 170 -65t63 -160z"/>
<glyph glyph-name="ocircumflex" horiz-adv-x="541" unicode="ô" d="M461 497h-131l-63 83l-63 -83h-125l163 194h61zM352 217q0 55 -22 85t-64 30q-41 0 -64 -30t-23 -85t23 -85t64 -30q42 0 64 30t22 85zM499 217q0 -95 -63 -160t-170 -65q-106 0 -170 65t-64 160t64 160t170 65q107 0 170 -65t63 -160z"/>
<glyph glyph-name="otilde" horiz-adv-x="541" unicode="õ" d="M465 563q-24 -27 -57 -45t-63 -19q-36 0 -74 20q-34 19 -65 19q-43 0 -77 -40l-45 82q22 28 56 46t64 18q39 0 74 -20q31 -17 60 -17q41 0 77 40zM352 217q0 55 -22 85t-64 30q-41 0 -64 -30t-23 -85t23 -85t64 -30q42 0 64 30t22 85zM499 217q0 -95 -63 -160t-170 -65 q-106 0 -170 65t-64 160t64 160t170 65q107 0 170 -65t63 -160z"/>
<glyph glyph-name="odieresis" horiz-adv-x="541" unicode="ö" d="M250 569q0 -31 -22 -53t-54 -22q-31 0 -53 22t-22 53t22 53t53 23q32 -1 54 -23t22 -53zM441 569q0 -31 -22 -53t-53 -22t-53 22t-22 53t22 53t53 23q31 0 53 -22t22 -54zM352 217q0 55 -22 85t-64 30q-41 0 -64 -30t-23 -85t23 -85t64 -30q42 0 64 30t22 85zM499 217 q0 -95 -63 -160t-170 -65q-106 0 -170 65t-64 160t64 160t170 65q107 0 170 -65t63 -160z"/>
<glyph glyph-name="divide" horiz-adv-x="458" unicode="÷" d="M164 142q0 27 19 46t46 19t46 -19t19 -46t-19 -46t-46 -19t-46 19t-19 46zM164 434q0 27 19 46t46 19t46 -19t19 -46t-19 -46t-46 -19t-46 19t-19 46zM60 238v100h338v-100h-338z"/>
<glyph glyph-name="oslash" horiz-adv-x="531" unicode="ø" d="M348 258l-140 -134q24 -22 58 -22q42 0 64 30t22 85q0 24 -4 41zM183 176l140 133q-23 23 -57 23q-41 0 -64 -30t-23 -85q0 -25 4 -41zM499 403l-47 -45q47 -59 47 -141q0 -95 -63 -160t-170 -65q-85 0 -148 45l-47 -45l-39 39l47 45q-47 59 -47 141q0 95 64 160t170 65 q88 0 147 -46l48 46z"/>
<glyph glyph-name="ugrave" horiz-adv-x="542" unicode="ù" d="M329 547l-40 -64l-216 94l63 116zM495 0h-145v73q-81 -81 -159 -81q-66 0 -102 39t-36 104v299h149v-264q0 -55 49 -55q50 0 95 49v270h149v-434z"/>
<glyph glyph-name="uacute" horiz-adv-x="542" unicode="ú" d="M458 572l-213 -89l-35 67l189 142zM495 0h-145v73q-81 -81 -159 -81q-66 0 -102 39t-36 104v299h149v-264q0 -55 49 -55q50 0 95 49v270h149v-434z"/>
<glyph glyph-name="ucircumflex" horiz-adv-x="542" unicode="û" d="M465 497h-131l-63 83l-63 -83h-125l163 194h61zM495 0h-145v73q-81 -81 -159 -81q-66 0 -102 39t-36 104v299h149v-264q0 -55 49 -55q50 0 95 49v270h149v-434z"/>
<glyph glyph-name="udieresis" horiz-adv-x="542" unicode="ü" d="M254 569q0 -31 -22 -53t-54 -22q-31 0 -53 22t-22 53t22 53t53 23q32 -1 54 -23t22 -53zM445 569q0 -31 -22 -53t-53 -22t-53 22t-22 53t22 53t53 23q31 0 53 -22t22 -54zM495 0h-145v73q-81 -81 -159 -81q-66 0 -102 39t-36 104v299h149v-264q0 -55 49 -55q50 0 95 49 v270h149v-434z"/>
<glyph glyph-name="yacute" horiz-adv-x="487" unicode="ý" d="M427 572l-213 -89l-35 67l189 142zM495 434l-307 -650h-148l135 262l-183 388h164l89 -242l89 242h161z"/>
<glyph glyph-name="thorn" horiz-adv-x="557" unicode="þ" d="M372 219q0 51 -22 79t-62 29q-48 0 -82 -40v-151q26 -29 77 -29q37 1 63 29t26 83zM520 220q0 -94 -60 -161t-153 -67q-56 0 -101 24v-232h-149v949h149v-335q54 44 123 44q83 0 137 -63t54 -159z"/>
<glyph glyph-name="OE" horiz-adv-x="1072" unicode="Œ" d="M539 150v432q-41 4 -81 4q-102 0 -162 -62t-60 -165q0 -97 66 -155t167 -58q18 0 70 4zM1002 0h-369q-73 -6 -142 -6q-203 0 -319 103t-117 262q0 167 113 273t316 106q65 0 142 -5h376v-156h-293v-131h267v-148h-267v-143h293v-155z"/>
<glyph glyph-name="oe" horiz-adv-x="805" unicode="œ" d="M352 217q0 55 -23 85t-64 30t-63 -30t-23 -85q1 -55 23 -85t63 -30t64 30t23 85zM656 253q-4 37 -24 57t-52 20q-69 0 -80 -77h156zM785 233q0 -39 -3 -61h-283q5 -38 31 -54t78 -16q51 0 131 23l14 -109q-94 -24 -156 -24q-114 0 -175 69q-62 -69 -161 -69 q-103 0 -166 66t-63 159t63 159t166 66q102 0 164 -72q62 72 160 72q94 0 147 -60t53 -149z"/>
<glyph glyph-name="Scaron" horiz-adv-x="572" unicode="Š" d="M478 994l-163 -194h-61l-158 194h132l63 -83l62 83h125zM533 216q0 -96 -68 -162t-193 -66q-62 0 -130 22t-117 53l47 154q97 -71 205 -71q83 0 83 64q0 31 -26 54t-105 55q-174 70 -174 215q0 86 68 148t190 63q57 0 113 -17t92 -40l-43 -152q-35 24 -81 42t-81 18 q-43 0 -65 -17t-22 -42q0 -33 26 -51t103 -52q99 -42 139 -93t39 -125z"/>
<glyph glyph-name="scaron" horiz-adv-x="418" unicode="š" d="M409 689l-163 -194h-61l-158 194h132l63 -83l62 83h125zM397 131q0 -63 -54 -101t-136 -38q-101 0 -188 56l47 106q75 -53 141 -53q50 0 50 29q1 14 -21 24t-53 16q-31 8 -63 20t-52 39q-22 27 -22 67q0 66 52 106t132 40t158 -41l-36 -106q-72 39 -129 39q-21 0 -33 -8 t-12 -19q0 -15 22 -24t56 -17q32 -8 64 -22q32 -12 54 -41t23 -72z"/>
<glyph glyph-name="Ydieresis" horiz-adv-x="706" unicode="Ÿ" d="M333 874q-1 -31 -23 -53t-53 -22t-53 22t-22 53q0 32 22 54t53 22t53 -22t23 -54zM524 874q0 -31 -22 -53t-53 -22t-53 22t-22 53q0 32 22 54t53 22t53 -22t22 -54zM696 733l-258 -443v-290h-170v291l-258 442h195l150 -281l150 281h191z"/>
<glyph glyph-name="circumflex" d="M444 497h-131l-63 83l-63 -83h-125l163 194h61z" unicode="ˆ"/>
<glyph glyph-name="tilde" d="M445 563q-24 -27 -57 -45t-63 -19q-36 0 -74 20q-34 19 -65 19q-43 0 -77 -40l-45 82q22 28 56 46t64 18q39 0 74 -20q31 -17 60 -17q41 0 77 40z" unicode="˜"/>
<glyph glyph-name="enspace" unicode=" "/>
<glyph glyph-name="emspace" horiz-adv-x="1000" unicode=" "/>
<glyph glyph-name="thinspace" horiz-adv-x="133" unicode=" "/>
<glyph glyph-name="endash" d="M450 203h-400v87h400v-87z" unicode="–"/>
<glyph glyph-name="emdash" horiz-adv-x="750" unicode="—" d="M700 203h-650v87h650v-87z"/>
<glyph glyph-name="quoteleft" horiz-adv-x="212" unicode="‘" d="M176 568q0 -28 -20 -48t-48 -20q-36 0 -56 24t-20 59q0 49 33 94t86 68l12 -20q-42 -36 -60 -87q33 -2 53 -22t20 -48z"/>
<glyph glyph-name="quotesinglbase" horiz-adv-x="260" unicode="‚" d="M202 63q0 -49 -33 -94t-85 -68l-13 20q42 36 60 87q-32 2 -52 22t-20 48q-1 28 19 48t48 20q36 0 56 -24t20 -59z"/>
<glyph glyph-name="quotedblleft" horiz-adv-x="388" unicode="“" d="M176 568q0 -28 -20 -48t-48 -20q-36 0 -56 24t-20 59q0 49 33 94t86 68l12 -20q-42 -36 -60 -87q33 -2 53 -22t20 -48zM351 568q1 -28 -19 -48t-48 -20q-36 0 -56 24t-20 59q0 49 33 94t85 68l13 -20q-42 -36 -60 -87q32 -2 52 -22t20 -48z"/>
<glyph glyph-name="quotedblright" horiz-adv-x="388" unicode="”" d="M180 662q0 -49 -33 -94t-85 -68l-13 20q42 36 60 87q-32 1 -52 21t-20 49q-1 28 19 48t48 20q36 1 56 -23t20 -60zM356 662q0 -49 -33 -94t-86 -68l-12 20q42 36 60 87q-33 1 -53 21t-20 49q0 28 20 48t48 20q36 1 56 -23t20 -60z"/>
<glyph glyph-name="dagger" horiz-adv-x="465" unicode="†" d="M430 455h-130v-317h-131v317h-134v123h134v155h131v-155h130v-123z"/>
<glyph glyph-name="daggerdbl" horiz-adv-x="465" unicode="‡" d="M435 264h-135v-126h-130v126h-130v124h130v95h-135v123h135v127h130v-127h130v-123h-130v-95h135v-124z"/>
<glyph glyph-name="ellipsis" horiz-adv-x="842" unicode="…" d="M617 71q0 33 23 56t55 23q33 0 56 -23t23 -56t-23 -56t-56 -23q-32 0 -55 23t-23 56zM343 71q0 33 23 56t55 23q33 0 56 -23t23 -56t-23 -56t-56 -23q-32 0 -55 23t-23 56zM69 71q0 33 23 56t55 23q33 0 56 -23t23 -56t-23 -56t-56 -23q-32 0 -55 23t-23 56z"/>
<glyph glyph-name="perthousand" horiz-adv-x="1067" unicode="‰" d="M1017 144q0 -62 -39 -108t-105 -46t-104 45t-38 109q0 62 39 108t105 46t104 -46t38 -108zM918 144q0 78 -44 78q-45 0 -45 -78q0 -79 45 -79q44 0 44 79zM695 144q0 -62 -39 -108t-105 -46t-104 45t-38 109q0 62 39 108t105 46t104 -46t38 -108zM596 144q0 78 -44 78 q-45 0 -45 -78q0 -79 45 -79q44 0 44 79zM636 556l-469 -572l-58 49l469 572zM336 446q0 -62 -39 -108t-105 -46t-104 46t-38 108t39 108t105 46t104 -45t38 -109zM238 446q0 78 -45 78q-44 0 -44 -78t44 -78q45 0 45 78z"/>
<glyph glyph-name="guilsinglleft" horiz-adv-x="328" unicode="‹" d="M285 9h-134l-105 164l105 163h134l-109 -163z"/>
<glyph glyph-name="guilsinglright" horiz-adv-x="328" unicode="›" d="M281 173l-105 -164h-134l109 164l-109 163h134z"/>
<glyph glyph-name="fraction" horiz-adv-x="579" unicode="⁄" d="M552 556l-469 -572l-58 49l469 572z"/>
<glyph glyph-name="Euro" horiz-adv-x="647" unicode="€" d="M91 320h-63v83h80q32 89 112 143t189 55q98 0 186 -54l-48 -112q-68 37 -136 37q-107 0 -149 -69h227v-83h-253q-1 -7 -1 -26q0 -17 1 -25h253v-83h-226q43 -69 151 -69q75 0 139 39l45 -112q-87 -56 -189 -56q-110 0 -190 54t-111 144h-80v83h63q-1 8 -1 24q0 19 1 27z "/>
<glyph glyph-name="trademark" horiz-adv-x="516" unicode="™" d="M219 674h-66v-168h-62v168h-66v59h194v-59zM488 506h-56l-3 101l-59 -68h-6l-60 68l-2 -101h-56l11 228l8 1l103 -122l102 122l7 -1z"/>
<glyph glyph-name="arrowleft" horiz-adv-x="705" unicode="←" d="M655 189h-419l102 -99l-84 -87l-222 236v15l222 236l84 -87l-102 -99h419v-115z"/>
<glyph glyph-name="arrowright" horiz-adv-x="705" unicode="→" d="M50 304h419l-102 99l84 87l222 -236v-15l-222 -236l-84 87l102 99h-419v115z"/>
<glyph glyph-name="minus" horiz-adv-x="458" unicode="−" d="M60 235v106h338v-106h-338z"/>
</font>
</defs>
</svg>
